0
SECTION
2
HEADER
9
$INSUNITS
70
4
9
$ACADVER
1
AC1014
9
$HANDSEED
5
FFFF
0
ENDSEC
0
SECTION
2
TABLES
0
TABLE
2
VPORT
5
8
100
AcDbSymbolTable
0
ENDTAB
0
TABLE
2
LTYPE
5
5
100
AcDbSymbolTable
0
LTYPE
5
14
100
AcDbSymbolTableRecord
100
AcDbLinetypeTableRecord
2
BYBLOCK
70
0
0
LTYPE
5
15
100
AcDbSymbolTableRecord
100
AcDbLinetypeTableRecord
2
BYLAYER
70
0
0
ENDTAB
0
TABLE
2
LAYER
5
2
100
AcDbSymbolTable
70
2
0
LAYER
5
50
100
AcDbSymbolTableRecord
100
AcDbLayerTableRecord
2
0
70
0
6
CONTINUOUS
0
ENDTAB
0
TABLE
2
STYLE
5
3
100
AcDbSymbolTable
70
1
0
STYLE
5
11
100
AcDbSymbolTableRecord
100
AcDbTextStyleTableRecord
2
STANDARD
70
0
0
ENDTAB
0
TABLE
2
VIEW
5
6
100
AcDbSymbolTable
70
0
0
ENDTAB
0
TABLE
2
UCS
5
7
100
AcDbSymbolTable
70
0
0
ENDTAB
0
TABLE
2
APPID
5
9
100
AcDbSymbolTable
70
2
0
APPID
5
12
100
AcDbSymbolTableRecord
100
AcDbRegAppTableRecord
2
ACAD
70
0
0
ENDTAB
0
TABLE
2
DIMSTYLE
5
A
100
AcDbSymbolTable
70
1
0
ENDTAB
0
TABLE
2
BLOCK_RECORD
5
1
100
AcDbSymbolTable
70
1
0
BLOCK_RECORD
5
1F
100
AcDbSymbolTableRecord
100
AcDbBlockTableRecord
2
*MODEL_SPACE
0
BLOCK_RECORD
5
1B
100
AcDbSymbolTableRecord
100
AcDbBlockTableRecord
2
*PAPER_SPACE
0
ENDTAB
0
ENDSEC
0
SECTION
2
BLOCKS
0
BLOCK
5
20
100
AcDbEntity
100
AcDbBlockBegin
2
*MODEL_SPACE
0
ENDBLK
5
21
100
AcDbEntity
100
AcDbBlockEnd
0
BLOCK
5
1C
100
AcDbEntity
100
AcDbBlockBegin
2
*PAPER_SPACE
0
ENDBLK
5
1D
100
AcDbEntity
100
AcDbBlockEnd
0
ENDSEC
0
SECTION
2
ENTITIES
0
LWPOLYLINE
5
100
100
AcDbEntity
8
0
100
AcDbPolyline
90
94
70
1
43
0.0
10
6.3499999999999099
20
-942.44999999999948
42
0.41421356237309503
10
16.349999999999909
20
-952.44999999999948
10
59.207142857142685
20
-952.44999999999948
42
0.41421356237309537
10
76.207142857142742
20
-935.44999999999959
10
76.207142857142642
20
-126.34999999999951
42
-0.41421356237309459
10
99.207142857142685
20
-103.34999999999951
10
132.06428571428575
20
-103.34999999999958
42
-0.41421356237309415
10
155.06428571428572
20
-126.34999999999948
10
155.0642857142858
20
-935.44999999999948
42
0.41421356237309503
10
172.0642857142858
20
-952.44999999999948
10
204.92142857142858
20
-952.44999999999948
42
0.41421356237309503
10
221.92142857142863
20
-935.44999999999948
10
221.92142857142846
20
-126.34999999999951
42
-0.41421356237309503
10
244.92142857142855
20
-103.3499999999995
10
277.7785714285713
20
-103.34999999999958
42
-0.41421356237309415
10
300.77857142857124
20
-126.34999999999948
10
300.77857142857135
20
-935.44999999999948
42
0.41421356237309503
10
317.77857142857135
20
-952.44999999999948
10
350.6357142857143
20
-952.44999999999948
42
0.41421356237309503
10
367.6357142857143
20
-935.44999999999948
10
367.63571428571419
20
-126.3499999999995
42
-0.41421356237309459
10
390.63571428571424
20
-103.34999999999948
10
423.49285714285713
20
-103.34999999999957
42
-0.41421356237309437
10
446.49285714285713
20
-126.34999999999948
10
446.49285714285719
20
-935.44999999999948
42
0.41421356237309503
10
463.49285714285719
20
-952.44999999999948
10
496.34999999999997
20
-952.44999999999948
42
0.41421356237309503
10
513.34999999999991
20
-935.44999999999948
10
513.34999999999991
20
-126.3499999999995
42
-0.41421356237309548
10
536.34999999999991
20
-103.3499999999995
10
569.20714285714291
20
-103.3499999999995
42
-0.41421356237309437
10
592.2071428571428
20
-126.34999999999948
10
592.20714285714291
20
-935.44999999999948
42
0.41421356237309875
10
609.20714285714291
20
-952.44999999999948
10
642.06428571428557
20
-952.44999999999948
42
0.41421356237309997
10
659.06428571428569
20
-935.44999999999948
10
659.06428571428569
20
-126.34999999999948
42
-0.41421356237309365
10
682.06428571428546
20
-103.34999999999945
10
714.92142857142858
20
-103.34999999999951
42
-0.41421356237309503
10
737.92142857142846
20
-126.34999999999948
10
737.92142857142846
20
-935.44999999999948
42
0.41421356237309265
10
754.92142857142858
20
-952.44999999999948
10
787.77857142857124
20
-952.44999999999948
42
0.41421356237309265
10
804.77857142857135
20
-935.44999999999948
10
804.77857142857135
20
-126.34999999999948
42
-0.41421356237309531
10
827.77857142857124
20
-103.34999999999948
10
860.63571428571424
20
-103.34999999999948
42
-0.41421356237309548
10
883.63571428571413
20
-126.34999999999948
10
883.63571428571413
20
-935.44999999999948
42
0.41421356237310236
10
900.63571428571436
20
-952.44999999999948
10
933.49285714285713
20
-952.44999999999948
42
0.41421356237309265
10
950.49285714285713
20
-935.44999999999948
10
950.49285714285713
20
-126.34999999999947
42
-0.41421356237309548
10
973.49285714285713
20
-103.3499999999995
10
1006.3499999999999
20
-103.34999999999945
42
-0.41421356237309576
10
1029.3499999999999
20
-126.34999999999948
10
1029.3499999999999
20
-935.44999999999948
42
0.41421356237309265
10
1046.3499999999999
20
-952.44999999999948
10
1079.2071428571428
20
-952.44999999999948
42
0.41421356237309997
10
1096.2071428571428
20
-935.44999999999948
10
1096.2071428571428
20
-126.34999999999947
42
-0.41421356237309276
10
1119.2071428571426
20
-103.34999999999943
10
1152.0642857142857
20
-103.34999999999953
42
-0.41421356237309481
10
1175.0642857142857
20
-126.34999999999948
10
1175.0642857142857
20
-935.44999999999948
42
0.41421356237309265
10
1192.0642857142857
20
-952.44999999999948
10
1224.9214285714286
20
-952.44999999999948
42
0.41421356237309265
10
1241.9214285714286
20
-935.44999999999948
10
1241.9214285714284
20
-126.34999999999945
42
-0.41421356237309459
10
1264.9214285714286
20
-103.34999999999943
10
1297.7785714285712
20
-103.34999999999965
42
-0.41421356237309503
10
1320.778571428571
20
-126.34999999999948
10
1320.778571428571
20
-935.44999999999948
42
0.41421356237308771
10
1337.7785714285715
20
-952.44999999999948
10
1370.6357142857144
20
-952.44999999999948
42
0.41421356237311957
10
1387.6357142857141
20
-935.44999999999936
10
1387.6357142857141
20
-126.34999999999945
42
-0.41421356237309459
10
1410.6357142857144
20
-103.3499999999995
10
1443.4928571428572
20
-103.34999999999937
42
-0.41421356237309148
10
1466.492857142857
20
-126.34999999999948
10
1466.4928571428572
20
-935.44999999999948
42
0.41421356237311707
10
1483.4928571428572
20
-952.45000000000073
10
1526.3499999999999
20
-952.44999999999948
42
0.41421356237309503
10
1536.3499999999999
20
-942.44999999999948
10
1536.3499999999999
20
-349.58354100859509
42
0.15765837906989222
10
1534.4567922839988
20
-343.72863547015157
10
1493.2432077160013
20
-286.66367222215507
42
-0.15765837906989955
10
1491.3499999999999
20
-280.80876668371138
10
1491.3499999999999
20
-16.349999999999444
42
0.41421356237309509
10
1481.3499999999999
20
-6.3499999999994401
10
79.013560447348127
20
-6.3499999999995254
42
0.33911336445105261
10
69.357474283689442
20
-13.749999999999503
10
6.6939138363412551
20
-246.47489961585561
42
0.065850486040691825
10
6.3499999999999499
20
-249.07489961585554
0
CIRCLE
5
101
100
AcDbEntity
8
0
100
AcDbCircle
10
261.34999999999991
20
-129.34999999999971
30
0
40
2
210
0
220
0
230
1
0
CIRCLE
5
102
100
AcDbEntity
8
0
100
AcDbCircle
10
552.77857142857135
20
-129.34999999999968
30
0
40
2
210
0
220
0
230
1
0
CIRCLE
5
103
100
AcDbEntity
8
0
100
AcDbCircle
10
844.2071428571428
20
-129.34999999999968
30
0
40
2
210
0
220
0
230
1
0
CIRCLE
5
104
100
AcDbEntity
8
0
100
AcDbCircle
10
1135.6357142857141
20
-129.34999999999968
30
0
40
2
210
0
220
0
230
1
0
CIRCLE
5
105
100
AcDbEntity
8
0
100
AcDbCircle
10
1427.0642857142857
20
-129.34999999999962
30
0
40
2
210
0
220
0
230
1
0
CIRCLE
5
106
100
AcDbEntity
8
0
100
AcDbCircle
10
1281.3499999999999
20
-129.34999999999965
30
0
40
2
210
0
220
0
230
1
0
CIRCLE
5
107
100
AcDbEntity
8
0
100
AcDbCircle
10
989.92142857142858
20
-129.34999999999968
30
0
40
2
210
0
220
0
230
1
0
CIRCLE
5
108
100
AcDbEntity
8
0
100
AcDbCircle
10
698.49285714285713
20
-129.34999999999968
30
0
40
2
210
0
220
0
230
1
0
CIRCLE
5
109
100
AcDbEntity
8
0
100
AcDbCircle
10
407.06428571428569
20
-129.34999999999971
30
0
40
2
210
0
220
0
230
1
0
CIRCLE
5
110
100
AcDbEntity
8
0
100
AcDbCircle
10
115.63571428571422
20
-129.34999999999971
30
0
40
2
210
0
220
0
230
1
0
CIRCLE
5
111
100
AcDbEntity
8
0
100
AcDbCircle
10
246.34999999999985
20
-1046.3499999999997
30
0
40
1.5000000000000002
210
0
220
0
230
1
0
CIRCLE
5
112
100
AcDbEntity
8
0
100
AcDbCircle
10
946.34999999999991
20
-1046.3499999999997
30
0
40
1.5000000000000002
210
0
220
0
230
1
0
CIRCLE
5
113
100
AcDbEntity
8
0
100
AcDbCircle
10
1514.8545227278523
20
-1046.3499999999997
30
0
40
1.5000000000000002
210
0
220
0
230
1
0
CIRCLE
5
114
100
AcDbEntity
8
0
100
AcDbCircle
10
1296.3499999999999
20
-1046.3499999999997
30
0
40
1.5000000000000002
210
0
220
0
230
1
0
CIRCLE
5
115
100
AcDbEntity
8
0
100
AcDbCircle
10
596.34999999999991
20
-1046.3499999999997
30
0
40
1.5000000000000002
210
0
220
0
230
1
0
CIRCLE
5
116
100
AcDbEntity
8
0
100
AcDbCircle
10
27.849999999999824
20
-1046.3499999999997
30
0
40
1.5000000000000002
210
0
220
0
230
1
0
LWPOLYLINE
5
117
100
AcDbEntity
8
0
100
AcDbPolyline
90
4
70
1
43
0.0
10
96.349999999999909
20
-1037.2499999999995
10
46.350000000000051
20
-1037.2499999999995
10
46.349999999999923
20
-1046.3499999999997
10
96.349999999999838
20
-1046.3499999999997
0
LWPOLYLINE
5
118
100
AcDbEntity
8
0
100
AcDbPolyline
90
4
70
1
43
0.0
10
446.34999999999991
20
-1037.2499999999995
10
396.34999999999991
20
-1037.2499999999995
10
396.34999999999991
20
-1046.3499999999997
10
446.34999999999991
20
-1046.3499999999997
0
LWPOLYLINE
5
119
100
AcDbEntity
8
0
100
AcDbPolyline
90
4
70
1
43
0.0
10
796.34999999999991
20
-1037.2499999999995
10
746.34999999999991
20
-1037.2499999999995
10
746.34999999999991
20
-1046.3499999999997
10
796.34999999999991
20
-1046.3499999999997
0
LWPOLYLINE
5
120
100
AcDbEntity
8
0
100
AcDbPolyline
90
4
70
1
43
0.0
10
1146.3499999999999
20
-1037.2499999999995
10
1096.3499999999999
20
-1037.2499999999995
10
1096.3499999999999
20
-1046.3499999999997
10
1146.3499999999999
20
-1046.3499999999997
0
LWPOLYLINE
5
121
100
AcDbEntity
8
0
100
AcDbPolyline
90
4
70
1
43
0.0
10
1446.3499999999999
20
-1037.2499999999995
10
1446.3499999999999
20
-1046.3499999999997
10
1496.3499999999999
20
-1046.3499999999997
10
1496.3499999999999
20
-1037.2499999999995
0
LWPOLYLINE
5
122
100
AcDbEntity
8
0
100
AcDbPolyline
90
89
70
1
43
0.0
10
82.207142857142685
20
-935.4499999999997
10
82.207142857142642
20
-126.34999999999977
42
-0.41421356237309503
10
99.207142857142685
20
-109.34999999999972
10
132.06428571428572
20
-109.34999999999974
42
-0.41421356237309476
10
149.06428571428577
20
-126.34999999999971
10
149.06428571428586
20
-935.44999999999959
42
0.41421356237309503
10
172.0642857142858
20
-958.44999999999959
10
204.92142857142858
20
-958.44999999999959
42
0.41421356237309503
10
227.92142857142858
20
-935.44999999999959
10
227.92142857142849
20
-126.34999999999962
42
-0.41421356237309265
10
244.92142857142852
20
-109.34999999999972
10
277.77857142857124
20
-109.34999999999974
42
-0.41421356237309476
10
294.77857142857135
20
-126.34999999999971
10
294.77857142857141
20
-935.44999999999959
42
0.41421356237309503
10
317.77857142857135
20
-958.44999999999959
10
350.6357142857143
20
-958.44999999999959
42
0.41421356237309503
10
373.63571428571424
20
-935.44999999999959
10
373.63571428571419
20
-126.34999999999962
42
-0.41421356237309354
10
390.63571428571424
20
-109.34999999999971
10
423.49285714285713
20
-109.34999999999967
42
-0.41421356237309503
10
440.49285714285713
20
-126.3499999999997
10
440.49285714285725
20
-935.44999999999959
42
0.41421356237309503
10
463.49285714285719
20
-958.44999999999959
10
496.34999999999997
20
-958.44999999999959
42
0.41421356237309503
10
519.34999999999991
20
-935.44999999999959
10
519.34999999999991
20
-126.34999999999962
42
-0.41421356237309659
10
536.34999999999991
20
-109.34999999999971
10
569.2071428571428
20
-109.34999999999971
42
-0.41421356237309442
10
586.2071428571428
20
-126.3499999999997
10
586.2071428571428
20
-935.44999999999959
42
0.41421356237309503
10
609.20714285714291
20
-958.44999999999959
10
642.06428571428557
20
-958.44999999999959
42
0.41421356237309503
10
665.06428571428557
20
-935.44999999999959
10
665.06428571428557
20
-126.34999999999962
42
-0.4142135623730972
10
682.06428571428557
20
-109.34999999999968
10
714.92142857142858
20
-109.34999999999967
42
-0.41421356237309476
10
731.92142857142858
20
-126.34999999999968
10
731.92142857142858
20
-935.44999999999959
42
0.41421356237309503
10
754.92142857142858
20
-958.44999999999959
10
787.77857142857147
20
-958.44999999999959
42
0.4142135623730932
10
810.77857142857124
20
-935.44999999999959
10
810.77857142857124
20
-126.34999999999962
42
-0.41421356237309354
10
827.77857142857124
20
-109.34999999999968
10
860.63571428571424
20
-109.34999999999975
42
-0.41421356237309809
10
877.63571428571424
20
-126.34999999999968
10
877.63571428571424
20
-935.44999999999959
42
0.41421356237309503
10
900.63571428571424
20
-958.44999999999959
10
933.49285714285725
20
-958.44999999999959
42
0.4142135623730932
10
956.49285714285713
20
-935.44999999999959
10
956.49285714285725
20
-126.34999999999962
42
-0.41421356237309748
10
973.49285714285713
20
-109.34999999999967
10
1006.3499999999999
20
-109.34999999999953
42
-0.41421356237309198
10
1023.3499999999999
20
-126.34999999999965
10
1023.3499999999999
20
-935.44999999999959
42
0.41421356237309503
10
1046.3499999999999
20
-958.44999999999959
10
1079.2071428571426
20
-958.44999999999959
42
0.41421356237309687
10
1102.2071428571428
20
-935.44999999999959
10
1102.2071428571428
20
-126.34999999999962
42
-0.41421356237308743
10
1119.2071428571426
20
-109.34999999999967
10
1152.0642857142857
20
-109.34999999999975
42
-0.41421356237309781
10
1169.0642857142857
20
-126.34999999999965
10
1169.0642857142857
20
-935.44999999999959
42
0.41421356237309503
10
1192.0642857142857
20
-958.44999999999959
10
1224.9214285714286
20
-958.44999999999959
42
0.41421356237309503
10
1247.9214285714286
20
-935.44999999999959
10
1247.9214285714286
20
-126.34999999999962
42
-0.41421356237309076
10
1264.9214285714286
20
-109.34999999999965
10
1297.7785714285712
20
-109.34999999999968
42
-0.41421356237308155
10
1314.7785714285715
20
-126.34999999999964
10
1314.7785714285715
20
-935.44999999999959
42
0.41421356237309503
10
1337.7785714285712
20
-958.44999999999959
10
1370.6357142857144
20
-958.44999999999959
42
0.41421356237309503
10
1393.6357142857146
20
-935.44999999999959
10
1393.6357142857141
20
-126.34999999999962
42
-0.41421356237311313
10
1410.6357142857144
20
-109.34999999999965
10
1443.4928571428572
20
-109.34999999999961
42
-0.41421356237308771
10
1460.492857142857
20
-126.34999999999964
10
1460.492857142857
20
-935.44999999999959
42
0.41421356237309503
10
1483.4928571428572
20
-958.44999999999959
10
1526.3499999999999
20
-958.44999999999936
42
-0.4142135623730831
10
1533.3499999999999
20
-965.44999999999959
10
1533.3499999999999
20
-1045.4499999999998
10
1533.4210678118654
20
-1052.5210678118651
42
-0.19891236737965801
10
1526.3499999999999
20
-1055.4499999999996
10
16.349999999999909
20
-1055.4499999999996
42
-0.19631456527344898
10
9.3499999999997634
20
-1052.5914284285423
10
9.3499999999999019
20
-965.44999999999948
42
-0.41421356237310003
10
16.349999999999909
20
-958.44999999999959
10
59.207142857142756
20
-958.44999999999959
42
0.41421356237309237
0
LWPOLYLINE
5
123
100
AcDbEntity
8
0
100
AcDbPolyline
90
6
70
1
43
0.0
10
1544.3499999999999
20
-6.3500000000001222
10
2202.0286437626905
20
-6.3499999999999446
42
-0.19891236737965812
10
2272.7393218813454
20
-35.639321881345197
10
2393.4499999999998
20
-156.34999999999991
10
2393.4499999999998
20
-406.34999999999991
10
1544.3499999999999
20
-406.35000000000002
0
LWPOLYLINE
5
124
100
AcDbEntity
8
0
100
AcDbPolyline
90
6
70
1
43
0.0
10
1544.3499999999999
20
-814.34999999999968
10
2202.0286437626905
20
-814.34999999999991
42
0.19891236737965801
10
2272.7393218813454
20
-785.06067811865478
10
2393.4499999999998
20
-664.35000000000002
10
2393.4499999999998
20
-414.35000000000002
10
1544.3499999999999
20
-414.34999999999991
0
LWPOLYLINE
5
125
100
AcDbEntity
8
0
100
AcDbPolyline
90
25
70
1
43
0.0
10
1612.55
20
-1065.2143481492305
42
0.41421356237309503
10
1612.55
20
-1062.3500000000001
10
1544.3499999999999
20
-1062.3500000000001
10
1544.3499999999999
20
-822.35000000000014
10
2375.25
20
-822.35000000000014
10
2375.25
20
-837.68565185076966
42
0.99999999999999989
10
2378.1143481492304
20
-840.55000000000007
10
2393.4499999999998
20
-840.55000000000007
10
2393.4499999999998
20
-1062.3500000000001
10
2325.25
20
-1062.3500000000001
42
0.41421356237309503
10
2325.25
20
-1065.2143481492305
10
2325.25
20
-1071.45
10
2275.25
20
-1071.45
10
2275.25
20
-1065.2143481492305
42
0.41421356237309503
10
2275.25
20
-1062.3500000000001
10
1984.8
20
-1062.3500000000001
42
0.41421356237309503
10
1984.8
20
-1065.2143481492305
10
1984.8
20
-1071.45
10
1934.8
20
-1071.45
10
1934.8
20
-1065.2143481492305
42
0.41421356237309503
10
1934.8
20
-1062.3500000000001
10
1662.55
20
-1062.3500000000001
42
0.41421356237309503
10
1662.55
20
-1065.2143481492305
10
1662.55
20
-1071.45
10
1612.55
20
-1071.45
0
CIRCLE
5
126
100
AcDbEntity
8
0
100
AcDbCircle
10
1600.25
20
-831.45000000000005
30
0
40
2
210
0
220
0
230
1
0
CIRCLE
5
127
100
AcDbEntity
8
0
100
AcDbCircle
10
2035.25
20
-831.45000000000005
30
0
40
2
210
0
220
0
230
1
0
CIRCLE
5
128
100
AcDbEntity
8
0
100
AcDbCircle
10
2180.25
20
-831.45000000000005
30
0
40
2
210
0
220
0
230
1
0
CIRCLE
5
129
100
AcDbEntity
8
0
100
AcDbCircle
10
2325.25
20
-831.45000000000005
30
0
40
2
210
0
220
0
230
1
0
CIRCLE
5
130
100
AcDbEntity
8
0
100
AcDbCircle
10
1890.25
20
-831.45000000000005
30
0
40
2
210
0
220
0
230
1
0
CIRCLE
5
131
100
AcDbEntity
8
0
100
AcDbCircle
10
1745.25
20
-831.45000000000005
30
0
40
2
210
0
220
0
230
1
0
LWPOLYLINE
5
132
100
AcDbEntity
8
0
100
AcDbPolyline
90
4
70
1
43
0.0
10
1544.3499999999999
20
-1079.4499999999998
10
1544.3499999999999
20
-1129.4499999999998
10
2393.4499999999998
20
-1129.4499999999998
10
2393.4499999999998
20
-1079.4499999999998
0
LWPOLYLINE
5
133
100
AcDbEntity
8
0
100
AcDbPolyline
90
12
70
1
43
0.0
10
2291.1500000000001
20
-1155.3143481492307
10
2291.1500000000001
20
-1152.45
42
-0.41421356237309503
10
2294.0143481492305
20
-1152.45
10
2309.3500000000004
20
-1152.45
10
2309.3499999999999
20
-1137.45
10
1544.3499999999999
20
-1137.45
10
1544.3499999999999
20
-1187.45
10
2309.3499999999999
20
-1187.45
10
2309.3500000000004
20
-1172.45
10
2294.0143481492305
20
-1172.45
42
-0.41421356237309503
10
2291.1500000000001
20
-1172.45
10
2291.1500000000001
20
-1169.5856518507694
0
LWPOLYLINE
5
134
100
AcDbEntity
8
0
100
AcDbPolyline
90
46
70
1
43
0.0
10
796.2143481492302
20
-1161.6500000000001
10
793.3499999999998
20
-1161.6500000000001
42
-0.41421356237310952
10
793.34999999999991
20
-1158.7856518507697
10
793.34999999999991
20
-1143.4500000000003
10
743.35000000000014
20
-1143.4500000000003
10
743.35000000000014
20
-1158.7856518507697
42
-0.41421356237310952
10
743.35000000000014
20
-1161.6500000000001
10
740.48565185076973
20
-1161.6500000000001
10
446.21434814923049
20
-1161.6500000000001
10
443.35000000000008
20
-1161.6500000000001
42
-0.41421356237310231
10
443.35000000000002
20
-1158.7856518507697
10
443.35000000000002
20
-1143.4500000000003
10
393.35000000000002
20
-1143.4500000000003
10
393.35000000000002
20
-1158.7856518507697
42
-0.41421356237308782
10
393.35000000000008
20
-1161.6500000000001
10
390.48565185076967
20
-1161.6500000000001
10
96.214348149230347
20
-1161.6500000000001
10
93.349999999999923
20
-1161.6500000000001
42
-0.41421356237309148
10
93.349999999999909
20
-1158.7856518507697
10
93.349999999999937
20
-1143.4500000000003
10
43.35000000000008
20
-1143.4500000000003
10
43.350000000000115
20
-1158.7856518507697
42
-0.41421356237308693
10
43.350000000000136
20
-1161.6500000000001
10
40.485651850769671
20
-1161.6500000000001
10
6.3499999999997669
20
-1161.6500000000001
10
6.3499999999997687
20
-1191.6500000000001
42
0.41421356237309503
10
26.349999999999767
20
-1211.6500000000001
10
1510.3499999999999
20
-1211.6500000000001
42
0.41421356237309503
10
1530.3499999999999
20
-1191.6500000000001
10
1530.3499999999999
20
-1161.6500000000001
10
1496.2143481492303
20
-1161.6500000000001
10
1493.3499999999999
20
-1161.6500000000001
42
-0.41421356237315315
10
1493.3500000000001
20
-1158.7856518507695
10
1493.3499999999999
20
-1143.4500000000003
10
1443.3500000000001
20
-1143.4500000000003
10
1443.3500000000001
20
-1158.7856518507697
42
-0.41421356237309503
10
1443.3500000000001
20
-1161.6500000000001
10
1440.4856518507697
20
-1161.6500000000001
10
1146.2143481492305
20
-1161.6500000000001
10
1143.3500000000001
20
-1161.6500000000001
42
-0.41421356237309503
10
1143.3500000000001
20
-1158.7856518507697
10
1143.3500000000001
20
-1143.4500000000003
10
1093.3500000000001
20
-1143.4500000000003
10
1093.3500000000001
20
-1158.7856518507697
42
-0.41421356237310952
10
1093.3500000000001
20
-1161.6500000000001
10
1090.4856518507697
20
-1161.6500000000001
0
LWPOLYLINE
5
135
100
AcDbEntity
8
0
100
AcDbPolyline
90
8
70
1
43
0.0
10
1446.3499999999997
20
-1714.3856518507698
42
0.99999999999999989
10
1449.2143481492301
20
-1717.2500000000002
10
1493.4856518507693
20
-1717.2500000000002
42
0.99999999999999989
10
1496.3499999999997
20
-1714.3856518507698
10
1496.3499999999997
20
-1711.0143481492305
42
0.99999999999999989
10
1493.4856518507693
20
-1708.1500000000001
10
1449.2143481492301
20
-1708.1500000000001
42
0.99999999999999989
10
1446.3499999999997
20
-1711.0143481492305
0
LWPOLYLINE
5
136
100
AcDbEntity
8
0
100
AcDbPolyline
90
8
70
1
43
0.0
10
746.34999999999945
20
-1714.3856518507698
42
0.99999999999999989
10
749.21434814922986
20
-1717.2500000000002
10
793.48565185076905
20
-1717.2500000000002
42
0.99999999999999989
10
796.34999999999945
20
-1714.3856518507698
10
796.34999999999945
20
-1711.0143481492305
42
0.99999999999999989
10
793.48565185076905
20
-1708.1500000000001
10
749.21434814922986
20
-1708.1500000000001
42
0.99999999999999989
10
746.34999999999945
20
-1711.0143481492305
0
LWPOLYLINE
5
137
100
AcDbEntity
8
0
100
AcDbPolyline
90
8
70
1
43
0.0
10
443.48565185076899
20
-1717.2500000000002
42
0.99999999999999989
10
446.34999999999957
20
-1714.3856518507698
10
446.34999999999957
20
-1711.0143481492305
42
0.99999999999999989
10
443.48565185076899
20
-1708.1500000000001
10
399.21434814922998
20
-1708.1500000000001
42
0.99999999999999989
10
396.34999999999945
20
-1711.0143481492305
10
396.34999999999945
20
-1714.3856518507698
42
0.99999999999999989
10
399.21434814922998
20
-1717.2500000000002
0
LWPOLYLINE
5
138
100
AcDbEntity
8
0
100
AcDbPolyline
90
8
70
1
43
0.0
10
1096.3499999999995
20
-1714.3856518507698
42
0.99999999999999989
10
1099.2143481492299
20
-1717.2500000000002
10
1143.485651850769
20
-1717.2500000000002
42
0.99999999999999989
10
1146.3499999999995
20
-1714.3856518507698
10
1146.3499999999995
20
-1711.0143481492305
42
0.99999999999999989
10
1143.485651850769
20
-1708.1500000000001
10
1099.2143481492299
20
-1708.1500000000001
42
0.99999999999999989
10
1096.3499999999995
20
-1711.0143481492305
0
LWPOLYLINE
5
139
100
AcDbEntity
8
0
100
AcDbPolyline
90
8
70
1
43
0.0
10
46.349999999999476
20
-1714.3856518507698
42
0.99999999999999989
10
49.214348149229934
20
-1717.2500000000002
10
93.485651850769017
20
-1717.2500000000002
42
0.99999999999999989
10
96.349999999999568
20
-1714.3856518507698
10
96.349999999999568
20
-1711.0143481492305
42
0.99999999999999989
10
93.485651850769017
20
-1708.1500000000001
10
49.214348149229934
20
-1708.1500000000001
42
0.99999999999999989
10
46.349999999999476
20
-1711.0143481492305
0
CIRCLE
5
140
100
AcDbEntity
8
0
100
AcDbCircle
10
1516.3499999999999
20
-1717.2500000000002
30
0
40
2
210
0
220
0
230
1
0
CIRCLE
5
141
100
AcDbEntity
8
0
100
AcDbCircle
10
946.34999999999968
20
-1717.2500000000002
30
0
40
2
210
0
220
0
230
1
0
CIRCLE
5
142
100
AcDbEntity
8
0
100
AcDbCircle
10
246.34999999999962
20
-1717.2500000000002
30
0
40
2
210
0
220
0
230
1
0
CIRCLE
5
143
100
AcDbEntity
8
0
100
AcDbCircle
10
26.349999999999767
20
-1717.2500000000002
30
0
40
2
210
0
220
0
230
1
0
CIRCLE
5
144
100
AcDbEntity
8
0
100
AcDbCircle
10
596.34999999999968
20
-1717.2500000000002
30
0
40
2
210
0
220
0
230
1
0
CIRCLE
5
145
100
AcDbEntity
8
0
100
AcDbCircle
10
1296.3499999999997
20
-1717.2500000000002
30
0
40
2
210
0
220
0
230
1
0
LWPOLYLINE
5
146
100
AcDbEntity
8
0
100
AcDbPolyline
90
5
70
1
43
0.0
10
11.349999999999911
20
-1326.3499999999999
42
0.41421356237309515
10
6.3499999999999091
20
-1331.3499999999999
10
6.3499999999999091
20
-1726.3499999999999
10
1536.3499999999999
20
-1726.3499999999999
10
1536.3499999999999
20
-1326.3499999999999
0
LWPOLYLINE
5
147
100
AcDbEntity
8
0
100
AcDbPolyline
90
20
70
1
43
0.0
10
1544.3499999999997
20
-1731.9500000000003
42
0.41421356237309503
10
1545.8499999999999
20
-1733.4500000000003
10
1550.5856518507694
20
-1733.45
42
-0.99999999999999989
10
1553.4499999999998
20
-1736.3143481492305
10
1553.4499999999998
20
-1783.45
10
2291.1500000000001
20
-1783.45
10
2291.1500000000005
20
-1736.3143481492305
42
-0.99999999999999989
10
2294.0143481492305
20
-1733.45
10
2307.8499999999999
20
-1733.4500000000003
42
0.41421356237309503
10
2309.3499999999999
20
-1731.9500000000003
10
2309.3499999999999
20
-1634.9499999999998
42
0.41421356237309503
10
2307.8499999999999
20
-1633.45
10
2294.014348149231
20
-1633.45
42
-0.99999999999999989
10
2291.1500000000001
20
-1630.5856518507696
10
2291.1500000000001
20
-1583.45
10
1553.4499999999998
20
-1583.45
10
1553.4499999999998
20
-1630.5856518507696
42
-0.99999999999999989
10
1550.5856518507694
20
-1633.45
10
1545.8499999999999
20
-1633.4499999999998
42
0.41421356237309503
10
1544.3499999999999
20
-1634.9499999999998
0
CIRCLE
5
148
100
AcDbEntity
8
0
100
AcDbCircle
10
2241.1500000000001
20
-1774.3499999999997
30
0
40
2
210
0
220
0
230
1
0
CIRCLE
5
149
100
AcDbEntity
8
0
100
AcDbCircle
10
1922.2999999999993
20
-1592.5500000000002
30
0
40
2
210
0
220
0
230
1
0
CIRCLE
5
150
100
AcDbEntity
8
0
100
AcDbCircle
10
1603.4499999999998
20
-1592.5500000000002
30
0
40
2
210
0
220
0
230
1
0
CIRCLE
5
151
100
AcDbEntity
8
0
100
AcDbCircle
10
1603.4499999999998
20
-1774.3499999999997
30
0
40
2
210
0
220
0
230
1
0
CIRCLE
5
152
100
AcDbEntity
8
0
100
AcDbCircle
10
1922.3
20
-1774.3499999999997
30
0
40
2
210
0
220
0
230
1
0
CIRCLE
5
153
100
AcDbEntity
8
0
100
AcDbCircle
10
2241.1500000000001
20
-1592.5500000000002
30
0
40
2
210
0
220
0
230
1
0
LWPOLYLINE
5
154
100
AcDbEntity
8
0
100
AcDbPolyline
90
56
70
1
43
0.0
10
47.849999999999682
20
-1734.3500000000004
42
0.41421356237309503
10
46.349999999999682
20
-1735.8500000000001
10
46.349999999999653
20
-1749.6856518507695
42
-0.41421356237308959
10
46.349999999999682
20
-1752.55
10
43.485651850769216
20
-1752.55
10
6.3499999999999091
20
-1752.55
10
6.3499999999999099
20
-1803.6032328544316
42
0.41421356237309503
10
16.349999999999909
20
-1813.6032328544316
10
1526.3499999999999
20
-1813.6032328544316
42
0.41421356237309503
10
1536.3499999999999
20
-1803.6032328544316
10
1536.3499999999999
20
-1752.55
10
1499.2143481492301
20
-1752.55
10
1496.3499999999997
20
-1752.55
42
-0.41421356237309503
10
1496.3499999999997
20
-1749.6856518507695
10
1496.3499999999995
20
-1735.8500000000001
42
0.41421356237309503
10
1494.8499999999995
20
-1734.3499999999999
10
1447.8499999999997
20
-1734.3500000000004
42
0.41421356237309503
10
1446.3499999999997
20
-1735.8500000000001
10
1446.3499999999997
20
-1749.6856518507695
42
-0.41421356237309503
10
1446.3499999999997
20
-1752.55
10
1443.4856518507693
20
-1752.55
10
1149.2143481492301
20
-1752.55
10
1146.3499999999997
20
-1752.55
42
-0.41421356237309503
10
1146.3499999999997
20
-1749.6856518507695
10
1146.3499999999997
20
-1735.8500000000001
42
0.41421356237309503
10
1144.8499999999995
20
-1734.3499999999999
10
1097.8499999999995
20
-1734.3500000000004
42
0.41421356237309503
10
1096.3499999999997
20
-1735.8500000000001
10
1096.3499999999997
20
-1749.6856518507695
42
-0.41421356237309503
10
1096.3499999999997
20
-1752.55
10
1093.4856518507693
20
-1752.55
10
799.21434814923009
20
-1752.55
10
796.34999999999968
20
-1752.55
42
-0.41421356237309503
10
796.34999999999968
20
-1749.6856518507695
10
796.34999999999968
20
-1735.8500000000001
42
0.41421356237309503
10
794.84999999999957
20
-1734.3499999999999
10
747.84999999999957
20
-1734.3500000000004
42
0.41421356237309503
10
746.34999999999968
20
-1735.8500000000001
10
746.34999999999968
20
-1749.6856518507695
42
-0.41421356237309503
10
746.34999999999968
20
-1752.55
10
743.48565185076927
20
-1752.55
10
449.21434814923003
20
-1752.55
10
446.34999999999957
20
-1752.55
42
-0.41421356237308782
10
446.34999999999957
20
-1749.6856518507695
10
446.34999999999957
20
-1735.8500000000001
42
0.41421356237309503
10
444.84999999999957
20
-1734.3499999999999
10
397.84999999999957
20
-1734.3500000000004
42
0.41421356237309503
10
396.34999999999957
20
-1735.8500000000001
10
396.34999999999957
20
-1749.6856518507695
42
-0.41421356237308782
10
396.34999999999962
20
-1752.55
10
393.48565185076905
20
-1752.55
10
99.214348149230034
20
-1752.55
10
96.349999999999611
20
-1752.55
42
-0.41421356237308959
10
96.349999999999625
20
-1749.6856518507695
10
96.349999999999568
20
-1735.8500000000001
42
0.41421356237309503
10
94.849999999999568
20
-1734.3499999999999
0
LWPOLYLINE
5
155
100
AcDbEntity
8
0
100
AcDbPolyline
90
16
70
1
43
0.0
10
2312.3500000000004
20
-1792.9499999999998
42
0.41421356237309503
10
2310.8500000000004
20
-1791.4499999999998
10
1547.3500000000001
20
-1791.4499999999998
10
1547.3500000000001
20
-1841.4499999999998
10
2310.8500000000004
20
-1841.4499999999998
42
0.41421356237309503
10
2312.3500000000004
20
-1839.9499999999998
10
2312.3500000000004
20
-1827.9499999999998
42
0.41421356237309503
10
2310.8500000000004
20
-1826.45
10
2297.0143481492305
20
-1826.4499999999998
42
-0.41421356237309503
10
2294.1500000000001
20
-1826.4499999999998
10
2294.1500000000001
20
-1823.5856518507694
10
2294.1500000000001
20
-1809.3143481492302
10
2294.1500000000001
20
-1806.4499999999998
42
-0.41421356237309503
10
2297.0143481492305
20
-1806.4499999999998
10
2310.8500000000004
20
-1806.4499999999996
42
0.41421356237309503
10
2312.3500000000004
20
-1804.9499999999998
0
LWPOLYLINE
5
156
100
AcDbEntity
8
0
100
AcDbPolyline
90
24
70
1
43
0.0
10
1547.3500000000004
20
-1922.9500000000003
42
0.41421356237303958
10
1548.8499999999999
20
-1924.4500000000003
10
1562.6856518507693
20
-1924.4500000000005
42
-0.41421356237318224
10
1565.5500000000002
20
-1924.4500000000003
10
1565.5500000000002
20
-1927.3143481492302
10
1565.5500000000002
20
-1949.4499999999998
10
2195.5500000000002
20
-1949.4499999999998
10
2195.5500000000002
20
-1927.3143481492302
10
2195.5500000000002
20
-1924.4500000000003
42
-0.41421356237312412
10
2198.4143481492306
20
-1924.4500000000003
10
2212.25
20
-1924.4499999999998
42
0.41421356237309503
10
2213.75
20
-1922.9500000000003
10
2213.75
20
-1875.9500000000003
42
0.41421356237309503
10
2212.25
20
-1874.4500000000005
10
2198.4143481492306
20
-1874.4499999999998
42
-0.41421356237306595
10
2195.5500000000002
20
-1874.4500000000003
10
2195.5500000000002
20
-1871.5856518507694
10
2195.5500000000002
20
-1849.4499999999998
10
1565.5500000000002
20
-1849.4499999999998
10
1565.5500000000002
20
-1871.5856518507694
10
1565.5500000000002
20
-1874.4500000000003
42
-0.41421356237303697
10
1562.6856518507698
20
-1874.4500000000003
10
1548.8499999999999
20
-1874.4500000000003
42
0.41421356237303958
10
1547.3500000000001
20
-1875.9500000000003
0
LWPOLYLINE
5
157
100
AcDbEntity
8
0
100
AcDbPolyline
90
24
70
1
43
0.0
10
1547.3500000000004
20
-2030.9500000000003
42
0.41421356237303958
10
1548.8499999999999
20
-2032.4500000000003
10
1562.6856518507693
20
-2032.4500000000007
42
-0.41421356237318224
10
1565.5500000000002
20
-2032.4500000000003
10
1565.5500000000002
20
-2035.3143481492305
10
1565.5500000000002
20
-2057.4499999999998
10
2195.5500000000002
20
-2057.4499999999998
10
2195.5500000000002
20
-2035.3143481492305
10
2195.5500000000002
20
-2032.4500000000003
42
-0.41421356237312412
10
2198.4143481492306
20
-2032.4500000000003
10
2212.25
20
-2032.45
42
0.41421356237309503
10
2213.75
20
-2030.9500000000003
10
2213.75
20
-1983.9500000000003
42
0.41421356237309503
10
2212.25
20
-1982.4500000000007
10
2198.4143481492306
20
-1982.45
42
-0.41421356237306595
10
2195.5500000000002
20
-1982.4500000000003
10
2195.5500000000002
20
-1979.5856518507696
10
2195.5500000000002
20
-1957.45
10
1565.5500000000002
20
-1957.45
10
1565.5500000000002
20
-1979.5856518507696
10
1565.5500000000002
20
-1982.4500000000003
42
-0.41421356237303697
10
1562.6856518507698
20
-1982.4500000000003
10
1548.8499999999999
20
-1982.4500000000003
42
0.41421356237303958
10
1547.3500000000001
20
-1983.9500000000003
0
LWPOLYLINE
5
158
100
AcDbEntity
8
0
100
AcDbPolyline
90
20
70
1
43
0.0
10
18.73189987384626
20
-1957.4848998738471
42
0.41421356237309503
10
20.23189987384626
20
-1958.9848998738469
10
24.764551724615664
20
-1958.9848998738471
42
-0.41421356237304419
10
27.628899873845896
20
-1958.9848998738469
10
27.628899873845967
20
-1961.849248023078
10
27.628899873846109
20
-1983.9848998738471
10
765.53189987384621
20
-1983.9848998738471
10
765.53189987384644
20
-1968.6492480230777
42
-0.99999999999999989
10
768.39624802307651
20
-1965.7848998738473
10
780.86755172461585
20
-1965.7848998738473
42
-0.99999999999999989
10
783.73189987384626
20
-1968.6492480230777
10
783.73189987384626
20
-1983.9848998738471
10
1539.6318998738461
20
-1983.9848998738471
10
1539.6318998738461
20
-1833.9848998738471
10
27.628899873845967
20
-1833.9848998738471
10
27.628899873845967
20
-1856.1205517246165
10
27.62889987384586
20
-1858.9848998738476
42
-0.41421356237304374
10
24.7645517246157
20
-1858.9848998738471
10
20.23189987384626
20
-1858.9848998738471
42
0.41421356237309503
10
18.731899873846203
20
-1860.4848998738473
0
CIRCLE
5
159
100
AcDbEntity
8
0
100
AcDbCircle
10
1530.5318998738462
20
-1858.9848998738471
30
0
40
2
210
0
220
0
230
1
0
CIRCLE
5
160
100
AcDbEntity
8
0
100
AcDbCircle
10
774.63189987384624
20
-1940.7848998738473
30
0
40
2
210
0
220
0
230
1
0
CIRCLE
5
161
100
AcDbEntity
8
0
100
AcDbCircle
10
774.63189987384624
20
-1858.9848998738471
30
0
40
2
210
0
220
0
230
1
0
CIRCLE
5
162
100
AcDbEntity
8
0
100
AcDbCircle
10
1530.5318998738462
20
-1940.7848998738473
30
0
40
2
210
0
220
0
230
1
0
LWPOLYLINE
5
163
100
AcDbEntity
8
0
100
AcDbPolyline
90
26
70
1
43
0.0
10
12.253372695494193
20
-2122.7809089849816
42
0.41421356237309503
10
13.753372695494193
20
-2124.2809089849816
10
18.489024546263664
20
-2124.2809089849816
42
-0.41421356237310047
10
21.353372695494155
20
-2124.2809089849816
10
21.353372695494102
20
-2127.145257134212
10
21.353372695494102
20
-2149.2809089849816
10
759.0533726954942
20
-2149.2809089849816
10
759.0533726954942
20
-2133.9452571342117
42
-0.99999999999999989
10
761.91772084472461
20
-2131.0809089849813
10
774.38902454626373
20
-2131.0809089849813
42
-0.99999999999999989
10
777.25337269549414
20
-2133.9452571342117
10
777.25337269549414
20
-2149.2809089849816
10
1533.1533726954942
20
-2149.2809089849816
10
1533.1533726954942
20
-1999.2809089849814
10
777.25337269549414
20
-1999.2809089849814
10
777.25337269549414
20
-2005.5165608357511
42
-0.99999999999999989
10
774.38902454626373
20
-2008.3809089849815
10
761.91772084472461
20
-2008.3809089849815
42
-0.99999999999999989
10
759.0533726954942
20
-2005.5165608357511
10
759.0533726954942
20
-1999.2809089849814
10
21.353372695494102
20
-1999.2809089849811
10
21.353372695494102
20
-2021.4165608357507
10
21.35337269549413
20
-2024.2809089849814
42
-0.41421356237310003
10
18.489024546263693
20
-2024.2809089849814
10
13.753372695494193
20
-2024.2809089849814
42
0.41421356237309503
10
12.253372695494136
20
-2025.7809089849816
0
CIRCLE
5
164
100
AcDbEntity
8
0
100
AcDbCircle
10
768.15337269549423
20
-2033.3809089849815
30
0
40
2
210
0
220
0
230
1
0
CIRCLE
5
165
100
AcDbEntity
8
0
100
AcDbCircle
10
1524.0533726954941
20
-2033.3809089849815
30
0
40
2
210
0
220
0
230
1
0
CIRCLE
5
166
100
AcDbEntity
8
0
100
AcDbCircle
10
1524.0533726954941
20
-2106.0809089849813
30
0
40
2
210
0
220
0
230
1
0
CIRCLE
5
167
100
AcDbEntity
8
0
100
AcDbCircle
10
768.15337269549423
20
-2106.0809089849813
30
0
40
2
210
0
220
0
230
1
0
LWPOLYLINE
5
168
100
AcDbEntity
8
0
100
AcDbPolyline
90
56
70
1
43
0.0
10
1493.153372695494
20
-2158.7809089849816
42
0.41421356237309503
10
1491.653372695494
20
-2157.2809089849816
10
1444.6533726954942
20
-2157.2809089849816
42
0.41421356237309503
10
1443.1533726954945
20
-2158.7809089849816
10
1443.1533726954942
20
-2163.5165608357511
42
-0.41421356237309503
10
1443.1533726954942
20
-2166.3809089849815
10
1440.2890245462638
20
-2166.3809089849815
10
1146.0177208447246
20
-2166.3809089849815
10
1143.1533726954942
20
-2166.3809089849815
42
-0.41421356237309503
10
1143.1533726954942
20
-2163.5165608357511
10
1143.153372695494
20
-2158.7809089849816
42
0.41421356237309503
10
1141.653372695494
20
-2157.2809089849816
10
1094.6533726954942
20
-2157.2809089849816
42
0.41421356237309503
10
1093.1533726954942
20
-2158.7809089849816
10
1093.1533726954942
20
-2163.5165608357511
42
-0.41421356237309503
10
1093.1533726954942
20
-2166.3809089849815
10
1090.2890245462638
20
-2166.3809089849815
10
796.01772084472464
20
-2166.3809089849815
10
793.15337269549423
20
-2166.3809089849815
42
-0.41421356237309503
10
793.15337269549423
20
-2163.5165608357511
10
793.15337269549423
20
-2158.7809089849816
42
0.41421356237309503
10
791.65337269549411
20
-2157.2809089849816
10
744.65337269549423
20
-2157.2809089849816
42
0.41421356237309503
10
743.15337269549423
20
-2158.7809089849816
10
743.15337269549423
20
-2163.5165608357511
42
-0.41421356237309503
10
743.15337269549423
20
-2166.3809089849815
10
740.28902454626382
20
-2166.3809089849815
10
446.01772084472458
20
-2166.3809089849815
10
443.15337269549417
20
-2166.3809089849815
42
-0.41421356237309503
10
443.15337269549417
20
-2163.5165608357511
10
443.15337269549417
20
-2158.7809089849816
42
0.41421356237310897
10
441.65337269549411
20
-2157.2809089849816
10
394.65337269549423
20
-2157.2809089849816
42
0.41421356237310897
10
393.15337269549417
20
-2158.7809089849816
10
393.15337269549417
20
-2163.5165608357511
42
-0.41421356237308782
10
393.15337269549423
20
-2166.3809089849815
10
390.28902454626376
20
-2166.3809089849815
10
96.017720844724579
20
-2166.3809089849815
10
93.153372695494156
20
-2166.3809089849815
42
-0.41421356237309148
10
93.153372695494141
20
-2163.5165608357511
10
93.153372695494113
20
-2158.7809089849816
42
0.41421356237309503
10
91.653372695494113
20
-2157.2809089849816
10
44.653372695494227
20
-2157.2809089849816
42
0.41421356237309503
10
43.153372695494227
20
-2158.7809089849816
10
43.153372695494205
20
-2163.5165608357511
42
-0.41421356237308693
10
43.153372695494227
20
-2166.3809089849815
10
40.289024546263761
20
-2166.3809089849815
10
13.753372695494193
20
-2166.3809089849819
42
0.41421356237309503
10
12.253372695494136
20
-2167.8809089849815
10
12.253372695494193
20
-2214.8809089849815
42
0.41421356237309503
10
13.753372695494193
20
-2216.380908984981
10
1533.1533726954942
20
-2216.3809089849815
10
1533.1533726954942
20
-2166.3809089849815
10
1496.0177208447246
20
-2166.3809089849815
10
1493.1533726954942
20
-2166.3809089849815
42
-0.41421356237309503
10
1493.1533726954942
20
-2163.5165608357511
0
CIRCLE
5
169
100
AcDbEntity
8
0
100
AcDbCircle
10
1298.1533726954942
20
-2191.3809089849815
30
0
40
5
210
0
220
0
230
1
0
CIRCLE
5
170
100
AcDbEntity
8
0
100
AcDbCircle
10
1468.1533726954942
20
-2191.3809089849815
30
0
40
5
210
0
220
0
230
1
0
LWPOLYLINE
5
171
100
AcDbEntity
8
0
100
AcDbPolyline
90
12
70
1
43
0.0
10
39.179395888879441
20
-2239.7165608357509
42
0.99999999999999989
10
42.043744038109907
20
-2242.5809089849818
10
421.31504773964906
20
-2242.5809089849818
42
0.99999999999999989
10
424.17939588887947
20
-2239.7165608357509
10
424.17939588887947
20
-2224.3809089849815
10
1054.1793958888795
20
-2224.3809089849815
10
1054.1793958888795
20
-2239.7165608357509
42
0.99999999999999989
10
1057.0437440381099
20
-2242.5809089849818
10
1439.1793958888795
20
-2242.5809089849818
10
1439.1793958888795
20
-2324.3809089849815
10
12.253372695494136
20
-2324.3809089849815
10
39.179395888879469
20
-2224.3809089849815
0
CIRCLE
5
172
100
AcDbEntity
8
0
100
AcDbCircle
10
415.0793958888795
20
-2304.3809089849815
30
0
40
2
210
0
220
0
230
1
0
CIRCLE
5
173
100
AcDbEntity
8
0
100
AcDbCircle
10
1063.2793958888794
20
-2303.584045346583
30
0
40
2
210
0
220
0
230
1
0
CIRCLE
5
174
100
AcDbEntity
8
0
100
AcDbCircle
10
1063.2793958888794
20
-2262.5809089849818
30
0
40
2
210
0
220
0
230
1
0
CIRCLE
5
175
100
AcDbEntity
8
0
100
AcDbCircle
10
415.0793958888795
20
-2262.5809089849818
30
0
40
2
210
0
220
0
230
1
0
LWPOLYLINE
5
176
100
AcDbEntity
8
0
100
AcDbPolyline
90
28
70
1
43
0.0
10
17.31166683546212
20
-2385.0119511608436
42
0.41421356237309503
10
18.81166683546212
20
-2386.5119511608432
10
1064.911666835462
20
-2386.5119511608436
42
0.41421356237309503
10
1066.4116668354623
20
-2385.0119511608436
10
1066.4116668354623
20
-2369.8119511608434
42
0.41421356237309503
10
1064.9116668354623
20
-2368.3119511608438
10
1051.0760149846803
20
-2368.3119511608438
42
-0.41421356236917156
10
1048.2116668354688
20
-2368.3119511608365
10
1048.2116668354622
20
-2365.4476030116007
10
1048.2116668354622
20
-2357.5762993100611
10
1048.2116668354622
20
-2354.7119511608316
42
-0.41421356237575424
10
1051.0760149847056
20
-2354.7119511608435
10
1064.9116668354623
20
-2354.7119511608435
42
0.41421356237309503
10
1066.4116668354623
20
-2353.2119511608435
10
1066.4116668354623
20
-2338.0119511608436
42
0.41421356237306733
10
1064.9116668354623
20
-2336.5119511608436
10
18.81166683546212
20
-2336.5119511608436
42
0.41421356237309503
10
17.311666835462347
20
-2338.0119511608436
10
17.31166683546212
20
-2353.2119511608435
42
0.41421356237309503
10
18.81166683546212
20
-2354.7119511608435
10
32.647318686219627
20
-2354.7119511608435
42
-0.41421356237559848
10
35.511666835462336
20
-2354.7119511608307
10
35.511666835462279
20
-2357.5762993100616
10
35.511666835462279
20
-2365.4476030115998
10
35.511666835456154
20
-2368.3119511608375
42
-0.41421356236910983
10
32.647318686245029
20
-2368.3119511608438
10
18.81166683546212
20
-2368.3119511608438
42
0.41421356237309503
10
17.311666835462351
20
-2369.8119511608438
0
LWPOLYLINE
5
177
100
AcDbEntity
8
0
100
AcDbPolyline
90
6
70
1
43
0.0
10
1384.6357142857141
20
-2412.7030000000004
42
0.41421356237310486
10
1367.6357142857141
20
-2395.7030000000004
10
23.349999999999937
20
-2395.7030000000009
42
0.41421356237308077
10
6.3500000000000245
20
-2412.7030000000004
10
6.3499999999999091
20
-2435.7030000000004
10
1384.6357142857141
20
-2435.7030000000004
0
LWPOLYLINE
5
178
100
AcDbEntity
8
0
100
AcDbPolyline
90
28
70
1
43
0.0
10
6.3499999999999801
20
-2492.203
42
0.41421356237309481
10
7.8499999999999792
20
-2493.703
10
1053.9499999999998
20
-2493.703
42
0.41421356237309503
10
1055.4499999999998
20
-2492.203
10
1055.4499999999998
20
-2477.0030000000002
42
0.41421356237309503
10
1053.9499999999998
20
-2475.5030000000002
10
1040.1143481492304
20
-2475.5030000000002
42
-0.41421356237309503
10
1037.25
20
-2475.5030000000002
10
1037.25
20
-2472.6386518507697
10
1037.25
20
-2464.7673481492307
10
1037.25
20
-2461.9030000000002
42
-0.41421356237309503
10
1040.1143481492304
20
-2461.9030000000002
10
1053.9499999999998
20
-2461.9029999999998
42
0.41421356237309503
10
1055.4499999999998
20
-2460.4030000000002
10
1055.4499999999998
20
-2445.2030000000004
42
0.41421356237309503
10
1053.9499999999998
20
-2443.703
10
7.8499999999999792
20
-2443.703
42
0.41421356237309481
10
6.3499999999999801
20
-2445.2030000000004
10
6.3499999999999801
20
-2460.4030000000002
42
0.41421356237309481
10
7.8499999999999792
20
-2461.9030000000002
10
21.68565185076924
20
-2461.9030000000002
42
-0.41421356237315726
10
24.550000000000011
20
-2461.9030000000002
10
24.549999999999983
20
-2464.7673481492307
10
24.549999999999983
20
-2472.6386518507697
10
24.549999999999944
20
-2475.5030000000002
42
-0.41421356237314999
10
21.685651850769347
20
-2475.5029999999997
10
7.8499999999999792
20
-2475.5029999999997
42
0.41421356237309481
10
6.3499999999999801
20
-2477.0030000000002
0
LWPOLYLINE
5
179
100
AcDbEntity
8
0
100
AcDbPolyline
90
24
70
1
43
0.0
10
1103.4499999999998
20
-2501.3030000000003
42
0.41421356237309503
10
1104.9499999999998
20
-2502.8030000000003
10
1151.9499999999996
20
-2502.8030000000003
42
0.41421356237309503
10
1153.4499999999996
20
-2501.3030000000003
10
1153.4499999999998
20
-2496.5673481492308
42
-0.41421356237309503
10
1153.4499999999998
20
-2493.7030000000004
10
1156.3143481492302
20
-2493.7030000000004
10
1270.5856518507694
20
-2493.7030000000004
10
1273.4499999999998
20
-2493.7030000000004
42
-0.41421356237309503
10
1273.4499999999998
20
-2496.5673481492308
10
1273.4499999999998
20
-2501.3030000000003
42
0.41421356237309503
10
1274.9499999999998
20
-2502.8029999999999
10
1321.9499999999996
20
-2502.8029999999999
42
0.41421356237309503
10
1323.4499999999994
20
-2501.3030000000003
10
1323.4499999999998
20
-2496.5673481492308
42
-0.41421356237309503
10
1323.4499999999998
20
-2493.7030000000004
10
1326.3143481492302
20
-2493.7030000000004
10
1363.4499999999998
20
-2493.7030000000004
10
1363.4499999999998
20
-2443.7030000000004
10
1063.4499999999998
20
-2443.7030000000004
10
1063.4499999999998
20
-2493.7030000000004
10
1100.5856518507694
20
-2493.7030000000004
10
1103.4499999999998
20
-2493.7030000000004
42
-0.41421356237309503
10
1103.4499999999998
20
-2496.5673481492308
0
CIRCLE
5
180
100
AcDbEntity
8
0
100
AcDbCircle
10
1128.4499999999998
20
-2468.7030000000004
30
0
40
5
210
0
220
0
230
1
0
CIRCLE
5
181
100
AcDbEntity
8
0
100
AcDbCircle
10
1298.4499999999998
20
-2468.7030000000004
30
0
40
5
210
0
220
0
230
1
0
LWPOLYLINE
5
182
100
AcDbEntity
8
0
100
AcDbPolyline
90
10
70
1
43
0.0
10
914.02864376269031
20
-4571.3500000000004
42
0.19891236737965959
10
984.7393218813454
20
-4542.0606781186543
10
1026.1606781186547
20
-4500.6393218813455
42
0.19891236737965801
10
1055.4499999999998
20
-4429.9286437626906
10
1055.4499999999998
20
-4107.7713562373101
42
0.1989123673796605
10
1026.1606781186547
20
-4037.0606781186543
10
984.73932188134518
20
-3995.639321881345
42
0.19891236737965856
10
914.02864376269008
20
-3966.3499999999999
10
6.3499999999999091
20
-3966.3499999999999
10
6.3499999999999091
20
-4571.3500000000004
0
LWPOLYLINE
5
183
100
AcDbEntity
8
0
100
AcDbPolyline
90
73
70
1
43
0.0
10
1063.4499999999998
20
-4290.75
42
0.41421356237309503
10
1064.9499999999998
20
-4292.25
10
1069.6856518507693
20
-4292.2500000000009
42
-0.99999999999999989
10
1072.5499999999997
20
-4295.1143481492309
10
1072.5499999999997
20
-4342.25
10
1303.1036932809432
20
-4342.2500000000009
42
-0.2730316544406467
10
1305.112466733322
20
-4342.6998929554875
42
0.031989351369714598
10
1306.0987782031316
20
-4343.5130064800396
10
1391.7286354701519
20
-4405.3567922839993
42
0.15765837906989652
10
1397.5835410085956
20
-4407.25
10
2085.25
20
-4407.25
10
2085.2500000000005
20
-4360.1143481492318
42
-0.99999999999999989
10
2088.1143481492295
20
-4357.25
10
2101.9499999999998
20
-4357.25
42
0.41421356237309503
10
2103.4499999999998
20
-4355.75
10
2103.4499999999994
20
-4308.75
42
0.41421356237309503
10
2101.9499999999998
20
-4307.25
10
2088.11434814923
20
-4307.2500000000009
42
-0.99999999999999989
10
2085.25
20
-4304.38565185077
10
2085.2500000000005
20
-4210.1143481492318
42
-0.99999999999999989
10
2088.1143481492295
20
-4207.25
10
2101.9499999999998
20
-4207.25
42
0.41421356237309503
10
2103.4499999999998
20
-4205.75
10
2103.4499999999994
20
-4158.75
42
0.41421356237309503
10
2101.9499999999998
20
-4157.25
10
2088.11434814923
20
-4157.2500000000009
42
-0.99999999999999989
10
2085.25
20
-4154.38565185077
10
2085.2500000000005
20
-4060.1143481492318
42
-0.99999999999999989
10
2088.1143481492295
20
-4057.25
10
2101.9499999999998
20
-4057.25
42
0.41421356237309503
10
2103.4499999999998
20
-4055.7500000000005
10
2103.4499999999994
20
-4008.75
42
0.41421356237309503
10
2101.9499999999998
20
-4007.25
10
2088.11434814923
20
-4007.2500000000009
42
-0.99999999999999989
10
2085.25
20
-4004.3856518507705
10
2085.25
20
-3975.4500000000003
10
2038.1143481492302
20
-3975.4500000000003
42
-0.99999999999999989
10
2035.2499999999998
20
-3972.5856518507699
10
2035.2499999999998
20
-3967.8500000000004
42
0.41421356237309503
10
2033.7499999999998
20
-3966.3499999999999
10
1986.7499999999998
20
-3966.3500000000004
42
0.41421356237309503
10
1985.2499999999998
20
-3967.8500000000004
10
1985.2499999999998
20
-3972.5856518507699
42
-0.99999999999999989
10
1982.3856518507694
20
-3975.4500000000003
10
1606.7643481492303
20
-3975.4499999999998
42
-0.99999999999999989
10
1603.8999999999999
20
-3972.5856518507703
10
1603.8999999999996
20
-3967.8500000000004
42
0.41421356237309503
10
1602.3999999999999
20
-3966.3499999999999
10
1555.3999999999996
20
-3966.3500000000004
42
0.41421356237309503
10
1553.8999999999999
20
-3967.8500000000004
10
1553.8999999999999
20
-3972.5856518507699
42
-0.99999999999999989
10
1551.0356518507695
20
-3975.4500000000003
10
1175.4143481492299
20
-3975.4500000000003
42
-0.99999999999999989
10
1172.5499999999997
20
-3972.5856518507699
10
1172.5499999999997
20
-3967.8500000000004
42
0.41421356237312279
10
1171.0499999999997
20
-3966.3499999999999
10
1124.0499999999997
20
-3966.3500000000004
42
0.41421356237309503
10
1122.5499999999997
20
-3967.8500000000004
10
1122.5499999999997
20
-3972.5856518507699
42
-0.99999999999999989
10
1119.6856518507693
20
-3975.4500000000003
10
1072.5499999999997
20
-3975.4500000000003
10
1072.5500000000004
20
-4004.385651850771
42
-0.99999999999999989
10
1069.6856518507686
20
-4007.25
10
1064.9499999999998
20
-4007.25
42
0.41421356237309503
10
1063.4499999999998
20
-4008.75
10
1063.4499999999998
20
-4055.7500000000005
42
0.41421356237309503
10
1064.9499999999998
20
-4057.25
10
1069.6856518507693
20
-4057.2500000000009
42
-0.99999999999999989
10
1072.5499999999997
20
-4060.1143481492313
10
1072.5500000000004
20
-4239.385651850771
42
-0.99999999999999989
10
1069.6856518507686
20
-4242.25
10
1064.9499999999998
20
-4242.25
42
0.41421356237309503
10
1063.4499999999998
20
-4243.75
0
LWPOLYLINE
5
184
100
AcDbEntity
8
0
100
AcDbPolyline
90
47
70
1
43
0.0
10
2091.1266797204653
20
-4899.5911344099768
42
0.41421356237315055
10
2089.6266797204653
20
-4898.0911344099759
10
2084.8910278696962
20
-4898.091134409975
42
-0.41421356237300788
10
2082.0266797204663
20
-4898.0911344099741
10
2082.0266797204663
20
-4895.2267862607441
10
2082.0266797204727
20
-4873.0911344099741
10
1700.2266797204725
20
-4873.0911344098658
10
1700.2266797203879
20
-5173.0911344098658
10
2322.0266797203881
20
-5173.0911344100423
10
2322.0266797203972
20
-5141.2911344100412
10
2299.8910278696276
20
-5141.2911344100348
10
2297.0266797203976
20
-5141.2911344100348
42
-0.41421356237312412
10
2297.0266797203976
20
-5138.4267862608049
10
2297.026679720399
20
-5133.6911344100354
42
0.41421356237320606
10
2295.5266797203994
20
-5132.1911344100336
10
2248.5266797203994
20
-5132.1911344100217
42
0.41421356237292856
10
2247.026679720399
20
-5133.6911344100199
10
2247.0266797203972
20
-5138.4267862607894
42
-0.41421356237306595
10
2247.0266797203976
20
-5141.2911344100203
10
2244.1623315711668
20
-5141.2911344100203
10
2184.8910278696276
20
-5141.291134410003
10
2182.0266797203967
20
-5141.291134410003
42
-0.41421356237321122
10
2182.0266797203976
20
-5138.4267862607712
10
2182.026679720399
20
-5133.6911344100026
42
0.41421356237320606
10
2180.5266797203994
20
-5132.1911344100026
10
2133.5266797203994
20
-5132.1911344099881
42
0.41421356237315055
10
2132.026679720399
20
-5133.6911344099881
10
2132.0266797203972
20
-5138.4267862607576
42
-0.41421356237306595
10
2132.0266797203976
20
-5141.2911344099884
10
2129.1623315711668
20
-5141.2911344099866
10
2084.8910278696276
20
-5141.2911344099757
42
-0.99999999999999989
10
2082.0266797203976
20
-5138.426786260743
10
2082.0266797204154
20
-5075.955482559204
10
2082.0266797204163
20
-5073.0911344099732
42
-0.41421356237312412
10
2084.8910278696467
20
-5073.091134409975
10
2089.6266797204162
20
-5073.0911344099768
42
0.41421356237303958
10
2091.1266797204166
20
-5071.5911344099768
10
2091.1266797204298
20
-5024.5911344099768
42
0.41421356237315055
10
2089.6266797204303
20
-5023.0911344099759
10
2084.8910278696608
20
-5023.091134409975
42
-0.41421356237300788
10
2082.0266797204304
20
-5023.0911344099741
10
2082.0266797204313
20
-5020.2267862607441
10
2082.0266797204508
20
-4950.955482559204
10
2082.0266797204513
20
-4948.0911344099732
42
-0.41421356237312412
10
2084.8910278696821
20
-4948.091134409975
10
2089.6266797204516
20
-4948.0911344099768
42
0.41421356237303958
10
2091.1266797204516
20
-4946.5911344099768
0
LWPOLYLINE
5
185
100
AcDbEntity
8
0
100
AcDbPolyline
90
47
70
1
43
0.0
10
1536.9499999999996
20
-4456.4869581857856
42
0.41421356237309503
10
1538.4499999999998
20
-4454.9869581857856
10
1538.4499999999998
20
-4449.914348149231
42
-0.41421356237309503
10
1538.4499999999998
20
-4447.0500000000011
10
1541.3143481492302
20
-4447.0500000000011
10
1607.3856518507691
20
-4447.0500000000011
10
1610.2499999999995
20
-4447.0500000000002
42
-0.41421356237306595
10
1610.2499999999998
20
-4449.914348149231
10
1610.2499999999998
20
-4454.6500000000005
42
0.41421356237315055
10
1611.7499999999998
20
-4456.1500000000015
10
1658.7499999999998
20
-4456.1500000000005
42
0.41421356237309503
10
1660.2499999999998
20
-4454.6500000000005
10
1660.2499999999998
20
-4449.914348149231
42
-0.41421356237309503
10
1660.2499999999998
20
-4447.0500000000011
10
1663.1143481492302
20
-4447.0500000000011
10
1685.2499999999998
20
-4447.0500000000011
10
1685.2499999999998
20
-4415.2500000000009
10
1328.4499999999998
20
-4415.2500000000009
10
1328.4499999999998
20
-4652.385651850771
42
-0.99999999999999989
10
1325.5856518507694
20
-4655.2500000000009
10
1063.4499999999998
20
-4655.2500000000009
10
1063.4499999999996
20
-4865.2500000000009
10
1446.0768873378283
20
-4865.2500000000009
10
1445.9794478618371
20
-4818.11444886346
10
1445.97352664145
20
-4815.25010683445
42
-0.41421356237300783
10
1448.8378686704591
20
-4815.2441856140631
10
1455.0735071975778
20
-4815.2312951877102
10
1454.9701462803496
20
-4765.2312951877102
10
1448.7345077532304
20
-4765.2441856140631
42
-0.41421356237309503
10
1445.8701657242214
20
-4765.2501068344509
10
1445.8642445038336
20
-4762.3857648054418
10
1445.4626819426255
20
-4568.1331536757516
10
1445.4567607222382
20
-4565.2688116467416
42
-0.41421356237300783
10
1448.3211027512471
20
-4565.2628904263547
10
1454.556741278368
20
-4565.2500000000009
10
1454.4533803611398
20
-4515.2500000000009
10
1448.2177418340186
20
-4515.2628904263547
42
-0.41421356237300783
10
1445.3533998050098
20
-4515.2688116467416
10
1445.347478584622
20
-4512.4044696177316
10
1445.2499999999998
20
-4465.2500000000009
10
1445.2499999999998
20
-4449.914348149231
42
-0.99999999999999989
10
1448.1143481492302
20
-4447.0500000000011
10
1485.5856518507694
20
-4447.0500000000011
10
1488.4499999999994
20
-4447.0500000000011
42
-0.41421356237303686
10
1488.4499999999998
20
-4449.914348149231
10
1488.4499999999998
20
-4454.9869581857856
42
0.41421356237309503
10
1489.9499999999998
20
-4456.4869581857856
0
CIRCLE
5
186
100
AcDbEntity
8
0
100
AcDbCircle
10
1665.2499999999998
20
-4431.1744227302424
30
0
40
4.5748842756755437
210
0
220
0
230
1
0
CIRCLE
5
187
100
AcDbEntity
8
0
100
AcDbCircle
10
1210.9499999999998
20
-4675.2500000000009
30
0
40
5
210
0
220
0
230
1
0
CIRCLE
5
188
100
AcDbEntity
8
0
100
AcDbCircle
10
1083.4499999999998
20
-4760.2500000000009
30
0
40
5
210
0
220
0
230
1
0
CIRCLE
5
189
100
AcDbEntity
8
0
100
AcDbCircle
10
1210.9499999999998
20
-4845.2500000000009
30
0
40
5
210
0
220
0
230
1
0
CIRCLE
5
190
100
AcDbEntity
8
0
100
AcDbCircle
10
1361.1045384029567
20
-4459.1260292630805
30
0
40
5
210
0
220
0
230
1
0
CIRCLE
5
191
100
AcDbEntity
8
0
100
AcDbCircle
10
1337.5499999999997
20
-4440.2500000000009
30
0
40
2.0000000000000284
210
0
220
0
230
1
0
CIRCLE
5
192
100
AcDbEntity
8
0
100
AcDbCircle
10
1337.5499999999993
20
-4565.2500000000009
30
0
40
2.0000000000000284
210
0
220
0
230
1
0
CIRCLE
5
193
100
AcDbEntity
8
0
100
AcDbCircle
10
1337.5499999999997
20
-4715.2500000000009
30
0
40
2.0000000000000284
210
0
220
0
230
1
0
LWPOLYLINE
5
194
100
AcDbEntity
8
0
100
AcDbPolyline
90
8
70
1
43
0.0
10
1123.4499999999998
20
-4825.2500000000009
10
1298.4499999999998
20
-4825.2500000000009
42
0.41421356237310752
10
1318.4499999999994
20
-4805.2500000000009
10
1318.4499999999998
20
-4715.2500000000009
42
0.41421356237310752
10
1298.4499999999998
20
-4695.2500000000009
10
1123.4499999999998
20
-4695.2500000000009
42
0.4142135623730992
10
1103.4499999999994
20
-4715.2500000000009
10
1103.4499999999998
20
-4805.2500000000009
42
0.4142135623730992
0
CIRCLE
5
195
100
AcDbEntity
8
0
100
AcDbCircle
10
1352.5499999999997
20
-4760.2500000000009
30
0
40
3.9999999999999858
210
0
220
0
230
1
0
CIRCLE
5
196
100
AcDbEntity
8
0
100
AcDbCircle
10
1615.2499999999998
20
-4431.1744227302424
30
0
40
5
210
0
220
0
230
1
0
CIRCLE
5
197
100
AcDbEntity
8
0
100
AcDbCircle
10
1113.4499999999994
20
-5123.25
30
0
40
5
210
0
220
0
230
1
0
CIRCLE
5
198
100
AcDbEntity
8
0
100
AcDbCircle
10
1395.2499999999995
20
-4923.25
30
0
40
5
210
0
220
0
230
1
0
CIRCLE
5
199
100
AcDbEntity
8
0
100
AcDbCircle
10
1395.2499999999995
20
-5123.25
30
0
40
5
210
0
220
0
230
1
0
CIRCLE
5
200
100
AcDbEntity
8
0
100
AcDbCircle
10
1113.4499999999994
20
-4923.25
30
0
40
5
210
0
220
0
230
1
0
LWPOLYLINE
5
201
100
AcDbEntity
8
0
100
AcDbPolyline
90
4
70
1
43
0.0
10
1685.2499999999995
20
-4873.25
10
1685.2499999999995
20
-5173.25
10
1063.4499999999998
20
-5173.25
10
1063.4499999999998
20
-4873.25
0
LWPOLYLINE
5
202
100
AcDbEntity
8
0
100
AcDbPolyline
90
73
70
1
43
0.0
10
1055.4499999999998
20
-4921.7500000000009
42
0.41421356237309503
10
1053.9499999999998
20
-4920.2500000000009
10
1040.1143481492304
20
-4920.2500000000009
42
-0.99999999999999989
10
1037.25
20
-4917.385651850771
10
1037.25
20
-4823.1143481492309
42
-0.99999999999999989
10
1040.1143481492304
20
-4820.2500000000009
10
1053.9499999999998
20
-4820.2500000000009
42
0.41421356237309503
10
1055.4499999999998
20
-4818.7500000000009
10
1055.4499999999998
20
-4771.7500000000009
42
0.41421356237309503
10
1053.9499999999998
20
-4770.2500000000009
10
1040.1143481492304
20
-4770.2500000000009
42
-0.99999999999999989
10
1037.25
20
-4767.385651850771
10
1037.25
20
-4673.1143481492309
42
-0.99999999999999989
10
1040.1143481492304
20
-4670.2500000000009
10
1053.9499999999998
20
-4670.2500000000009
42
0.41421356237309503
10
1055.4499999999998
20
-4668.7500000000009
10
1055.4499999999998
20
-4621.7500000000009
42
0.41421356237309503
10
1053.9499999999998
20
-4620.2500000000009
10
1040.1143481492304
20
-4620.2500000000009
42
-0.99999999999999989
10
1037.25
20
-4617.385651850771
10
1037.25
20
-4588.4500000000007
10
990.11434814923041
20
-4588.4500000000007
42
-0.99999999999999989
10
987.25
20
-4585.5856518507708
10
987.24999999999977
20
-4580.8500000000013
42
0.41421356237309503
10
985.74999999999989
20
-4579.3500000000004
10
938.75
20
-4579.3500000000013
42
0.41421356237309503
10
937.25
20
-4580.8500000000013
10
937.25
20
-4585.5856518507708
42
-0.99999999999999989
10
934.38565185076959
20
-4588.4500000000007
10
558.76434814923039
20
-4588.4500000000007
42
-0.99999999999999989
10
555.89999999999998
20
-4585.5856518507708
10
555.89999999999998
20
-4580.8500000000013
42
0.41421356237309503
10
554.39999999999986
20
-4579.3500000000004
10
507.39999999999998
20
-4579.3500000000013
42
0.41421356237309503
10
505.89999999999998
20
-4580.8500000000013
10
505.89999999999998
20
-4585.5856518507708
42
-0.99999999999999989
10
503.03565185076957
20
-4588.4500000000007
10
127.41434814923042
20
-4588.4500000000007
42
-0.99999999999999989
10
124.55000000000001
20
-4585.5856518507708
10
124.54999999999998
20
-4580.8500000000013
42
0.41421356237309503
10
123.05
20
-4579.3500000000004
10
76.049999999999969
20
-4579.3500000000013
42
0.41421356237309159
10
74.549999999999983
20
-4580.8500000000013
10
74.549999999999969
20
-4585.5856518507708
42
-0.99999999999999989
10
71.685651850769545
20
-4588.4500000000007
10
24.549999999999983
20
-4588.4500000000007
10
24.550000000000001
20
-4617.385651850771
42
-0.99999999999999989
10
21.685651850769503
20
-4620.2500000000009
10
16.949999999999967
20
-4620.2500000000009
42
0.41421356237309243
10
15.449999999999946
20
-4621.7500000000009
10
15.44999999999998
20
-4668.7500000000009
42
0.41421356237309243
10
16.949999999999967
20
-4670.2500000000009
10
21.685651850769521
20
-4670.2500000000009
42
-0.99999999999999989
10
24.549999999999983
20
-4673.1143481492309
10
24.550000000000001
20
-4852.385651850771
42
-0.99999999999999989
10
21.685651850769503
20
-4855.2500000000009
10
16.949999999999967
20
-4855.2500000000009
42
0.41421356237309243
10
15.449999999999946
20
-4856.7500000000009
10
15.449999999999982
20
-4903.7500000000009
42
0.41421356237309243
10
16.949999999999967
20
-4905.2500000000009
10
21.685651850769521
20
-4905.2500000000009
42
-0.99999999999999989
10
24.549999999999983
20
-4908.1143481492309
10
24.550000000000001
20
-4952.385651850771
42
-0.99999999999999989
10
21.685651850769503
20
-4955.2500000000009
10
17.690049709803439
20
-4955.2500000000009
42
0.87643579112994174
10
17.300049709803428
20
-4958.1984129245493
10
246.47489961585606
20
-5019.9060861636599
42
0.065850486040692255
10
249.07489961585611
20
-5020.2500000000009
10
1037.25
20
-5020.2500000000009
10
1037.25
20
-4973.1143481492309
42
-0.99999999999999989
10
1040.1143481492304
20
-4970.2500000000009
10
1053.9499999999998
20
-4970.2500000000009
42
0.41421356237309503
10
1055.4499999999998
20
-4968.7500000000009
0
LWPOLYLINE
5
203
100
AcDbEntity
8
0
100
AcDbPolyline
90
20
70
1
43
0.0
10
20.445944616827774
20
-5053.4121768567284
10
20.445944616827774
20
-5056.2765250059592
10
20.445944616827774
20
-5064.1478287074988
10
20.445944616828285
20
-5067.0121768567287
42
-0.41421356237325763
10
17.58159646759691
20
-5067.0121768567278
10
2.245944616827984
20
-5067.0121768567278
10
2.2459446168278419
20
-5085.2121768567285
10
1051.3459446168279
20
-5085.2121768567285
10
1051.3459446168279
20
-5067.0121768567278
10
1036.0102927660589
20
-5067.0121768567278
42
-0.41421356237322582
10
1033.1459446168278
20
-5067.0121768567278
10
1033.1459446168278
20
-5064.1478287074988
10
1033.1459446168278
20
-5056.2765250059583
10
1033.1459446168285
20
-5053.4121768567284
42
-0.41421356237297879
10
1036.0102927660582
20
-5053.4121768567284
10
1051.3459446168279
20
-5053.4121768567284
10
1051.3459446168279
20
-5035.2121768567285
10
2.2459446168278419
20
-5035.2121768567285
10
2.245944616827984
20
-5053.4121768567284
10
17.581596467598061
20
-5053.4121768567275
42
-0.41421356237289414
0
LWPOLYLINE
5
204
100
AcDbEntity
8
0
100
AcDbPolyline
90
47
70
1
43
0.0
10
603.15000000000009
20
-5696.9500000000016
42
0.41421356237309503
10
601.65000000000009
20
-5695.4500000000007
10
554.65000000000009
20
-5695.4500000000007
42
0.41421356237309503
10
553.15000000000009
20
-5696.9500000000016
10
553.15000000000009
20
-5701.6856518507711
42
-0.41421356237308055
10
553.15000000000009
20
-5704.5500000000011
10
550.285651850769
20
-5704.5500000000011
10
484.214348149231
20
-5704.5500000000011
10
481.35000000000002
20
-5704.5500000000011
42
-0.41421356237309503
10
481.35000000000002
20
-5701.6856518507711
10
481.35000000000014
20
-5696.6130418142166
42
0.41421356237309503
10
479.85000000000014
20
-5695.1130418142156
10
432.85000000000014
20
-5695.1130418142156
42
0.41421356237309503
10
431.35000000000014
20
-5696.6130418142166
10
431.35000000000002
20
-5701.6856518507711
42
-0.41421356237309503
10
431.35000000000002
20
-5704.5500000000011
10
428.48565185076893
20
-5704.5500000000011
10
391.0143481492305
20
-5704.5500000000011
42
-0.99999999999999989
10
388.15000000000009
20
-5701.6856518507711
10
388.15000000000009
20
-5686.3500000000013
10
388.2474785846224
20
-5639.1955303822706
10
388.25339980500991
20
-5636.3311883532606
42
-0.41421356237300061
10
391.11774183401877
20
-5636.3371095736475
10
397.35338036114007
20
-5636.3500000000013
10
397.45674127836821
20
-5586.3500000000013
10
391.22110275124788
20
-5586.3371095736475
42
-0.41421356237305135
10
388.35676072223833
20
-5586.3311883532606
10
388.36268194262584
20
-5583.4668463242506
10
388.76424450383405
20
-5389.2142351945604
10
388.77016572422156
20
-5386.3498931655513
42
-0.41421356237305146
10
391.63450775323093
20
-5386.3558143859382
10
397.87014628034979
20
-5386.368704812292
10
397.97350719757799
20
-5336.368704812292
10
391.73786867045868
20
-5336.3558143859391
42
-0.41421356237284795
10
388.87352664145004
20
-5336.3498931655513
10
388.8794478618376
20
-5333.4855511365413
10
388.97688733782849
20
-5286.3500000000013
10
6.3499999999998957
20
-5286.3500000000013
10
6.3500000000001933
20
-5496.3500000000013
10
268.4856518507695
20
-5496.3500000000013
42
-0.99999999999999989
10
271.35000000000002
20
-5499.2143481492312
10
271.35000000000019
20
-5736.3500000000013
10
628.15000000000009
20
-5736.3500000000013
10
628.15000000000009
20
-5704.5500000000011
10
606.01434814923107
20
-5704.5500000000011
10
603.15000000000009
20
-5704.5500000000011
42
-0.41421356237309503
10
603.15000000000009
20
-5701.6856518507711
0
CIRCLE
5
205
100
AcDbEntity
8
0
100
AcDbCircle
10
608.15000000000009
20
-5720.4255772697597
30
0
40
4.5748842756755437
210
0
220
-0
230
1
0
CIRCLE
5
206
100
AcDbEntity
8
0
100
AcDbCircle
10
153.85000000000005
20
-5476.3500000000013
30
0
40
5
210
0
220
-0
230
1
0
CIRCLE
5
207
100
AcDbEntity
8
0
100
AcDbCircle
10
26.350000000000051
20
-5391.3500000000013
30
0
40
5
210
0
220
-0
230
1
0
CIRCLE
5
208
100
AcDbEntity
8
0
100
AcDbCircle
10
153.85000000000005
20
-5306.3500000000013
30
0
40
5
210
0
220
-0
230
1
0
CIRCLE
5
209
100
AcDbEntity
8
0
100
AcDbCircle
10
304.00453840295711
20
-5692.4739707369208
30
0
40
5
210
0
220
-0
230
1
0
CIRCLE
5
210
100
AcDbEntity
8
0
100
AcDbCircle
10
280.4500000000001
20
-5711.3500000000013
30
0
40
2.0000000000000284
210
0
220
-0
230
1
0
CIRCLE
5
211
100
AcDbEntity
8
0
100
AcDbCircle
10
280.45000000000005
20
-5586.3500000000013
30
0
40
2.0000000000000284
210
0
220
-0
230
1
0
CIRCLE
5
212
100
AcDbEntity
8
0
100
AcDbCircle
10
280.44999999999993
20
-5436.3500000000013
30
0
40
2.0000000000000284
210
0
220
-0
230
1
0
LWPOLYLINE
5
213
100
AcDbEntity
8
0
100
AcDbPolyline
90
8
70
1
43
0.0
10
66.350000000000051
20
-5326.3500000000013
42
0.41421356237309792
10
46.349999999999852
20
-5346.3500000000013
10
46.350000000000051
20
-5436.3500000000013
42
0.41421356237309792
10
66.350000000000051
20
-5456.3500000000013
10
241.34999999999997
20
-5456.3500000000013
42
0.41421356237309764
10
261.35000000000014
20
-5436.3500000000013
10
261.34999999999997
20
-5346.3500000000013
42
0.41421356237309764
10
241.35000000000005
20
-5326.3500000000013
0
CIRCLE
5
214
100
AcDbEntity
8
0
100
AcDbCircle
10
295.45000000000005
20
-5391.3500000000013
30
0
40
3.9999999999999858
210
0
220
-0
230
1
0
CIRCLE
5
215
100
AcDbEntity
8
0
100
AcDbCircle
10
558.15000000000009
20
-5720.4255772697597
30
0
40
5
210
0
220
0
230
1
0
LWPOLYLINE
5
216
100
AcDbEntity
8
0
100
AcDbPolyline
90
28
70
1
43
0.0
10
676.73927714959837
20
-5536.3500000000004
42
0.41421356237309503
10
675.23927714959825
20
-5537.8500000000004
10
675.23927714959859
20
-5634.8500000000013
42
0.41421356237309503
10
676.73927714959859
20
-5636.3500000000022
10
690.57492900036823
20
-5636.3500000000013
42
-0.99999999999999989
10
693.4392771495983
20
-5639.2143481492312
10
693.43927714959841
20
-5683.4856518507704
42
-0.99999999999999989
10
690.574929000368
20
-5686.3500000000013
10
676.73927714959859
20
-5686.3500000000004
42
0.41421356237309503
10
675.23927714959859
20
-5687.8500000000004
10
675.23927714959859
20
-5736.3500000000013
10
1032.0392771495985
20
-5736.3500000000013
10
1032.0392771495985
20
-5286.3500000000013
10
410.23927714959825
20
-5286.3500000000013
10
410.23927714959825
20
-5295.4500000000007
10
421.05550864420923
20
-5295.4500000000007
42
-0.99999999999999989
10
423.91985679343964
20
-5298.3143481492316
10
423.9198567934402
20
-5301.6856518507711
42
-0.99999999999999989
10
421.05550864420866
20
-5304.5500000000011
10
410.23927714959825
20
-5304.5500000000011
10
410.23927714959854
20
-5496.3500000000013
10
675.23927714959837
20
-5496.3500000000013
10
675.23927714959825
20
-5489.2143481492312
42
-0.99999999999999989
10
678.103625298829
20
-5486.3500000000013
10
690.57492900036823
20
-5486.3500000000013
42
-0.99999999999999989
10
693.4392771495983
20
-5489.2143481492312
10
693.43927714959841
20
-5533.4856518507704
42
-0.99999999999999989
10
690.574929000368
20
-5536.3500000000013
0
LWPOLYLINE
5
217
100
AcDbEntity
8
0
100
AcDbPolyline
90
8
70
1
43
0.0
10
693.43927714959841
20
-5339.2143481492312
42
0.99999999999999989
10
690.574929000368
20
-5336.3500000000013
10
678.103625298829
20
-5336.3500000000013
42
0.99999999999999989
10
675.23927714959837
20
-5339.2143481492312
10
675.23927714959837
20
-5383.4856518507704
42
0.99999999999999989
10
678.10362529882877
20
-5386.3500000000013
10
690.574929000368
20
-5386.3500000000013
42
0.99999999999999989
10
693.43927714959841
20
-5383.4856518507704
0
LWPOLYLINE
5
218
100
AcDbEntity
8
0
100
AcDbPolyline
90
8
70
1
43
0.0
10
969.53927714959855
20
-5301.6856518507711
42
0.99999999999999989
10
972.4036252988293
20
-5304.5500000000011
10
991.67492900036768
20
-5304.5500000000011
42
0.99999999999999989
10
994.53927714959855
20
-5301.6856518507711
10
994.53927714959855
20
-5298.3143481492316
42
0.99999999999999989
10
991.67492900036802
20
-5295.4500000000007
10
972.4036252988293
20
-5295.4500000000007
42
0.99999999999999989
10
969.53927714959855
20
-5298.3143481492316
0
LWPOLYLINE
5
219
100
AcDbEntity
8
0
100
AcDbPolyline
90
8
70
1
43
0.0
10
693.43927714959841
20
-5298.3143481492316
42
0.99999999999999989
10
690.57492900036789
20
-5295.4500000000007
10
678.10362529882923
20
-5295.4500000000007
42
0.99999999999999989
10
675.23927714959837
20
-5298.3143481492316
10
675.23927714959837
20
-5301.6856518507711
42
0.99999999999999989
10
678.10362529882912
20
-5304.5500000000011
10
690.57492900036755
20
-5304.5500000000011
42
0.99999999999999989
10
693.43927714959841
20
-5301.6856518507711
0
LWPOLYLINE
5
220
100
AcDbEntity
8
0
100
AcDbPolyline
90
8
70
1
43
0.0
10
725.23927714959837
20
-5298.3143481492316
42
0.99999999999999989
10
722.37492900036784
20
-5295.4500000000007
10
709.90362529882896
20
-5295.4500000000007
42
0.99999999999999989
10
707.03927714959832
20
-5298.3143481492316
10
707.03927714959843
20
-5301.6856518507711
42
0.99999999999999989
10
709.90362529882896
20
-5304.5500000000011
10
722.37492900036739
20
-5304.5500000000011
42
0.99999999999999989
10
725.23927714959837
20
-5301.6856518507711
0
LWPOLYLINE
5
221
100
AcDbEntity
8
0
100
AcDbPolyline
90
8
70
1
43
0.0
10
460.23927714959825
20
-5298.3143481492316
42
0.99999999999999989
10
457.37492900036756
20
-5295.4500000000007
10
448.10226062434435
20
-5295.4500000000007
42
0.99999999999999989
10
445.2379124751136
20
-5298.3143481492316
10
445.23791247511372
20
-5301.6856518507711
42
1.0000000105367122
10
448.1022606243443
20
-5304.5500000000011
10
457.37492900036722
20
-5304.5500000000011
42
0.99999999999999989
10
460.23927714959825
20
-5301.6856518507711
0
CIRCLE
5
222
100
AcDbEntity
8
0
100
AcDbCircle
10
962.03927714959855
20
-5720.4255772697597
30
0
40
5
210
0
220
0
230
1
0
LWPOLYLINE
5
223
100
AcDbEntity
8
0
100
AcDbPolyline
90
8
70
1
43
0.0
10
972.03927714959843
20
-5326.3500000000013
10
753.4392771495983
20
-5326.3500000000013
42
0.41421356237309709
10
733.43927714959818
20
-5346.3500000000013
10
733.43927714959841
20
-5638.1500000000005
42
0.4142135623730992
10
753.43927714959841
20
-5658.1500000000005
10
972.03927714959855
20
-5658.1500000000005
42
0.4142135623730992
10
992.03927714959889
20
-5638.1500000000005
10
992.03927714959855
20
-5346.3500000000013
42
0.41421356237310125
0
LWPOLYLINE
5
224
100
AcDbEntity
8
0
100
AcDbPolyline
90
8
70
1
43
0.0
10
645.23927714959837
20
-5326.3500000000013
10
470.23927714959837
20
-5326.3500000000013
42
0.41421356237309709
10
450.23927714959825
20
-5346.3500000000013
10
450.23927714959837
20
-5436.3500000000013
42
0.41421356237309709
10
470.23927714959837
20
-5456.3500000000013
10
645.23927714959837
20
-5456.3500000000013
42
0.41421356237309709
10
665.23927714959859
20
-5436.3500000000013
10
665.23927714959837
20
-5346.3500000000013
42
0.41421356237309709
0
CIRCLE
5
225
100
AcDbEntity
8
0
100
AcDbCircle
10
557.73927714959837
20
-5306.3500000000013
30
0
40
5
210
0
220
0
230
1
0
CIRCLE
5
226
100
AcDbEntity
8
0
100
AcDbCircle
10
1012.0392771495985
20
-5697.2500000000018
30
0
40
5
210
0
220
0
230
1
0
CIRCLE
5
227
100
AcDbEntity
8
0
100
AcDbCircle
10
707.89381555255545
20
-5692.4739707369208
30
0
40
5
210
0
220
0
230
1
0
CIRCLE
5
228
100
AcDbEntity
8
0
100
AcDbCircle
10
557.73927714959837
20
-5476.3500000000013
30
0
40
5
210
0
220
0
230
1
0
CIRCLE
5
229
100
AcDbEntity
8
0
100
AcDbCircle
10
430.23927714959837
20
-5391.3500000000013
30
0
40
5
210
0
220
0
230
1
0
CIRCLE
5
230
100
AcDbEntity
8
0
100
AcDbCircle
10
684.33927714959839
20
-5436.3500000000013
30
0
40
2
210
0
220
0
230
1
0
CIRCLE
5
231
100
AcDbEntity
8
0
100
AcDbCircle
10
684.3392771495985
20
-5711.3500000000013
30
0
40
2
210
0
220
0
230
1
0
CIRCLE
5
232
100
AcDbEntity
8
0
100
AcDbCircle
10
700.23927714959837
20
-5295.4500000000007
30
0
40
2
210
0
220
0
230
1
0
CIRCLE
5
233
100
AcDbEntity
8
0
100
AcDbCircle
10
1007.0392771495985
20
-5295.4500000000007
30
0
40
2
210
0
220
0
230
1
0
CIRCLE
5
234
100
AcDbEntity
8
0
100
AcDbCircle
10
957.03927714959855
20
-5295.4500000000007
30
0
40
2
210
0
220
0
230
1
0
CIRCLE
5
235
100
AcDbEntity
8
0
100
AcDbCircle
10
435.23927714959825
20
-5295.4500000000007
30
0
40
2
210
0
220
0
230
1
0
CIRCLE
5
236
100
AcDbEntity
8
0
100
AcDbCircle
10
684.3392771495985
20
-5586.3500000000013
30
0
40
2
210
0
220
0
230
1
0
CIRCLE
5
237
100
AcDbEntity
8
0
100
AcDbCircle
10
684.33927714959839
20
-5320.4500000000007
30
0
40
2
210
0
220
0
230
1
0
LWPOLYLINE
5
238
100
AcDbEntity
8
0
100
AcDbPolyline
90
31
70
1
43
0.0
10
7.8499999999997536
20
-6185.25
42
0.41421356237309531
10
6.349999999999751
20
-6186.7500000000009
10
6.3499999999997669
20
-6194.3500000000004
10
628.14999999999998
20
-6194.3500000000004
10
628.15000000000009
20
-5744.3500000000004
10
271.35000000000002
20
-5744.3500000000004
10
271.34999999999991
20
-5792.8500000000004
42
0.41421356237309503
10
272.84999999999991
20
-5794.3500000000004
10
286.68565185076932
20
-5794.3500000000004
42
-0.99999999999999989
10
289.54999999999984
20
-5797.2143481492312
10
289.54999999999984
20
-5841.4856518507704
42
-0.99999999999999989
10
286.68565185076932
20
-5844.3500000000004
10
272.84999999999991
20
-5844.3499999999995
42
0.41421356237309503
10
271.34999999999997
20
-5845.8500000000004
10
271.34999999999991
20
-5942.8500000000004
42
0.41421356237309503
10
272.84999999999991
20
-5944.3500000000004
10
286.68565185076972
20
-5944.3500000000004
42
-0.99999999999999989
10
289.54999999999984
20
-5947.2143481492312
10
289.55000000000007
20
-5991.4856518507704
42
-0.99999999999999989
10
286.68565185076949
20
-5994.3500000000004
10
274.21434811904982
20
-5994.350000030181
42
-0.99999998946328783
10
271.34999999999991
20
-5991.4856518507704
10
271.34999999999991
20
-5985.8500000000004
42
0.41421356237309503
10
269.84999999999991
20
-5984.3500000000004
10
6.3499999999998868
20
-5984.3500000000004
10
6.3499999999997536
20
-6174.6500000000005
42
0.41421356237309503
10
7.8499999999997527
20
-6176.1499999999996
10
21.685651850769286
20
-6176.1499999999996
42
-0.99999999999999989
10
24.549999999999844
20
-6179.0143481492305
10
24.550000000000125
20
-6182.385651850771
42
-0.99999999999999989
10
21.685651850769005
20
-6185.2500000000009
0
LWPOLYLINE
5
239
100
AcDbEntity
8
0
100
AcDbPolyline
90
8
70
1
43
0.0
10
286.68565185076943
20
-6144.3500000000004
42
0.99999999999999989
10
289.54999999999995
20
-6141.4856518507704
10
289.54999999999984
20
-6097.2143481492312
42
0.99999999999999989
10
286.68565185076943
20
-6094.3500000000004
10
274.21434814923043
20
-6094.3500000000004
42
0.99999999999999989
10
271.34999999999991
20
-6097.2143481492312
10
271.34999999999991
20
-6141.4856518507704
42
0.99999999999999989
10
274.21434814923043
20
-6144.3500000000004
0
LWPOLYLINE
5
240
100
AcDbEntity
8
0
100
AcDbPolyline
90
8
70
1
43
0.0
10
565.65000000000009
20
-6182.385651850771
42
0.99999999999999989
10
568.51434814923073
20
-6185.2500000000009
10
587.78565185076923
20
-6185.2500000000009
42
0.99999999999999989
10
590.65000000000009
20
-6182.385651850771
10
590.65000000000009
20
-6179.0143481492305
42
0.99999999999999989
10
587.78565185076934
20
-6176.1499999999996
10
568.51434814923095
20
-6176.1499999999996
42
0.99999999999999989
10
565.64999999999998
20
-6179.0143481492305
0
LWPOLYLINE
5
241
100
AcDbEntity
8
0
100
AcDbPolyline
90
8
70
1
43
0.0
10
303.14999999999992
20
-6182.385651850771
42
0.99999999999999989
10
306.01434814923061
20
-6185.2500000000009
10
318.48565185076916
20
-6185.2500000000009
42
0.99999999999999989
10
321.34999999999991
20
-6182.385651850771
10
321.34999999999991
20
-6179.0143481492305
42
0.99999999999999989
10
318.48565185076916
20
-6176.1499999999996
10
306.01434814923095
20
-6176.1499999999996
42
0.99999999999999989
10
303.14999999999992
20
-6179.0143481492305
0
LWPOLYLINE
5
242
100
AcDbEntity
8
0
100
AcDbPolyline
90
8
70
1
43
0.0
10
289.54999999999995
20
-6179.0143481492305
42
0.99999999999999989
10
286.6856518507692
20
-6176.1499999999996
10
274.21434814923094
20
-6176.1499999999996
42
0.99999999999999989
10
271.34999999999991
20
-6179.0143481492305
10
271.34999999999991
20
-6182.385651850771
42
0.99999999999999989
10
274.2143481492306
20
-6185.2500000000009
10
286.68565185076915
20
-6185.2500000000009
42
0.99999999999999989
10
289.54999999999995
20
-6182.385651850771
0
LWPOLYLINE
5
243
100
AcDbEntity
8
0
100
AcDbPolyline
90
8
70
1
43
0.0
10
38.149999999999771
20
-6182.385651850771
42
1.0000000105367122
10
41.01434814923045
20
-6185.2500000000009
10
53.485651850769003
20
-6185.2500000000009
42
0.99999999999999989
10
56.349999999999795
20
-6182.385651850771
10
56.349999999999774
20
-6179.0143481492305
42
1.0000000105367122
10
53.485651850769045
20
-6176.1499999999996
10
41.014348149230813
20
-6176.1499999999996
42
0.99999999999999989
10
38.149999999999771
20
-6179.0143481492305
0
CIRCLE
5
244
100
AcDbEntity
8
0
100
AcDbCircle
10
558.14999999999998
20
-5760.2744227302428
30
0
40
5
210
0
220
0
230
1
0
LWPOLYLINE
5
245
100
AcDbEntity
8
0
100
AcDbPolyline
90
8
70
1
43
0.0
10
241.34999999999991
20
-6024.3500000000004
10
66.349999999999909
20
-6024.3500000000004
42
0.41421356237309792
10
46.34999999999971
20
-6044.3500000000004
10
46.349999999999916
20
-6134.3500000000004
42
0.41421356237309792
10
66.349999999999909
20
-6154.3500000000004
10
241.34999999999991
20
-6154.3500000000004
42
0.41421356237309764
10
261.35000000000008
20
-6134.3500000000004
10
261.34999999999991
20
-6044.3500000000004
42
0.41421356237309764
0
LWPOLYLINE
5
246
100
AcDbEntity
8
0
100
AcDbPolyline
90
8
70
1
43
0.0
10
568.14999999999998
20
-5812.5500000000011
10
349.54999999999984
20
-5812.5500000000011
42
0.41421356237309709
10
329.54999999999973
20
-5832.5500000000011
10
329.54999999999984
20
-6134.3500000000004
42
0.41421356237309709
10
349.54999999999984
20
-6154.3500000000004
10
568.15000000000009
20
-6154.3500000000004
42
0.41421356237309709
10
588.1500000000002
20
-6134.3500000000004
10
588.15000000000009
20
-5832.5500000000011
42
0.41421356237309709
0
CIRCLE
5
247
100
AcDbEntity
8
0
100
AcDbCircle
10
304.00453840295688
20
-5788.2260292630799
30
0
40
5
210
0
220
0
230
1
0
CIRCLE
5
248
100
AcDbEntity
8
0
100
AcDbCircle
10
153.84999999999991
20
-6174.3500000000004
30
0
40
5
210
0
220
0
230
1
0
CIRCLE
5
249
100
AcDbEntity
8
0
100
AcDbCircle
10
26.349999999999909
20
-6089.3500000000004
30
0
40
5
210
0
220
0
230
1
0
CIRCLE
5
250
100
AcDbEntity
8
0
100
AcDbCircle
10
153.84999999999991
20
-6004.3500000000004
30
0
40
5
210
0
220
0
230
1
0
CIRCLE
5
251
100
AcDbEntity
8
0
100
AcDbCircle
10
608.14999999999998
20
-5783.4500000000007
30
0
40
5
210
0
220
0
230
1
0
CIRCLE
5
252
100
AcDbEntity
8
0
100
AcDbCircle
10
280.44999999999987
20
-6044.3500000000004
30
0
40
2
210
0
220
0
230
1
0
CIRCLE
5
253
100
AcDbEntity
8
0
100
AcDbCircle
10
280.44999999999987
20
-5769.3500000000004
30
0
40
2
210
0
220
0
230
1
0
CIRCLE
5
254
100
AcDbEntity
8
0
100
AcDbCircle
10
553.15000000000009
20
-6185.2500000000009
30
0
40
2
210
0
220
0
230
1
0
CIRCLE
5
255
100
AcDbEntity
8
0
100
AcDbCircle
10
31.349999999999767
20
-6185.2500000000009
30
0
40
2
210
0
220
0
230
1
0
CIRCLE
5
256
100
AcDbEntity
8
0
100
AcDbCircle
10
296.34999999999991
20
-6185.2500000000009
30
0
40
2
210
0
220
0
230
1
0
CIRCLE
5
257
100
AcDbEntity
8
0
100
AcDbCircle
10
603.15000000000009
20
-6185.2500000000009
30
0
40
2
210
0
220
0
230
1
0
CIRCLE
5
258
100
AcDbEntity
8
0
100
AcDbCircle
10
280.44999999999982
20
-5894.3500000000004
30
0
40
2
210
0
220
0
230
1
0
CIRCLE
5
259
100
AcDbEntity
8
0
100
AcDbCircle
10
280.44999999999987
20
-6160.2500000000009
30
0
40
2
210
0
220
0
230
1
0
LWPOLYLINE
5
260
100
AcDbEntity
8
0
100
AcDbPolyline
90
47
70
1
43
0.0
10
1189.002319578987
20
-5792.5573310142991
42
0.41421356237306733
10
1190.5023195789868
20
-5794.0573310143
10
1237.502319578987
20
-5794.0573310143045
42
0.41421356237312279
10
1239.0023195789872
20
-5792.5573310143036
10
1239.0023195789872
20
-5787.8216791635386
42
-0.41421356237316775
10
1239.0023195789913
20
-5784.9573310143078
10
1241.8666677282133
20
-5784.9573310143032
10
1264.0023195789877
20
-5784.957331014306
10
1264.0023195789909
20
-5753.1573310143049
10
642.20231957899057
20
-5753.1573310142467
10
642.20231957896226
20
-6053.1573310142467
10
1024.0023195789624
20
-6053.157331014283
10
1024.0023195789647
20
-6031.0216791635194
10
1024.002319578969
20
-6028.1573310142867
42
-0.41421356237104617
10
1026.8666677281897
20
-6028.157331014283
10
1031.6023195789649
20
-6028.1573310142849
42
0.41421356237312279
10
1033.1023195789651
20
-6026.657331014284
10
1033.1023195789694
20
-5979.6573310142849
42
0.41421356237306733
10
1031.6023195789696
20
-5978.157331014283
10
1026.8666677282079
20
-5978.157331014283
42
-0.41421356237470802
10
1024.0023195789695
20
-5978.1573310142894
10
1024.0023195789697
20
-5975.2929828650595
10
1024.0023195789763
20
-5906.0216791635194
10
1024.0023195789809
20
-5903.1573310142867
42
-0.41421356237103157
10
1026.8666677282013
20
-5903.157331014283
10
1031.6023195789767
20
-5903.1573310142849
42
0.41421356237312279
10
1033.1023195789769
20
-5901.657331014284
10
1033.1023195789812
20
-5854.6573310142849
42
0.41421356237306733
10
1031.6023195789812
20
-5853.157331014283
10
1026.8666677282199
20
-5853.157331014283
42
-0.41421356237472257
10
1024.0023195789813
20
-5853.1573310142894
10
1024.0023195789815
20
-5850.2929828650595
10
1024.0023195789945
20
-5787.8216791635259
42
-0.99999999999999989
10
1026.8666677282133
20
-5784.9573310142841
10
1071.1379714297645
20
-5784.9573310142878
10
1074.0023195789847
20
-5784.9573310142914
42
-0.41421356237412676
10
1074.0023195789875
20
-5787.8216791635259
10
1074.002319578987
20
-5792.5573310142872
42
0.41421356237306733
10
1075.5023195789868
20
-5794.0573310142881
10
1122.502319578987
20
-5794.0573310142927
42
0.41421356237312279
10
1124.0023195789872
20
-5792.5573310142918
10
1124.0023195789877
20
-5787.8216791635296
42
-0.41421356237354551
10
1124.0023195789922
20
-5784.9573310142969
10
1126.866667728212
20
-5784.9573310142923
10
1186.1379714297659
20
-5784.9573310142987
10
1189.0023195789852
20
-5784.9573310143014
42
-0.41421356237431567
10
1189.0023195789875
20
-5787.8216791635386
0
CIRCLE
5
261
100
AcDbEntity
8
0
100
AcDbCircle
10
692.20231957898591
20
-5803.1573310142521
30
0
40
5
210
0
220
0
230
1
0
CIRCLE
5
262
100
AcDbEntity
8
0
100
AcDbCircle
10
974.00231957896722
20
-6003.1573310142794
30
0
40
5
210
0
220
0
230
1
0
CIRCLE
5
263
100
AcDbEntity
8
0
100
AcDbCircle
10
974.00231957898598
20
-5803.1573310142794
30
0
40
5
210
0
220
0
230
1
0
CIRCLE
5
264
100
AcDbEntity
8
0
100
AcDbCircle
10
692.20231957896715
20
-6003.1573310142521
30
0
40
5
210
0
220
0
230
1
0
ARC
5
265
100
AcDbEntity
8
0
100
AcDbCircle
10
7.4083402224174364
20
-6262.7870942826312
30
0
40
1.5000000000000002
210
0
220
0
230
1
100
AcDbArc
50
180
51
269.99999999999994
0
LINE
5
266
100
AcDbEntity
8
0
100
AcDbLine
10
21.243992073186448
20
-6264.2870942826312
30
0
11
7.4083402224174355
21
-6264.2870942826321
31
0
0
LWPOLYLINE
5
267
100
AcDbEntity
8
0
100
AcDbPolyline
90
8
70
1
43
0.0
10
299.1083402224175
20
-6213.7514424318624
42
0.99999999999999989
10
296.2439920731872
20
-6210.8870942826325
10
251.97268837164771
20
-6210.8870942826325
42
0.99999999999999989
10
249.1083402224175
20
-6213.7514424318624
10
249.1083402224175
20
-6217.1227461334011
42
0.99999999999999989
10
251.97268837164802
20
-6219.9870942826319
10
296.24399207318697
20
-6219.9870942826319
42
0.99999999999999989
10
299.1083402224175
20
-6217.1227461334011
0
LWPOLYLINE
5
268
100
AcDbEntity
8
0
100
AcDbPolyline
90
8
70
1
43
0.0
10
961.80834022241788
20
-6213.7514424318624
42
0.99999999999999989
10
958.94399207318759
20
-6210.8870942826325
10
914.67268837164795
20
-6210.8870942826325
42
0.99999999999999989
10
911.80834022241788
20
-6213.7514424318624
10
911.80834022241788
20
-6217.1227461334011
42
0.99999999999999989
10
914.67268837164829
20
-6219.9870942826319
10
958.94399207318747
20
-6219.9870942826319
42
0.99999999999999989
10
961.80834022241788
20
-6217.1227461334011
0
LINE
5
269
100
AcDbEntity
8
0
100
AcDbLine
10
5.9083402224174364
20
-6262.7870942826312
30
0
11
5.9083402224174364
21
-6240.7870942826312
31
0
0
ARC
5
270
100
AcDbEntity
8
0
100
AcDbCircle
10
22.676166147802206
20
-6237.8549202080158
30
0
40
2.0254000000001557
210
0
220
0
230
1
100
AcDbArc
50
268.46789819419718
51
314.99999999999659
0
LINE
5
271
100
AcDbEntity
8
0
100
AcDbLine
10
24.108340222417439
20
-6236.4227461334012
30
0
11
24.108340222417439
21
-6201.7870942826312
31
0
0
LINE
5
272
100
AcDbEntity
8
0
100
AcDbLine
10
24.108340222417439
20
-6201.7870942826312
30
0
11
1036.8083402224174
21
-6201.7870942826312
31
0
0
LINE
5
273
100
AcDbEntity
8
0
100
AcDbLine
10
1036.8083402224174
20
-6201.7870942826312
30
0
11
1036.8083402224174
21
-6236.4227461334012
31
0
0
ARC
5
274
100
AcDbEntity
8
0
100
AcDbCircle
10
1038.2405142970329
20
-6237.8549202080158
30
0
40
2.025399999999959
210
0
220
0
230
1
100
AcDbArc
50
225
51
314.99999999999091
0
LINE
5
275
100
AcDbEntity
8
0
100
AcDbLine
10
1039.6726883716478
20
-6239.2870942826312
30
0
11
1053.5083402224175
21
-6239.2870942826312
31
0
0
ARC
5
276
100
AcDbEntity
8
0
100
AcDbCircle
10
1053.5083402224175
20
-6240.7870942826321
30
0
40
1.5000000000000568
210
0
220
-0
230
1
100
AcDbArc
50
0
51
90
0
LINE
5
277
100
AcDbEntity
8
0
100
AcDbLine
10
1055.0083402224175
20
-6262.7870942826312
30
0
11
1055.0083402224175
21
-6240.7870942826321
31
0
0
ARC
5
278
100
AcDbEntity
8
0
100
AcDbCircle
10
1053.5083402224175
20
-6262.7870942826312
30
0
40
1.5000000000009095
210
-0
220
0
230
1
100
AcDbArc
50
-90
51
0
0
LINE
5
279
100
AcDbEntity
8
0
100
AcDbLine
10
1053.5083402224175
20
-6264.2870942826321
30
0
11
1039.6726883716485
21
-6264.2870942826312
31
0
0
ARC
5
280
100
AcDbEntity
8
0
100
AcDbCircle
10
1038.2405142970329
20
-6265.7192683572466
30
0
40
2.0254000000003609
210
0
220
-0
230
1
100
AcDbArc
50
44.99999999999546
51
135
0
LINE
5
281
100
AcDbEntity
8
0
100
AcDbLine
10
1036.8083402224174
20
-6267.1514424318611
30
0
11
1036.8083402224174
21
-6301.7870942826312
31
0
0
LINE
5
282
100
AcDbEntity
8
0
100
AcDbLine
10
24.108340222417439
20
-6301.7870942826312
30
0
11
1036.8083402224174
21
-6301.7870942826312
31
0
0
LINE
5
283
100
AcDbEntity
8
0
100
AcDbLine
10
24.108340222417439
20
-6301.7870942826312
30
0
11
24.108340222417439
21
-6267.1514424318611
31
0
0
ARC
5
284
100
AcDbEntity
8
0
100
AcDbCircle
10
22.676166147802206
20
-6265.7192683572466
30
0
40
2.0253999999999968
210
0
220
-0
230
1
100
AcDbArc
50
45.000000000003411
51
135.00000000000657
0
LINE
5
285
100
AcDbEntity
8
0
100
AcDbLine
10
5.9083402224174364
20
-6240.7870942826312
30
0
11
5.9083402224174364
21
-6239.2870942826312
31
0
0
LINE
5
286
100
AcDbEntity
8
0
100
AcDbLine
10
5.9083402224174364
20
-6239.2870942826312
30
0
11
21.243992073187442
21
-6239.2870942826312
31
0
0
SPLINE
5
287
100
AcDbEntity
8
0
100
AcDbSpline
70
0
71
3
72
17
73
13
74
0
42
0.000000001
43
0.0000000001
44
0.0000000001
40
0.0027652052715971677
40
0.0027652052715971677
40
0.0027652052715971677
40
0.0027652052715971677
40
0.0066542753563445948
40
0.0066542753563445948
40
0.0066542753563445948
40
0.090585249563133519
40
0.090585249563133519
40
0.1465510616846456
40
0.1465510616846456
40
0.19920817905118543
40
0.19920817905118543
40
0.25332759840104035
40
0.25332759840104035
40
0.25332759840104035
40
0.25332759840104035
10
21.243992073187442
20
-6239.2870942826312
30
0
10
21.243524177061005
20
-6239.2866263975111
30
0
10
21.244928083779811
20
-6239.2880298346445
30
0
10
21.245396432757467
20
-6239.2884972664651
30
0
10
21.255503986775906
20
-6239.2985850270761
30
0
10
21.317843231150274
20
-6239.3642922698646
30
0
10
21.508460902459973
20
-6239.5126436177579
30
0
10
21.607890090822703
20
-6239.5813948412633
30
0
10
21.848793998656724
20
-6239.7083292760617
30
0
10
21.983923314883029
20
-6239.7647318370036
30
0
10
22.288718151201117
20
-6239.8493712648415
30
0
10
22.453627497663927
20
-6239.8750923928128
30
0
10
22.622012958364351
20
-6239.8795961307442
30
0
0
LINE
5
288
100
AcDbEntity
8
0
100
AcDbLine
10
1036.8083402224174
20
-6267.1514424318611
30
0
11
1036.8083402224174
21
-6264.2870942826312
31
0
0
LINE
5
289
100
AcDbEntity
8
0
100
AcDbLine
10
24.108340222417439
20
-6236.4227461334012
30
0
11
24.108340222417468
21
-6239.2870942826312
31
0
0
LINE
5
290
100
AcDbEntity
8
0
100
AcDbLine
10
24.108340222417468
20
-6264.2870942826312
30
0
11
24.108340222417439
21
-6267.1514424318611
31
0
0
LINE
5
291
100
AcDbEntity
8
0
100
AcDbLine
10
1036.8083402224174
20
-6239.2870942826312
30
0
11
1036.8083402224174
21
-6236.4227461334012
31
0
0
CIRCLE
5
292
100
AcDbEntity
8
0
100
AcDbCircle
10
974.30834022241754
20
-6210.8870942826325
30
0
40
2
210
0
220
-0
230
1
0
CIRCLE
5
293
100
AcDbEntity
8
0
100
AcDbCircle
10
899.30834022241754
20
-6210.8870942826325
30
0
40
2
210
0
220
-0
230
1
0
CIRCLE
5
294
100
AcDbEntity
8
0
100
AcDbCircle
10
236.60834022241738
20
-6210.8870942826325
30
0
40
2
210
0
220
0
230
1
0
CIRCLE
5
295
100
AcDbEntity
8
0
100
AcDbCircle
10
311.60834022241738
20
-6210.8870942826325
30
0
40
2
210
0
220
0
230
1
0
CIRCLE
5
296
100
AcDbEntity
8
0
100
AcDbCircle
10
56.349999999999909
20
-6484.7663879569263
30
0
40
2
210
0
220
0
230
1
0
CIRCLE
5
297
100
AcDbEntity
8
0
100
AcDbCircle
10
1486.3499999999999
20
-6484.7663879569263
30
0
40
2
210
0
220
0
230
1
0
CIRCLE
5
298
100
AcDbEntity
8
0
100
AcDbCircle
10
1136.3499999999999
20
-6484.7663879569263
30
0
40
2
210
0
220
0
230
1
0
CIRCLE
5
299
100
AcDbEntity
8
0
100
AcDbCircle
10
406.34999999999997
20
-6484.7663879569263
30
0
40
2
210
0
220
0
230
1
0
LWPOLYLINE
5
300
100
AcDbEntity
8
0
100
AcDbPolyline
90
8
70
1
43
0.0
10
1466.4928571428572
20
-6318.8663879569267
10
1536.3499999999999
20
-6318.8663879569267
10
1536.3499999999999
20
-6493.8663879569267
10
6.3499999999997669
20
-6493.8663879569267
10
6.3499999999999091
20
-6318.8663879569267
10
76.207142857142856
20
-6318.8663879569267
10
76.207142857142856
20
-6418.8663879569267
10
1466.4928571428572
20
-6418.8663879569267
0
LWPOLYLINE
5
301
100
AcDbEntity
8
0
100
AcDbPolyline
90
24
70
1
43
0.0
10
83.906916566853369
20
-6370.9431887670044
42
0.41421356237309503
10
85.406916566853383
20
-6372.4431887670053
10
99.242568417623005
20
-6372.4431887670053
42
-0.41421356237308227
10
102.1069165668534
20
-6372.4431887670053
10
102.10691656685339
20
-6375.3075369162352
10
102.10691656685339
20
-6409.9431887670053
10
1114.8069165668535
20
-6409.9431887670053
10
1114.8069165668535
20
-6375.3075369162352
10
1114.8069165668535
20
-6372.4431887670053
42
-0.41421356237305146
10
1117.6712647160834
20
-6372.4431887670053
10
1131.5069165668533
20
-6372.4431887670053
42
0.41421356237309503
10
1133.0069165668533
20
-6370.9431887670044
10
1133.0069165668533
20
-6348.9431887670053
42
0.41421356237309503
10
1131.5069165668533
20
-6347.4431887670053
10
1117.6712647160839
20
-6347.4431887670053
42
-0.41421356237312412
10
1114.8069165668535
20
-6347.4431887670053
10
1114.8069165668535
20
-6344.5788406177744
10
1114.8069165668535
20
-6309.9431887670053
10
102.10691656685339
20
-6309.9431887670053
10
102.10691656685339
20
-6344.5788406177744
10
102.10691656685364
20
-6347.4431887670053
42
-0.41421356237315499
10
99.242568417622408
20
-6347.4431887670053
10
85.406916566853383
20
-6347.4431887670034
42
0.41421356237309503
10
83.906916566853369
20
-6348.9431887670053
0
LWPOLYLINE
5
302
100
AcDbEntity
8
0
100
AcDbPolyline
90
8
70
1
43
0.0
10
989.80691656685372
20
-6397.978840617774
42
0.99999999999999989
10
992.6712647160839
20
-6400.843188767004
10
1036.9425684176235
20
-6400.843188767004
42
0.99999999999999989
10
1039.8069165668537
20
-6397.978840617774
10
1039.8069165668537
20
-6394.6075369162354
42
0.99999999999999989
10
1036.9425684176233
20
-6391.7431887670045
10
992.67126471608412
20
-6391.7431887670045
42
0.99999999999999989
10
989.80691656685372
20
-6394.6075369162354
0
LWPOLYLINE
5
303
100
AcDbEntity
8
0
100
AcDbPolyline
90
8
70
1
43
0.0
10
327.10691656685344
20
-6397.978840617774
42
0.99999999999999989
10
329.97126471608368
20
-6400.843188767004
10
374.24256841762326
20
-6400.843188767004
42
0.99999999999999989
10
377.1069165668535
20
-6397.978840617774
10
377.10691656685344
20
-6394.6075369162354
42
0.99999999999999989
10
374.24256841762292
20
-6391.7431887670045
10
329.97126471608391
20
-6391.7431887670045
42
0.99999999999999989
10
327.10691656685344
20
-6394.6075369162354
0
CIRCLE
5
304
100
AcDbEntity
8
0
100
AcDbCircle
10
977.30691656685349
20
-6400.843188767004
30
0
40
2
210
0
220
0
230
1
0
CIRCLE
5
305
100
AcDbEntity
8
0
100
AcDbCircle
10
1052.3069165668535
20
-6400.843188767004
30
0
40
2
210
0
220
0
230
1
0
CIRCLE
5
306
100
AcDbEntity
8
0
100
AcDbCircle
10
389.60691656685327
20
-6400.843188767004
30
0
40
2
210
0
220
0
230
1
0
CIRCLE
5
307
100
AcDbEntity
8
0
100
AcDbCircle
10
314.60691656685333
20
-6400.843188767004
30
0
40
2
210
0
220
0
230
1
0
LWPOLYLINE
5
308
100
AcDbEntity
8
0
100
AcDbPolyline
90
8
70
1
43
0.0
10
1107.8629621920938
20
-6211.9196083780471
42
0.99999999999999989
10
1110.7273103413245
20
-6214.783956527277
10
1129.9986140428634
20
-6214.783956527277
42
0.99999999999999989
10
1132.8629621920941
20
-6211.9196083780471
10
1132.8629621920941
20
-6208.5483046765066
42
0.99999999999999989
10
1129.9986140428634
20
-6205.6839565272767
10
1110.7273103413243
20
-6205.6839565272767
42
0.99999999999999989
10
1107.8629621920938
20
-6208.5483046765066
0
LWPOLYLINE
5
309
100
AcDbEntity
8
0
100
AcDbPolyline
90
8
70
1
43
0.0
10
1408.962962192094
20
-6211.9196083780471
42
0.99999999999999989
10
1411.8273103413244
20
-6214.783956527277
10
1424.2986140428636
20
-6214.783956527277
42
0.99999999999999989
10
1427.162962192094
20
-6211.9196083780471
10
1427.162962192094
20
-6208.5483046765066
42
0.99999999999999989
10
1424.2986140428636
20
-6205.6839565272767
10
1411.8273103413244
20
-6205.6839565272767
42
0.99999999999999989
10
1408.962962192094
20
-6208.5483046765066
0
LWPOLYLINE
5
310
100
AcDbEntity
8
0
100
AcDbPolyline
90
8
70
1
43
0.0
10
1392.4986140428637
20
-6214.783956527277
42
0.99999999999999989
10
1395.3629621920941
20
-6211.9196083780471
10
1395.3629621920941
20
-6208.5483046765066
42
0.99999999999999989
10
1392.4986140428637
20
-6205.6839565272767
10
1380.0273103413244
20
-6205.6839565272767
42
0.99999999999999989
10
1377.162962192094
20
-6208.5483046765066
10
1377.162962192094
20
-6211.9196083780471
42
0.99999999999999989
10
1380.0273103413244
20
-6214.783956527277
0
LWPOLYLINE
5
311
100
AcDbEntity
8
0
100
AcDbPolyline
90
8
70
1
43
0.0
10
1657.4986140428637
20
-6214.783956527277
42
0.99999999999999989
10
1660.3629621920941
20
-6211.9196083780471
10
1660.3629621920941
20
-6208.5483046765066
42
0.99999999999999989
10
1657.4986140428637
20
-6205.6839565272767
10
1645.0273103413247
20
-6205.6839565272767
42
0.99999999999999989
10
1642.1629621920943
20
-6208.5483046765066
10
1642.1629621920943
20
-6211.9196083780471
42
0.99999999999999989
10
1645.0273103413247
20
-6214.783956527277
0
LWPOLYLINE
5
312
100
AcDbEntity
8
0
100
AcDbPolyline
90
10
70
1
43
0.0
10
1676.8273103413248
20
-6205.6839565272767
42
0.99999999999999989
10
1673.9629621920944
20
-6208.5483046765066
10
1673.9629621920944
20
-6211.9196083780471
42
0.99999999999999989
10
1676.8273103413248
20
-6214.783956527277
10
1692.1629621920943
20
-6214.783956527277
10
1692.1629621920943
20
-6223.8839565272774
10
1052.162962192094
20
-6223.8839565272774
10
1052.162962192094
20
-5838.8839565272774
10
1692.162962192094
20
-5838.8839565272774
10
1692.1629621920943
20
-6205.6839565272776
0
LWPOLYLINE
5
313
100
AcDbEntity
8
0
100
AcDbPolyline
90
8
70
1
43
0.0
10
1112.162962192094
20
-6183.8839565272774
10
1348.962962192094
20
-6183.8839565272774
42
0.4142135623730992
10
1368.9629621920944
20
-6163.8839565272774
10
1368.962962192094
20
-5898.8839565272774
42
0.4142135623730992
10
1348.962962192094
20
-5878.8839565272774
10
1112.162962192094
20
-5878.8839565272774
42
0.4142135623730992
10
1092.1629621920938
20
-5898.8839565272774
10
1092.162962192094
20
-6163.8839565272774
42
0.4142135623730992
0
LWPOLYLINE
5
314
100
AcDbEntity
8
0
100
AcDbPolyline
90
8
70
1
43
0.0
10
1457.1629621920943
20
-6183.8839565272774
10
1632.1629621920943
20
-6183.8839565272774
42
0.4142135623730992
10
1652.1629621920945
20
-6163.8839565272774
10
1652.1629621920943
20
-5898.8839565272774
42
0.4142135623730992
10
1632.162962192094
20
-5878.8839565272774
10
1457.1629621920943
20
-5878.8839565272774
42
0.41421356237310336
10
1437.1629621920938
20
-5898.8839565272774
10
1437.162962192094
20
-6163.8839565272774
42
0.41421356237310336
0
LWPOLYLINE
5
315
100
AcDbEntity
8
0
100
AcDbPolyline
90
7
70
1
43
0.0
10
1054.1198903757258
20
-5581.3500000000013
42
0.41421356237309503
10
1059.1198903757258
20
-5586.3500000000013
10
1412.6985341384166
20
-5586.3500000000013
42
-0.19891236737963977
10
1483.409212257071
20
-5615.6393218813455
10
1654.1198903757258
20
-5786.3500000000013
10
1654.1198903757258
20
-5286.3500000000013
10
1054.1198903757258
20
-5286.3500000000013
0
LWPOLYLINE
5
316
100
AcDbEntity
8
0
100
AcDbPolyline
90
8
70
1
43
0.0
10
1728.9587949339343
20
-5296.8616552573394
42
0.99999999999999989
10
1726.0944467847037
20
-5299.7260034065694
10
1726.0944467847037
20
-5303.0973071081089
42
0.99999999999999989
10
1728.9587949339341
20
-5305.9616552573389
10
1748.2300986354733
20
-5305.9616552573389
42
0.99999999999999989
10
1751.0944467847037
20
-5303.0973071081089
10
1751.0944467847037
20
-5299.7260034065694
42
0.99999999999999989
10
1748.230098635473
20
-5296.8616552573394
0
LWPOLYLINE
5
317
100
AcDbEntity
8
0
100
AcDbPolyline
90
8
70
1
43
0.0
10
2030.0587949339345
20
-5296.8616552573394
42
0.99999999999999989
10
2027.1944467847038
20
-5299.7260034065694
10
2027.1944467847038
20
-5303.0973071081089
42
0.99999999999999989
10
2030.0587949339342
20
-5305.9616552573389
10
2042.5300986354732
20
-5305.9616552573389
42
0.99999999999999989
10
2045.3944467847036
20
-5303.0973071081089
10
2045.3944467847036
20
-5299.7260034065694
42
0.99999999999999989
10
2042.530098635473
20
-5296.8616552573394
0
LWPOLYLINE
5
318
100
AcDbEntity
8
0
100
AcDbPolyline
90
8
70
1
43
0.0
10
1998.2587949339345
20
-5296.8616552573394
42
0.99999999999999989
10
1995.3944467847036
20
-5299.7260034065694
10
1995.3944467847036
20
-5303.0973071081089
42
0.99999999999999989
10
1998.258794933934
20
-5305.9616552573389
10
2010.7300986354735
20
-5305.9616552573389
42
0.99999999999999989
10
2013.5944467847039
20
-5303.0973071081089
10
2013.5944467847039
20
-5299.7260034065694
42
0.99999999999999989
10
2010.7300986354733
20
-5296.8616552573394
0
LWPOLYLINE
5
319
100
AcDbEntity
8
0
100
AcDbPolyline
90
10
70
1
43
0.0
10
2299.5782152900929
20
-5296.8616552573394
42
0.99999999999999989
10
2296.713867140862
20
-5299.7260034065694
10
2296.713867140862
20
-5303.0973071081089
42
0.99999999999999989
10
2299.5782152900929
20
-5305.9616552573389
10
2310.3944467847041
20
-5305.9616552573407
10
2310.3944467847036
20
-5672.76165525734
10
1670.3944467847036
20
-5672.76165525734
10
1670.3944467847036
20
-5287.76165525734
10
2310.3944467847041
20
-5287.76165525734
10
2310.3944467847036
20
-5296.8616552573394
0
LWPOLYLINE
5
320
100
AcDbEntity
8
0
100
AcDbPolyline
90
8
70
1
43
0.0
10
2272.5314633099583
20
-5305.9616552573389
42
0.99999999999999989
10
2275.3958114591887
20
-5303.0973071081089
10
2275.3958114591887
20
-5299.7260034065694
42
0.99999999999999989
10
2272.5314633099579
20
-5296.8616552573394
10
2263.2587949339345
20
-5296.8616552573394
42
0.99999999999999989
10
2260.3944467847036
20
-5299.7260034065694
10
2260.3944467847036
20
-5303.0973071081089
42
0.99999999999999989
10
2263.258794933934
20
-5305.9616552573389
0
LWPOLYLINE
5
321
100
AcDbEntity
8
0
100
AcDbPolyline
90
8
70
1
43
0.0
10
2075.3944467847036
20
-5632.76165525734
10
2250.3944467847036
20
-5632.76165525734
42
0.4142135623730992
10
2270.3944467847041
20
-5612.76165525734
10
2270.3944467847041
20
-5347.76165525734
42
0.4142135623730992
10
2250.3944467847036
20
-5327.76165525734
10
2075.3944467847036
20
-5327.76165525734
42
0.4142135623730992
10
2055.3944467847036
20
-5347.76165525734
10
2055.3944467847036
20
-5612.76165525734
42
0.4142135623730992
0
LWPOLYLINE
5
322
100
AcDbEntity
8
0
100
AcDbPolyline
90
8
70
1
43
0.0
10
1730.3944467847034
20
-5632.76165525734
10
1967.1944467847038
20
-5632.76165525734
42
0.4142135623730992
10
1987.194446784704
20
-5612.76165525734
10
1987.1944467847038
20
-5347.76165525734
42
0.4142135623730992
10
1967.1944467847038
20
-5327.76165525734
10
1730.3944467847036
20
-5327.76165525734
42
0.4142135623730992
10
1710.3944467847034
20
-5347.76165525734
10
1710.3944467847036
20
-5612.76165525734
42
0.41421356237309503
0
LWPOLYLINE
5
323
100
AcDbEntity
8
0
100
AcDbPolyline
90
20
70
1
43
0.0
10
2346.4668893651669
20
-5750.4616552573389
42
0.41421356237309503
10
2344.9668893651669
20
-5748.9616552573389
10
2340.2312375143961
20
-5748.9616552573398
42
-0.41421356237271723
10
2337.366889365167
20
-5748.9616552573398
10
2337.366889365167
20
-5680.7616552573381
10
1715.5668893651668
20
-5680.761655257339
10
1715.5668893651668
20
-6080.7616552573381
10
2337.366889365167
20
-6080.7616552573381
10
2337.3668893651661
20
-6030.7616552573372
42
-0.41421356237329848
10
2340.2312375143974
20
-6030.7616552573381
10
2344.9668893651669
20
-6030.761655257339
42
0.41421356237331708
10
2346.4668893651669
20
-6029.2616552573381
10
2346.4668893651669
20
-5982.261655257339
42
0.41421356237309503
10
2344.9668893651669
20
-5980.761655257339
10
2340.2312375143956
20
-5980.7616552573381
42
-0.41421356237268819
10
2337.366889365167
20
-5980.7616552573381
10
2337.3668893651661
20
-5798.9616552573389
42
-0.41421356237329848
10
2340.2312375143974
20
-5798.9616552573398
10
2344.9668893651669
20
-5798.9616552573389
42
0.41421356237309503
10
2346.4668893651669
20
-5797.4616552573389
0
LWPOLYLINE
5
324
100
AcDbEntity
8
0
100
AcDbPolyline
90
31
70
1
43
0.0
10
1721.4533424397939
20
-6213.761655257339
42
0.99999999999999989
10
1724.3176905890243
20
-6210.8973071081082
10
1724.3176905890243
20
-6166.626003406569
42
0.99999999999999989
10
1721.4533424397939
20
-6163.761655257339
10
1715.5668893651678
20
-6163.76165525734
10
1715.5668893651678
20
-6113.76165525734
10
1721.4533424397939
20
-6113.761655257339
42
0.99999999999999989
10
1724.3176905890243
20
-6110.8973071081082
10
1724.3176905890243
20
-6088.76165525734
10
2346.1176905890243
20
-6088.76165525734
10
2346.1176905890243
20
-6097.8616552573403
10
2333.9820387382547
20
-6097.8616552573394
42
0.99999999999999989
10
2331.1176905890243
20
-6100.7260034065703
10
2331.1176905890243
20
-6104.0973071081098
42
0.99999999999999989
10
2333.9820387382547
20
-6106.9616552573407
10
2346.1176905890243
20
-6106.9616552573389
10
2346.1176905890243
20
-6270.561655257341
10
2217.182038738255
20
-6270.5616552573392
42
0.99999999999999989
10
2214.3176905890241
20
-6273.4260034065701
10
2214.3176905890241
20
-6288.76165525734
10
2017.0176905890244
20
-6288.76165525734
10
2017.0176905890244
20
-6273.4260034065701
42
0.99999999999999989
10
2014.153342439794
20
-6270.5616552573392
10
1897.1820387382547
20
-6270.5616552573392
42
0.99999999999999989
10
1894.3176905890243
20
-6273.4260034065701
10
1894.3176905890243
20
-6288.76165525734
10
1724.3176905890243
20
-6288.76165525734
10
1724.3176905890243
20
-6266.626003406569
42
0.99999999999999989
10
1721.4533424397939
20
-6263.761655257339
10
1715.5668893651678
20
-6263.76165525734
10
1715.5668893651678
20
-6213.76165525734
0
LWPOLYLINE
5
325
100
AcDbEntity
8
0
100
AcDbPolyline
90
8
70
1
43
0.0
10
1991.1176905890243
20
-6100.7260034065703
42
0.99999999999999989
10
1988.2533424397939
20
-6097.8616552573394
10
1978.9820387382547
20
-6097.8616552573394
42
0.99999999999999989
10
1976.1176905890243
20
-6100.7260034065703
10
1976.1176905890243
20
-6104.0973071081098
42
0.99999999999999989
10
1978.9820387382547
20
-6106.9616552573407
10
1988.2533424397939
20
-6106.9616552573407
42
0.99999999999999989
10
1991.1176905890243
20
-6104.0973071081098
0
LWPOLYLINE
5
326
100
AcDbEntity
8
0
100
AcDbPolyline
90
8
70
1
43
0.0
10
2013.9820387382547
20
-6097.8616552573394
42
0.99999999999999989
10
2011.1176905890243
20
-6100.7260034065703
10
2011.1176905890243
20
-6104.0973071081098
42
0.99999999999999989
10
2013.9820387382547
20
-6106.9616552573407
10
2023.2533424397936
20
-6106.9616552573407
42
0.99999999999999989
10
2026.1176905890243
20
-6104.0973071081098
10
2026.1176905890243
20
-6100.7260034065703
42
0.99999999999999989
10
2023.2533424397936
20
-6097.8616552573394
0
LWPOLYLINE
5
327
100
AcDbEntity
8
0
100
AcDbPolyline
90
8
70
1
43
0.0
10
2041.4533424397939
20
-6238.761655257339
42
0.99999999999999989
10
2044.3176905890243
20
-6235.8973071081082
10
2044.3176905890243
20
-6141.626003406569
42
0.99999999999999989
10
2041.4533424397939
20
-6138.761655257339
10
2028.9820387382545
20
-6138.761655257339
42
0.99999999999999989
10
2026.1176905890241
20
-6141.626003406569
10
2026.1176905890241
20
-6235.8973071081082
42
0.99999999999999989
10
2028.9820387382545
20
-6238.761655257339
0
LWPOLYLINE
5
328
100
AcDbEntity
8
0
100
AcDbPolyline
90
8
70
1
43
0.0
10
2298.9820387382547
20
-6097.8616552573394
42
0.99999999999999989
10
2296.1176905890243
20
-6100.7260034065703
10
2296.1176905890243
20
-6104.0973071081098
42
0.99999999999999989
10
2298.9820387382547
20
-6106.9616552573407
10
2308.2533424397939
20
-6106.9616552573407
42
0.99999999999999989
10
2311.1176905890243
20
-6104.0973071081098
10
2311.1176905890243
20
-6100.7260034065703
42
0.99999999999999989
10
2308.2533424397939
20
-6097.8616552573394
0
LWPOLYLINE
5
329
100
AcDbEntity
8
0
100
AcDbPolyline
90
31
70
1
43
0.0
10
7.8499999999997527
20
-6185.2500000000009
42
0.41421356237355722
10
6.3499999999998868
20
-6186.7500000000009
10
6.3499999999997669
20
-6194.3500000000004
10
628.15000000000009
20
-6194.3500000000004
10
628.15000000000009
20
-5744.3500000000004
10
271.34999999999997
20
-5744.3500000000004
10
271.34999999999997
20
-5792.8500000000004
42
0.41421356237321988
10
272.84999999999991
20
-5794.3500000000004
10
286.68565185076926
20
-5794.3500000000004
42
-0.99999999999999989
10
289.54999999999978
20
-5797.2143481492312
10
289.54999999999973
20
-5841.4856518507704
42
-0.99999999999999989
10
286.68565185076926
20
-5844.3500000000004
10
272.84999999999991
20
-5844.3500000000004
42
0.41421356237321988
10
271.34999999999945
20
-5845.8500000000004
10
271.34999999999991
20
-5942.8500000000004
42
0.41421356237321988
10
272.84999999999991
20
-5944.3500000000004
10
286.68565185076972
20
-5944.3500000000004
42
-0.99999999999999989
10
289.54999999999984
20
-5947.2143481492312
10
289.55000000000001
20
-5991.4856518507704
42
-0.99999999999999989
10
286.68565185076937
20
-5994.3500000000004
10
274.21434814923077
20
-5994.3500000000004
42
-0.99999999999999989
10
271.34999999999991
20
-5991.4856518507704
10
271.34999999999991
20
-5985.8500000000004
42
0.41421356237321988
10
269.84999999999991
20
-5984.3500000000004
10
6.3500000000000512
20
-5984.3500000000004
10
6.3499999999997776
20
-6174.6500000000005
42
0.41421356237355722
10
7.8499999999997527
20
-6176.1499999999996
10
21.685651850769624
20
-6176.1500000000015
42
-0.99999999999999989
10
24.549999999999507
20
-6179.0143481492314
10
24.549999999999702
20
-6182.385651850771
42
-0.99999999999999989
10
21.685651850768984
20
-6185.2500000000009
0
LWPOLYLINE
5
330
100
AcDbEntity
8
0
100
AcDbPolyline
90
8
70
1
43
0.0
10
286.68565185076937
20
-6144.3500000000004
42
0.99999999999999989
10
289.5499999999999
20
-6141.4856518507704
10
289.54999999999984
20
-6097.2143481492312
42
0.99999999999999989
10
286.68565185076943
20
-6094.3500000000004
10
274.21434814923043
20
-6094.3500000000004
42
0.99999999999999989
10
271.34999999999991
20
-6097.2143481492312
10
271.34999999999991
20
-6141.4856518507704
42
0.99999999999999989
10
274.21434814923043
20
-6144.3500000000004
0
LWPOLYLINE
5
331
100
AcDbEntity
8
0
100
AcDbPolyline
90
8
70
1
43
0.0
10
565.6500000000002
20
-6182.385651850771
42
0.99999998946328783
10
568.5143481492305
20
-6185.2500000000009
10
587.78565185076923
20
-6185.2500000000009
42
0.99999999999999989
10
590.64999999999998
20
-6182.385651850771
10
590.64999999999975
20
-6179.0143481492314
42
0.99999998946328783
10
587.785651850769
20
-6176.1499999999996
10
568.51434814923107
20
-6176.1500000000015
42
1.0000000105367122
10
565.65000000000009
20
-6179.0143481492305
0
LWPOLYLINE
5
332
100
AcDbEntity
8
0
100
AcDbPolyline
90
8
70
1
43
0.0
10
303.15000000000009
20
-6182.385651850771
42
0.99999999999999989
10
306.01434814923044
20
-6185.2500000000009
10
318.4856518507691
20
-6185.2500000000009
42
0.99999999999999989
10
321.34999999999991
20
-6182.385651850771
10
321.35000000000019
20
-6179.0143481492296
42
0.99999999999999989
10
318.48565185076887
20
-6176.1499999999996
10
306.01434814923107
20
-6176.1500000000015
42
0.99999999999999989
10
303.14999999999998
20
-6179.0143481492305
0
LWPOLYLINE
5
333
100
AcDbEntity
8
0
100
AcDbPolyline
90
8
70
1
43
0.0
10
289.55000000000013
20
-6179.0143481492296
42
0.99999998946328783
10
286.68565185076989
20
-6176.1499999999987
10
274.214348149231
20
-6176.1499999999996
42
0.99999999999999989
10
271.34999999999991
20
-6179.0143481492305
10
271.35000000000002
20
-6182.385651850771
42
0.99999999999999989
10
274.21434814923077
20
-6185.2500000000009
10
286.68565185076909
20
-6185.2500000000009
42
0.99999999999999989
10
289.54999999999984
20
-6182.385651850771
0
LWPOLYLINE
5
334
100
AcDbEntity
8
0
100
AcDbPolyline
90
8
70
1
43
0.0
10
38.149999999999913
20
-6182.385651850771
42
0.99999999999999989
10
41.014348149230379
20
-6185.2500000000009
10
53.485651850768974
20
-6185.2500000000009
42
0.99999999999999989
10
56.349999999999767
20
-6182.385651850771
10
56.349999999999497
20
-6179.0143481492314
42
0.99999998946328783
10
53.485651850768789
20
-6176.1499999999996
10
41.014348149230806
20
-6176.1499999999996
42
0.99999998946328783
10
38.149999999999764
20
-6179.0143481492305
0
CIRCLE
5
335
100
AcDbEntity
8
0
100
AcDbCircle
10
558.14999999999998
20
-5760.2744227302428
30
0
40
11.500000000000002
210
0
220
-0
230
1
0
CIRCLE
5
336
100
AcDbEntity
8
0
100
AcDbCircle
10
31.349999999999767
20
-6185.2500000000009
30
0
40
2
210
-0
220
0
230
1
0
CIRCLE
5
337
100
AcDbEntity
8
0
100
AcDbCircle
10
296.34999999999991
20
-6185.2500000000009
30
0
40
2
210
-0
220
0
230
1
0
CIRCLE
5
338
100
AcDbEntity
8
0
100
AcDbCircle
10
280.44999999999987
20
-6160.2500000000009
30
0
40
2
210
-0
220
0
230
1
0
CIRCLE
5
339
100
AcDbEntity
8
0
100
AcDbCircle
10
280.44999999999987
20
-6044.3500000000004
30
0
40
2
210
-0
220
0
230
1
0
CIRCLE
5
340
100
AcDbEntity
8
0
100
AcDbCircle
10
280.44999999999987
20
-5769.3500000000004
30
0
40
2
210
-0
220
0
230
1
0
CIRCLE
5
341
100
AcDbEntity
8
0
100
AcDbCircle
10
280.44999999999982
20
-5894.3500000000004
30
0
40
2
210
-0
220
0
230
1
0
CIRCLE
5
342
100
AcDbEntity
8
0
100
AcDbCircle
10
608.14999999999998
20
-5783.4500000000007
30
0
40
5
210
-0
220
0
230
1
0
CIRCLE
5
343
100
AcDbEntity
8
0
100
AcDbCircle
10
153.84999999999991
20
-6004.3500000000004
30
0
40
5
210
-0
220
0
230
1
0
CIRCLE
5
344
100
AcDbEntity
8
0
100
AcDbCircle
10
26.349999999999909
20
-6089.3500000000004
30
0
40
5
210
-0
220
0
230
1
0
CIRCLE
5
345
100
AcDbEntity
8
0
100
AcDbCircle
10
153.84999999999991
20
-6174.3500000000004
30
0
40
5
210
-0
220
0
230
1
0
CIRCLE
5
346
100
AcDbEntity
8
0
100
AcDbCircle
10
304.00453840295688
20
-5788.2260292630799
30
0
40
5
210
-0
220
0
230
1
0
LWPOLYLINE
5
347
100
AcDbEntity
8
0
100
AcDbPolyline
90
8
70
1
43
0.0
10
349.54999999999984
20
-5812.5500000000011
10
568.14999999999998
20
-5812.5500000000011
42
-0.41421356237309503
10
588.14999999999998
20
-5832.5500000000011
10
588.15000000000009
20
-6134.3500000000022
42
-0.41421356237307838
10
568.15000000000009
20
-6154.3500000000004
10
349.5499999999999
20
-6154.3500000000004
42
-0.41421356237309609
10
329.54999999999984
20
-6134.3500000000004
10
329.54999999999984
20
-5832.5500000000011
42
-0.41421356237309503
0
LWPOLYLINE
5
348
100
AcDbEntity
8
0
100
AcDbPolyline
90
8
70
1
43
0.0
10
66.349999999999909
20
-6024.3500000000004
10
241.34999999999991
20
-6024.3500000000004
42
-0.41421356237309503
10
261.34999999999991
20
-6044.3500000000004
10
261.34999999999991
20
-6134.3500000000004
42
-0.41421356237309503
10
241.34999999999991
20
-6154.3500000000004
10
66.349999999999909
20
-6154.3500000000004
42
-0.41421356237309503
10
46.349999999999909
20
-6134.3500000000004
10
46.349999999999909
20
-6044.3500000000004
42
-0.41421356237309503
0
CIRCLE
5
349
100
AcDbEntity
8
0
100
AcDbCircle
10
553.15000000000009
20
-6185.2500000000009
30
0
40
2
210
-0
220
0
230
1
0
CIRCLE
5
350
100
AcDbEntity
8
0
100
AcDbCircle
10
603.15000000000009
20
-6185.2500000000009
30
0
40
2
210
-0
220
0
230
1
0
LWPOLYLINE
5
351
100
AcDbEntity
8
0
100
AcDbPolyline
90
8
70
1
43
0.0
10
989.80691656685349
20
-6397.978840617774
42
0.99999999999999989
10
992.67126471608424
20
-6400.843188767004
10
1036.9425684176235
20
-6400.843188767004
42
0.99999999999999989
10
1039.8069165668537
20
-6397.978840617774
10
1039.8069165668537
20
-6394.6075369162354
42
0.99999999999999989
10
1036.9425684176233
20
-6391.7431887670045
10
992.67126471608412
20
-6391.7431887670045
42
0.99999999999999989
10
989.80691656685372
20
-6394.6075369162354
0
LWPOLYLINE
5
352
100
AcDbEntity
8
0
100
AcDbPolyline
90
8
70
1
43
0.0
10
327.10691656685333
20
-6397.978840617774
42
0.99999998946328783
10
329.97126471608362
20
-6400.843188767004
10
374.2425684176232
20
-6400.843188767004
42
0.99999999999999989
10
377.10691656685344
20
-6397.978840617774
10
377.1069165668535
20
-6394.6075369162354
42
0.99999999999999989
10
374.24256841762292
20
-6391.7431887670045
10
329.97126471608397
20
-6391.7431887670045
42
0.99999999999999989
10
327.10691656685344
20
-6394.6075369162354
0
CIRCLE
5
353
100
AcDbEntity
8
0
100
AcDbCircle
10
389.60691656685327
20
-6400.843188767004
30
0
40
2
210
0
220
-0
230
1
0
CIRCLE
5
354
100
AcDbEntity
8
0
100
AcDbCircle
10
314.60691656685333
20
-6400.843188767004
30
0
40
2
210
0
220
-0
230
1
0
LWPOLYLINE
5
355
100
AcDbEntity
8
0
100
AcDbPolyline
90
4
70
1
43
0.0
10
102.10691656685339
20
-6409.9431887670053
10
1114.8069165668535
20
-6409.9431887670053
10
1114.8069165668535
20
-6309.9431887670053
10
102.10691656685327
20
-6309.9431887670053
0
CIRCLE
5
356
100
AcDbEntity
8
0
100
AcDbCircle
10
977.30691656685349
20
-6400.843188767004
30
0
40
2
210
0
220
-0
230
1
0
CIRCLE
5
357
100
AcDbEntity
8
0
100
AcDbCircle
10
1052.3069165668535
20
-6400.843188767004
30
0
40
2
210
0
220
-0
230
1
0
CIRCLE
5
358
100
AcDbEntity
8
0
100
AcDbCircle
10
974.30834022241754
20
-6210.8870942826325
30
0
40
2
210
0
220
0
230
1
0
CIRCLE
5
359
100
AcDbEntity
8
0
100
AcDbCircle
10
899.30834022241754
20
-6210.8870942826325
30
0
40
2
210
0
220
0
230
1
0
LWPOLYLINE
5
360
100
AcDbEntity
8
0
100
AcDbPolyline
90
4
70
1
43
0.0
10
1036.8083402224174
20
-6201.7870942826312
10
24.108340222417439
20
-6201.7870942826312
10
24.108340222417439
20
-6301.7870942826312
10
1036.8083402224174
20
-6301.7870942826312
0
CIRCLE
5
361
100
AcDbEntity
8
0
100
AcDbCircle
10
311.60834022241738
20
-6210.8870942826325
30
0
40
2
210
0
220
0
230
1
0
CIRCLE
5
362
100
AcDbEntity
8
0
100
AcDbCircle
10
236.60834022241738
20
-6210.8870942826325
30
0
40
2
210
0
220
0
230
1
0
LWPOLYLINE
5
363
100
AcDbEntity
8
0
100
AcDbPolyline
90
8
70
1
43
0.0
10
299.10834022241767
20
-6213.7514424318624
42
0.99999999999999989
10
296.24399207318692
20
-6210.8870942826325
10
251.97268837164771
20
-6210.8870942826325
42
0.99999999999999989
10
249.1083402224175
20
-6213.7514424318624
10
249.1083402224175
20
-6217.1227461334011
42
0.99999999999999989
10
251.97268837164802
20
-6219.9870942826319
10
296.24399207318697
20
-6219.9870942826319
42
0.99999999999999989
10
299.1083402224175
20
-6217.1227461334011
0
LWPOLYLINE
5
364
100
AcDbEntity
8
0
100
AcDbPolyline
90
8
70
1
43
0.0
10
961.808340222418
20
-6213.7514424318624
42
0.99999999999999989
10
958.94399207318725
20
-6210.8870942826325
10
914.67268837164795
20
-6210.8870942826325
42
0.99999999999999989
10
911.80834022241788
20
-6213.7514424318624
10
911.80834022241788
20
-6217.1227461334011
42
0.99999999999999989
10
914.67268837164829
20
-6219.9870942826319
10
958.94399207318747
20
-6219.9870942826319
42
0.99999999999999989
10
961.80834022241788
20
-6217.1227461334011
0
LWPOLYLINE
5
365
100
AcDbEntity
8
0
100
AcDbPolyline
90
8
70
1
43
0.0
10
1107.8629621920941
20
-6211.9196083780471
42
0.99999999999999989
10
1110.7273103413243
20
-6214.783956527277
10
1129.9986140428634
20
-6214.783956527277
42
0.99999999999999989
10
1132.8629621920938
20
-6211.919608378048
10
1132.8629621920938
20
-6208.5483046765066
42
0.99999999999999989
10
1129.9986140428634
20
-6205.6839565272776
10
1110.7273103413243
20
-6205.6839565272767
42
0.99999999999999989
10
1107.8629621920938
20
-6208.5483046765066
0
LWPOLYLINE
5
366
100
AcDbEntity
8
0
100
AcDbPolyline
90
8
70
1
43
0.0
10
1408.9629621920944
20
-6211.9196083780471
42
0.99999999999999989
10
1411.8273103413242
20
-6214.783956527277
10
1424.2986140428638
20
-6214.783956527277
42
0.99999999999999989
10
1427.162962192094
20
-6211.919608378048
10
1427.162962192094
20
-6208.5483046765066
42
0.99999999999999989
10
1424.2986140428634
20
-6205.6839565272776
10
1411.8273103413244
20
-6205.6839565272767
42
0.99999999999999989
10
1408.962962192094
20
-6208.5483046765066
0
LWPOLYLINE
5
367
100
AcDbEntity
8
0
100
AcDbPolyline
90
8
70
1
43
0.0
10
1392.4986140428637
20
-6214.783956527277
42
0.99999999999999989
10
1395.3629621920941
20
-6211.9196083780471
10
1395.3629621920938
20
-6208.5483046765066
42
0.99999999999999989
10
1392.4986140428637
20
-6205.6839565272776
10
1380.0273103413244
20
-6205.6839565272767
42
0.99999999999999989
10
1377.162962192094
20
-6208.5483046765066
10
1377.1629621920943
20
-6211.9196083780471
42
0.99999999999999989
10
1380.0273103413247
20
-6214.783956527277
0
LWPOLYLINE
5
368
100
AcDbEntity
8
0
100
AcDbPolyline
90
8
70
1
43
0.0
10
1427.162962192094
20
-6126.7483046765074
42
0.99999999999999989
10
1424.2986140428636
20
-6123.8839565272774
10
1411.8273103413244
20
-6123.8839565272774
42
0.99999999999999989
10
1408.962962192094
20
-6126.7483046765074
10
1408.9629621920944
20
-6171.0196083780465
42
0.99999999999999989
10
1411.8273103413242
20
-6173.8839565272774
10
1424.2986140428638
20
-6173.8839565272774
42
0.99999999999999989
10
1427.162962192094
20
-6171.0196083780465
0
LWPOLYLINE
5
369
100
AcDbEntity
8
0
100
AcDbPolyline
90
8
70
1
43
0.0
10
1427.162962192094
20
-5891.7483046765074
42
0.99999999999999989
10
1424.2986140428641
20
-5888.8839565272774
10
1411.8273103413251
20
-5888.8839565272774
42
0.99999999999999989
10
1408.962962192094
20
-5891.7483046765074
10
1408.9629621920944
20
-5936.0196083780465
42
0.99999999999999989
10
1411.8273103413248
20
-5938.8839565272774
10
1424.2986140428638
20
-5938.8839565272774
42
0.99999999999999989
10
1427.162962192094
20
-5936.0196083780465
0
LWPOLYLINE
5
370
100
AcDbEntity
8
0
100
AcDbPolyline
90
8
70
1
43
0.0
10
1657.4986140428641
20
-6214.783956527277
42
0.99999999999999989
10
1660.3629621920938
20
-6211.9196083780471
10
1660.3629621920945
20
-6208.5483046765066
42
0.99999999999999989
10
1657.4986140428637
20
-6205.6839565272776
10
1645.0273103413247
20
-6205.6839565272767
42
0.99999999999999989
10
1642.1629621920943
20
-6208.5483046765066
10
1642.1629621920943
20
-6211.9196083780471
42
0.99999999999999989
10
1645.0273103413247
20
-6214.783956527277
0
LWPOLYLINE
5
371
100
AcDbEntity
8
0
100
AcDbPolyline
90
10
70
1
43
0.0
10
1676.8273103413244
20
-6205.6839565272767
42
0.99999999999999989
10
1673.9629621920947
20
-6208.5483046765066
10
1673.9629621920944
20
-6211.9196083780471
42
0.99999999999999989
10
1676.8273103413248
20
-6214.783956527277
10
1692.1629621920943
20
-6214.783956527277
10
1692.1629621920943
20
-6223.8839565272774
10
1052.162962192094
20
-6223.8839565272774
10
1052.1629621920938
20
-5838.8839565272774
10
1692.162962192094
20
-5838.8839565272774
10
1692.1629621920943
20
-6205.6839565272776
0
LWPOLYLINE
5
372
100
AcDbEntity
8
0
100
AcDbPolyline
90
8
70
1
43
0.0
10
1348.962962192094
20
-6183.8839565272774
10
1112.162962192094
20
-6183.8839565272774
42
-0.41421356237309503
10
1092.162962192094
20
-6163.8839565272774
10
1092.162962192094
20
-5898.8839565272774
42
-0.41421356237309503
10
1112.162962192094
20
-5878.8839565272774
10
1348.962962192094
20
-5878.8839565272774
42
-0.41421356237309503
10
1368.962962192094
20
-5898.8839565272774
10
1368.962962192094
20
-6163.8839565272774
42
-0.41421356237309503
0
LWPOLYLINE
5
373
100
AcDbEntity
8
0
100
AcDbPolyline
90
8
70
1
43
0.0
10
1632.1629621920943
20
-6183.8839565272774
10
1457.1629621920943
20
-6183.8839565272774
42
-0.4142135623730992
10
1437.162962192094
20
-6163.8839565272774
10
1437.162962192094
20
-5898.8839565272774
42
-0.41421356237309503
10
1457.162962192094
20
-5878.8839565272774
10
1632.162962192094
20
-5878.8839565272774
42
-0.41421356237309503
10
1652.162962192094
20
-5898.8839565272774
10
1652.1629621920943
20
-6163.8839565272774
42
-0.41421356237309503
0
LWPOLYLINE
5
374
100
AcDbEntity
8
0
100
AcDbPolyline
90
35
70
1
43
0.0
10
2346.4668893651669
20
-5750.4616552573389
42
0.41421356237320606
10
2344.9668893651669
20
-5748.9616552573389
10
2340.2312374842149
20
-5748.9616552875168
42
-0.99999998946328783
10
2337.366889365167
20
-5746.0973071081062
10
2337.366889365167
20
-5698.9616552573389
10
2290.2312375143965
20
-5698.961655257337
42
-0.99999999999999989
10
2287.366889365167
20
-5696.0973071081044
10
2287.3668893651652
20
-5692.7260034065675
42
-0.99999999999999989
10
2290.2312375143974
20
-5689.8616552573385
10
2337.366889365167
20
-5689.8616552573385
10
2337.366889365167
20
-5680.7616552573381
10
1715.5668893651671
20
-5680.7616552573381
10
1715.5668893651668
20
-5880.7616552573381
10
1762.7025412159364
20
-5880.7616552573363
42
-0.99999999999999989
10
1765.5668893651668
20
-5883.6260034065663
10
1765.5668893651657
20
-5896.0973071081044
42
-0.99999999999999989
10
1762.7025412159364
20
-5898.961655257337
10
1715.5668893651668
20
-5898.961655257337
10
1715.5668893651671
20
-6062.5616552573392
10
1862.7025412159355
20
-6062.5616552573392
42
-0.99999999999999989
10
1865.5668893651671
20
-6065.4260034065665
10
1865.5668893651668
20
-6080.7616552573381
10
2337.366889365167
20
-6080.7616552573381
10
2337.3668893651657
20
-6033.6260034065663
42
-0.99999999999999989
10
2340.2312375143974
20
-6030.7616552573381
10
2344.9668893651669
20
-6030.7616552573381
42
0.41421356237342799
10
2346.4668893651669
20
-6029.2616552573363
10
2346.4668893651669
20
-5982.2616552573363
42
0.41421356237320606
10
2344.9668893651669
20
-5980.7616552573372
10
2340.2312375143956
20
-5980.7616552573372
42
-0.99999999999999989
10
2337.3668893651666
20
-5977.8973071081064
10
2337.3668893651657
20
-5801.8260034065679
42
-0.99999999999999989
10
2340.2312375143974
20
-5798.9616552573398
10
2344.9668893651669
20
-5798.961655257337
42
0.41421356237342799
10
2346.4668893651669
20
-5797.4616552573352
0
LWPOLYLINE
5
375
100
AcDbEntity
8
0
100
AcDbPolyline
90
8
70
1
43
0.0
10
2060.5668893651668
20
-6068.7973071081078
42
0.99999999999999989
10
2063.4312375143959
20
-6071.6616552573387
10
2157.7025412159364
20
-6071.6616552573396
42
0.99999999999999989
10
2160.5668893651668
20
-6068.797307108106
10
2160.5668893651668
20
-6065.4260034065665
42
0.99999999999999989
10
2157.7025412159351
20
-6062.5616552573392
10
2063.4312375143977
20
-6062.5616552573392
42
0.99999999999999989
10
2060.5668893651668
20
-6065.4260034065692
0
LWPOLYLINE
5
376
100
AcDbEntity
8
0
100
AcDbPolyline
90
8
70
1
43
0.0
10
2032.7025412159364
20
-6030.7616552573381
42
0.99999999999999989
10
2035.5668893651657
20
-6027.8973071081055
10
2035.5668893651668
20
-5933.6260034065663
42
0.99999999999999989
10
2032.7025412159355
20
-5930.7616552573381
10
2020.231237514397
20
-5930.7616552573372
42
0.99999999999999989
10
2017.3668893651668
20
-5933.6260034065672
10
2017.3668893651666
20
-6027.8973071081064
42
0.99999999999999989
10
2020.2312375143965
20
-6030.7616552573381
0
LWPOLYLINE
5
377
100
AcDbEntity
8
0
100
AcDbPolyline
90
8
70
1
43
0.0
10
2038.4312375143982
20
-5880.7616552573381
42
0.99999999999999989
10
2035.5668893651648
20
-5883.6260034065663
10
2035.5668893651668
20
-5896.0973071081062
42
0.99999999999999989
10
2038.4312375143966
20
-5898.961655257337
10
2082.7025412159364
20
-5898.961655257337
42
0.99999999999999989
10
2085.5668893651668
20
-5896.0973071081071
10
2085.5668893651668
20
-5883.6260034065663
42
0.99999999999999989
10
2082.7025412159351
20
-5880.7616552573381
0
LWPOLYLINE
5
378
100
AcDbEntity
8
0
100
AcDbPolyline
90
31
70
1
43
0.0
10
1721.4533424397939
20
-6213.761655257339
42
0.99999999999999989
10
1724.3176905890243
20
-6210.8973071081082
10
1724.3176905890243
20
-6166.626003406569
42
0.99999999999999989
10
1721.4533424397939
20
-6163.76165525734
10
1715.5668893651678
20
-6163.76165525734
10
1715.5668893651678
20
-6113.76165525734
10
1721.4533424397939
20
-6113.761655257339
42
0.99999999999999989
10
1724.3176905890243
20
-6110.8973071081091
10
1724.3176905890243
20
-6088.76165525734
10
2346.1176905890243
20
-6088.7616552573409
10
2346.1176905890243
20
-6097.8616552573403
10
2333.9820387382551
20
-6097.8616552573403
42
0.99999999999999989
10
2331.1176905890243
20
-6100.7260034065712
10
2331.1176905890247
20
-6104.0973071081098
42
0.99999999999999989
10
2333.9820387382547
20
-6106.9616552573389
10
2346.1176905890243
20
-6106.9616552573407
10
2346.1176905890243
20
-6270.561655257341
10
2217.182038738255
20
-6270.5616552573392
42
0.99999999999999989
10
2214.3176905890241
20
-6273.4260034065701
10
2214.3176905890241
20
-6288.76165525734
10
2017.0176905890244
20
-6288.7616552573409
10
2017.0176905890244
20
-6273.4260034065701
42
0.99999999999999989
10
2014.1533424397937
20
-6270.561655257341
10
1897.1820387382547
20
-6270.5616552573392
42
0.99999999999999989
10
1894.3176905890243
20
-6273.4260034065701
10
1894.3176905890243
20
-6288.76165525734
10
1724.3176905890243
20
-6288.76165525734
10
1724.3176905890243
20
-6266.626003406569
42
0.99999999999999989
10
1721.4533424397939
20
-6263.76165525734
10
1715.5668893651678
20
-6263.76165525734
10
1715.5668893651678
20
-6213.76165525734
0
LWPOLYLINE
5
379
100
AcDbEntity
8
0
100
AcDbPolyline
90
8
70
1
43
0.0
10
1991.1176905890243
20
-6100.7260034065703
42
0.99999999999999989
10
1988.2533424397939
20
-6097.8616552573394
10
1978.9820387382547
20
-6097.8616552573394
42
0.99999999999999989
10
1976.1176905890243
20
-6100.7260034065703
10
1976.1176905890243
20
-6104.0973071081098
42
0.99999999999999989
10
1978.9820387382547
20
-6106.9616552573389
10
1988.2533424397939
20
-6106.9616552573407
42
0.99999999999999989
10
1991.1176905890243
20
-6104.0973071081098
0
LWPOLYLINE
5
380
100
AcDbEntity
8
0
100
AcDbPolyline
90
8
70
1
43
0.0
10
2013.9820387382547
20
-6097.8616552573394
42
0.99999999999999989
10
2011.1176905890243
20
-6100.7260034065703
10
2011.1176905890243
20
-6104.0973071081098
42
0.99999999999999989
10
2013.9820387382547
20
-6106.9616552573389
10
2023.2533424397934
20
-6106.9616552573407
42
0.99999999999999989
10
2026.1176905890243
20
-6104.0973071081098
10
2026.1176905890241
20
-6100.7260034065703
42
0.99999999999999989
10
2023.2533424397934
20
-6097.8616552573403
0
LWPOLYLINE
5
381
100
AcDbEntity
8
0
100
AcDbPolyline
90
8
70
1
43
0.0
10
2041.4533424397939
20
-6238.761655257339
42
0.99999999999999989
10
2044.3176905890243
20
-6235.8973071081082
10
2044.3176905890243
20
-6141.626003406569
42
0.99999999999999989
10
2041.4533424397939
20
-6138.76165525734
10
2028.9820387382551
20
-6138.76165525734
42
0.99999999999999989
10
2026.1176905890243
20
-6141.6260034065717
10
2026.1176905890247
20
-6235.8973071081082
42
1.0000000105367122
10
2028.9820387382547
20
-6238.76165525734
0
LWPOLYLINE
5
382
100
AcDbEntity
8
0
100
AcDbPolyline
90
8
70
1
43
0.0
10
2298.9820387382551
20
-6097.8616552573403
42
0.99999999999999989
10
2296.1176905890229
20
-6100.7260034065694
10
2296.1176905890247
20
-6104.0973071081098
42
0.99999999999999989
10
2298.9820387382547
20
-6106.9616552573389
10
2308.2533424397934
20
-6106.9616552573407
42
0.99999999999999989
10
2311.1176905890243
20
-6104.0973071081098
10
2311.1176905890243
20
-6100.7260034065703
42
0.99999999999999989
10
2308.2533424397939
20
-6097.8616552573403
0
LWPOLYLINE
5
383
100
AcDbEntity
8
0
100
AcDbPolyline
90
8
70
1
43
0.0
10
1728.9587949339348
20
-5296.8616552573394
42
0.99999999999999989
10
1726.0944467847037
20
-5299.7260034065694
10
1726.0944467847039
20
-5303.0973071081089
42
0.99999998946328783
10
1728.9587949339341
20
-5305.9616552573407
10
1748.2300986354733
20
-5305.9616552573389
42
0.99999999999999989
10
1751.0944467847037
20
-5303.0973071081098
10
1751.0944467847035
20
-5299.7260034065694
42
0.99999999999999989
10
1748.2300986354726
20
-5296.8616552573394
0
LWPOLYLINE
5
384
100
AcDbEntity
8
0
100
AcDbPolyline
90
8
70
1
43
0.0
10
2030.0587949339342
20
-5337.76165525734
42
0.99999999999999989
10
2027.1944467847038
20
-5340.6260034065699
10
2027.194446784704
20
-5384.8973071081091
42
0.99999999999999989
10
2030.0587949339342
20
-5387.76165525734
10
2042.5300986354737
20
-5387.76165525734
42
0.99999999999999989
10
2045.3944467847036
20
-5384.8973071081091
10
2045.3944467847036
20
-5340.6260034065699
42
0.99999999999999989
10
2042.5300986354732
20
-5337.76165525734
0
LWPOLYLINE
5
385
100
AcDbEntity
8
0
100
AcDbPolyline
90
8
70
1
43
0.0
10
2027.194446784704
20
-5619.8973071081091
42
0.99999999999999989
10
2030.058794933934
20
-5622.76165525734
10
2042.5300986354732
20
-5622.76165525734
42
0.99999999999999989
10
2045.3944467847036
20
-5619.8973071081091
10
2045.3944467847036
20
-5575.6260034065699
42
0.99999999999999989
10
2042.5300986354732
20
-5572.76165525734
10
2030.0587949339342
20
-5572.76165525734
42
0.99999999999999989
10
2027.1944467847038
20
-5575.6260034065699
0
LWPOLYLINE
5
386
100
AcDbEntity
8
0
100
AcDbPolyline
90
8
70
1
43
0.0
10
2030.0587949339345
20
-5296.8616552573394
42
0.99999999999999989
10
2027.1944467847036
20
-5299.7260034065694
10
2027.194446784704
20
-5303.0973071081089
42
0.99999998946328783
10
2030.0587949339342
20
-5305.9616552573407
10
2042.5300986354737
20
-5305.9616552573389
42
0.99999999999999989
10
2045.3944467847036
20
-5303.0973071081098
10
2045.3944467847036
20
-5299.7260034065694
42
0.99999999999999989
10
2042.5300986354728
20
-5296.8616552573394
0
LWPOLYLINE
5
387
100
AcDbEntity
8
0
100
AcDbPolyline
90
8
70
1
43
0.0
10
1998.2587949339345
20
-5296.8616552573394
42
0.99999999999999989
10
1995.3944467847034
20
-5299.7260034065694
10
1995.3944467847041
20
-5303.0973071081089
42
0.99999998946328783
10
1998.258794933934
20
-5305.9616552573407
10
2010.7300986354735
20
-5305.9616552573389
42
0.99999999999999989
10
2013.5944467847037
20
-5303.0973071081098
10
2013.5944467847037
20
-5299.7260034065712
42
0.99999999999999989
10
2010.7300986354733
20
-5296.8616552573394
0
LWPOLYLINE
5
388
100
AcDbEntity
8
0
100
AcDbPolyline
90
10
70
1
43
0.0
10
2299.5782152900929
20
-5296.8616552573394
42
0.99999999999999989
10
2296.713867140862
20
-5299.7260034065694
10
2296.713867140862
20
-5303.0973071081089
42
0.99999999999999989
10
2299.5782152900929
20
-5305.9616552573407
10
2310.3944467847036
20
-5305.9616552573407
10
2310.3944467847036
20
-5672.76165525734
10
1670.3944467847036
20
-5672.76165525734
10
1670.3944467847034
20
-5287.76165525734
10
2310.3944467847036
20
-5287.76165525734
10
2310.3944467847041
20
-5296.8616552573394
0
LWPOLYLINE
5
389
100
AcDbEntity
8
0
100
AcDbPolyline
90
8
70
1
43
0.0
10
2272.5314633099583
20
-5305.9616552573389
42
0.99999999999999989
10
2275.3958114591887
20
-5303.0973071081089
10
2275.3958114591883
20
-5299.7260034065712
42
0.99999999999999989
10
2272.5314633099579
20
-5296.8616552573394
10
2263.2587949339345
20
-5296.8616552573394
42
0.99999999999999989
10
2260.3944467847036
20
-5299.7260034065694
10
2260.3944467847036
20
-5303.0973071081089
42
0.99999999999999989
10
2263.2587949339345
20
-5305.9616552573407
0
LWPOLYLINE
5
390
100
AcDbEntity
8
0
100
AcDbPolyline
90
8
70
1
43
0.0
10
2250.3944467847036
20
-5632.76165525734
10
2075.3944467847036
20
-5632.76165525734
42
-0.41421356237309503
10
2055.3944467847036
20
-5612.76165525734
10
2055.3944467847036
20
-5347.76165525734
42
-0.41421356237309503
10
2075.3944467847036
20
-5327.76165525734
10
2250.3944467847036
20
-5327.76165525734
42
-0.41421356237309503
10
2270.3944467847036
20
-5347.76165525734
10
2270.3944467847036
20
-5612.76165525734
42
-0.41421356237309503
0
LWPOLYLINE
5
391
100
AcDbEntity
8
0
100
AcDbPolyline
90
8
70
1
43
0.0
10
1967.1944467847038
20
-5632.76165525734
10
1730.3944467847036
20
-5632.76165525734
42
-0.41421356237309503
10
1710.3944467847036
20
-5612.76165525734
10
1710.3944467847036
20
-5347.76165525734
42
-0.41421356237309503
10
1730.3944467847036
20
-5327.76165525734
10
1967.1944467847038
20
-5327.76165525734
42
-0.41421356237309503
10
1987.1944467847038
20
-5347.76165525734
10
1987.1944467847038
20
-5612.76165525734
42
-0.41421356237309503
0
LWPOLYLINE
5
392
100
AcDbEntity
8
0
100
AcDbPolyline
90
8
70
1
43
0.0
10
1642.1914632509793
20
-5546.3500000000013
42
0.99999999999999989
10
1645.0198903757257
20
-5543.5215728752555
10
1645.0198903757264
20
-5499.178427124747
42
0.99999998946328783
10
1642.1914632509793
20
-5496.3500000000013
10
1638.7483175004727
20
-5496.3500000000013
42
0.99999999999999989
10
1635.919890375726
20
-5499.178427124747
10
1635.919890375726
20
-5543.5215728752555
42
0.99999998946328783
10
1638.7483175004729
20
-5546.3500000000013
0
LWPOLYLINE
5
393
100
AcDbEntity
8
0
100
AcDbPolyline
90
8
70
1
43
0.0
10
1645.0198903757264
20
-5329.178427124747
42
0.99999998946328783
10
1642.1914632509788
20
-5326.3500000000013
10
1638.7483175004727
20
-5326.3500000000013
42
0.99999999999999989
10
1635.919890375726
20
-5329.178427124747
10
1635.919890375726
20
-5373.5215728752555
42
0.99999998946328783
10
1638.7483175004729
20
-5376.3500000000013
10
1642.1914632509793
20
-5376.3500000000013
42
0.99999998946328783
10
1645.0198903757264
20
-5373.5215728752555
0
LWPOLYLINE
5
394
100
AcDbEntity
8
0
100
AcDbPolyline
90
7
70
1
43
0.0
10
1054.1198903757258
20
-5581.3500000000013
42
0.41421356237297846
10
1059.1198903757258
20
-5586.3500000000013
10
1412.6985341384166
20
-5586.3500000000022
42
-0.19891236737965962
10
1483.4092122570714
20
-5615.6393218813464
10
1654.1198903757258
20
-5786.3500000000022
10
1654.1198903757258
20
-5286.3500000000013
10
1054.1198903757258
20
-5286.3500000000013
0
LWPOLYLINE
5
395
100
AcDbEntity
8
0
100
AcDbPolyline
90
8
70
1
43
0.0
10
753.43927714959841
20
-5326.3500000000013
10
972.03927714959855
20
-5326.3500000000013
42
-0.41421356237309503
10
992.03927714959855
20
-5346.3500000000013
10
992.03927714959855
20
-5638.1500000000005
42
-0.41421356237309503
10
972.03927714959855
20
-5658.1500000000005
10
753.43927714959841
20
-5658.1500000000005
42
-0.41421356237309503
10
733.43927714959841
20
-5638.1500000000005
10
733.43927714959841
20
-5346.3500000000004
42
-0.41421356237307838
0
LWPOLYLINE
5
396
100
AcDbEntity
8
0
100
AcDbPolyline
90
8
70
1
43
0.0
10
470.23927714959837
20
-5326.3500000000013
10
645.23927714959837
20
-5326.3500000000013
42
-0.41421356237309503
10
665.23927714959837
20
-5346.3500000000013
10
665.23927714959837
20
-5436.3500000000013
42
-0.41421356237309503
10
645.23927714959837
20
-5456.3500000000013
10
470.23927714959837
20
-5456.3500000000013
42
-0.41421356237309503
10
450.23927714959837
20
-5436.3500000000013
10
450.23927714959837
20
-5346.3500000000013
42
-0.41421356237309503
0
CIRCLE
5
397
100
AcDbEntity
8
0
100
AcDbCircle
10
557.73927714959837
20
-5306.3500000000013
30
0
40
5
210
-0
220
0
230
1
0
CIRCLE
5
398
100
AcDbEntity
8
0
100
AcDbCircle
10
1012.0392771495985
20
-5697.2500000000018
30
0
40
5
210
-0
220
0
230
1
0
CIRCLE
5
399
100
AcDbEntity
8
0
100
AcDbCircle
10
707.89381555255545
20
-5692.4739707369208
30
0
40
5
210
-0
220
0
230
1
0
CIRCLE
5
400
100
AcDbEntity
8
0
100
AcDbCircle
10
557.73927714959837
20
-5476.3500000000013
30
0
40
5
210
-0
220
0
230
1
0
CIRCLE
5
401
100
AcDbEntity
8
0
100
AcDbCircle
10
430.23927714959837
20
-5391.3500000000013
30
0
40
5
210
-0
220
0
230
1
0
CIRCLE
5
402
100
AcDbEntity
8
0
100
AcDbCircle
10
684.33927714959839
20
-5436.3500000000013
30
0
40
2
210
-0
220
0
230
1
0
CIRCLE
5
403
100
AcDbEntity
8
0
100
AcDbCircle
10
684.3392771495985
20
-5586.3500000000013
30
0
40
2
210
-0
220
0
230
1
0
CIRCLE
5
404
100
AcDbEntity
8
0
100
AcDbCircle
10
684.33927714959839
20
-5320.4500000000007
30
0
40
2
210
-0
220
0
230
1
0
CIRCLE
5
405
100
AcDbEntity
8
0
100
AcDbCircle
10
684.3392771495985
20
-5711.3500000000013
30
0
40
2
210
-0
220
0
230
1
0
CIRCLE
5
406
100
AcDbEntity
8
0
100
AcDbCircle
10
957.03927714959855
20
-5295.4500000000007
30
0
40
2
210
-0
220
0
230
1
0
CIRCLE
5
407
100
AcDbEntity
8
0
100
AcDbCircle
10
1007.0392771495985
20
-5295.4500000000007
30
0
40
2
210
-0
220
0
230
1
0
CIRCLE
5
408
100
AcDbEntity
8
0
100
AcDbCircle
10
700.23927714959837
20
-5295.4500000000007
30
0
40
2
210
-0
220
0
230
1
0
CIRCLE
5
409
100
AcDbEntity
8
0
100
AcDbCircle
10
435.23927714959825
20
-5295.4500000000007
30
0
40
2
210
-0
220
0
230
1
0
CIRCLE
5
410
100
AcDbEntity
8
0
100
AcDbCircle
10
962.03927714959855
20
-5720.4255772697597
30
0
40
11.500000000000002
210
0
220
-0
230
1
0
LWPOLYLINE
5
411
100
AcDbEntity
8
0
100
AcDbPolyline
90
8
70
1
43
0.0
10
460.23927714959814
20
-5298.3143481492316
42
0.99999999999999989
10
457.37492897902661
20
-5295.450000021342
10
448.10226062434447
20
-5295.4500000000007
42
0.99999999999999989
10
445.23791247511372
20
-5298.3143481492316
10
445.23791247511394
20
-5301.6856518507702
42
0.99999999999999989
10
448.10226062434458
20
-5304.5500000000011
10
457.37492900036722
20
-5304.5500000000011
42
0.99999999999999989
10
460.23927714959825
20
-5301.6856518507711
0
LWPOLYLINE
5
412
100
AcDbEntity
8
0
100
AcDbPolyline
90
8
70
1
43
0.0
10
725.23927714959814
20
-5298.3143481492316
42
0.99999999999999989
10
722.37492900036796
20
-5295.4500000000007
10
709.90362529882918
20
-5295.4500000000016
42
0.99999999999999989
10
707.03927714959843
20
-5298.3143481492316
10
707.03927714959832
20
-5301.685651850772
42
0.99999999999999989
10
709.9036252988293
20
-5304.5500000000011
10
722.37492900036727
20
-5304.5500000000002
42
0.99999999999999989
10
725.23927714959837
20
-5301.6856518507711
0
LWPOLYLINE
5
413
100
AcDbEntity
8
0
100
AcDbPolyline
90
8
70
1
43
0.0
10
693.43927714959807
20
-5298.3143481492325
42
0.99999999999999989
10
690.5749290003688
20
-5295.4500000000016
10
678.10362529882923
20
-5295.4500000000007
42
0.99999998946328783
10
675.23927714959837
20
-5298.3143481492316
10
675.23927714959825
20
-5301.685651850772
42
0.99999999999999989
10
678.10362529882946
20
-5304.5500000000011
10
690.57492900036732
20
-5304.5500000000002
42
0.99999999999999989
10
693.4392771495983
20
-5301.6856518507711
0
LWPOLYLINE
5
414
100
AcDbEntity
8
0
100
AcDbPolyline
90
8
70
1
43
0.0
10
969.53927714959889
20
-5301.6856518507702
42
0.99999999999999989
10
972.40362529882873
20
-5304.5500000000002
10
991.67492900036768
20
-5304.5500000000002
42
0.99999999999999989
10
994.53927714959855
20
-5301.6856518507711
10
994.53927714959832
20
-5298.3143481492325
42
0.99999999999999989
10
991.6749290003678
20
-5295.4500000000007
10
972.4036252988293
20
-5295.4500000000007
42
0.99999999999999989
10
969.53927714959855
20
-5298.3143481492316
0
LWPOLYLINE
5
415
100
AcDbEntity
8
0
100
AcDbPolyline
90
8
70
1
43
0.0
10
693.43927714959818
20
-5339.2143481492312
42
0.99999999999999989
10
690.57492900036834
20
-5336.3500000000013
10
678.103625298829
20
-5336.3500000000013
42
0.99999999999999989
10
675.23927714959837
20
-5339.2143481492312
10
675.23927714959859
20
-5383.4856518507704
42
0.99999999999999989
10
678.103625298829
20
-5386.3500000000013
10
690.57492900036789
20
-5386.3500000000013
42
0.99999999999999989
10
693.4392771495983
20
-5383.4856518507704
0
LWPOLYLINE
5
416
100
AcDbEntity
8
0
100
AcDbPolyline
90
28
70
1
43
0.0
10
676.73927714959837
20
-5536.3500000000013
42
0.4142135623731783
10
675.23927714959814
20
-5537.8500000000004
10
675.23927714959871
20
-5634.8500000000013
42
0.4142135623731783
10
676.73927714959859
20
-5636.3500000000013
10
690.57492900036823
20
-5636.3500000000013
42
-0.99999999999999989
10
693.4392771495983
20
-5639.2143481492312
10
693.43927714959864
20
-5683.4856518507704
42
-0.99999999999999989
10
690.57492900036789
20
-5686.3500000000013
10
676.73927714959859
20
-5686.3500000000013
42
0.4142135623731783
10
675.23927714959837
20
-5687.8500000000004
10
675.23927714959859
20
-5736.3500000000013
10
1032.0392771495985
20
-5736.3500000000013
10
1032.0392771495985
20
-5286.3500000000013
10
410.23927714959831
20
-5286.3500000000013
10
410.23927714959825
20
-5295.4500000000007
10
421.055508644209
20
-5295.4500000000007
42
-0.99999999999999989
10
423.91985679343952
20
-5298.3143481492316
10
423.91985679343946
20
-5301.6856518507711
42
-0.99999999999999989
10
421.05550864420866
20
-5304.5500000000011
10
410.23927714959825
20
-5304.5500000000011
10
410.23927714959854
20
-5496.3500000000013
10
675.23927714959859
20
-5496.3500000000013
10
675.23927714959859
20
-5489.2143481492312
42
-0.99999999999999989
10
678.103625298829
20
-5486.3500000000013
10
690.57492900036834
20
-5486.3500000000013
42
-0.99999999999999989
10
693.43927714959818
20
-5489.2143481492312
10
693.43927714959864
20
-5533.4856518507704
42
-0.99999999999999989
10
690.57492900036789
20
-5536.3500000000013
0
CIRCLE
5
417
100
AcDbEntity
8
0
100
AcDbCircle
10
692.20231957896647
20
-6003.1573310142521
30
0
40
5.0000000000000053
210
0
220
-0
230
1
0
CIRCLE
5
418
100
AcDbEntity
8
0
100
AcDbCircle
10
974.00231957898563
20
-5803.1573310142776
30
0
40
5.0000000000000053
210
0
220
-0
230
1
0
CIRCLE
5
419
100
AcDbEntity
8
0
100
AcDbCircle
10
974.00231957896699
20
-6003.1573310142776
30
0
40
5.0000000000000053
210
0
220
-0
230
1
0
CIRCLE
5
420
100
AcDbEntity
8
0
100
AcDbCircle
10
692.20231957898523
20
-5803.1573310142521
30
0
40
5.0000000000000053
210
0
220
-0
230
1
0
LWPOLYLINE
5
421
100
AcDbEntity
8
0
100
AcDbPolyline
90
7
70
1
43
0.0
10
1026.8666677282126
20
-5784.9573310142832
42
0.99999999999999989
10
1024.002319578994
20
-5787.821679163525
10
1024.0023195789624
20
-6053.157331014283
10
642.20231957896181
20
-6053.1573310142458
10
642.20231957898989
20
-5753.1573310142467
10
1264.0023195789906
20
-5753.157331014304
10
1264.0023195789877
20
-5784.957331014306
0
LWPOLYLINE
5
422
100
AcDbEntity
8
0
100
AcDbPolyline
90
11
70
1
43
0.0
10
388.14999999999975
20
-5701.685651850772
42
0.99999999999999989
10
391.01434814923033
20
-5704.5500000000002
10
628.15000000000009
20
-5704.5500000000011
10
628.15000000000009
20
-5736.3500000000013
10
271.35000000000014
20
-5736.3500000000013
10
271.35000000000014
20
-5499.2143481492312
42
0.99999998946328783
10
268.48565185076961
20
-5496.3500000000013
10
6.3500000000002066
20
-5496.3500000000013
10
6.3499999999999801
20
-5286.3500000000013
10
388.97688733782849
20
-5286.3500000000013
10
388.15000000000009
20
-5686.3500000000013
0
CIRCLE
5
423
100
AcDbEntity
8
0
100
AcDbCircle
10
558.15000000000009
20
-5720.4255772697597
30
0
40
5
210
0
220
-0
230
1
0
CIRCLE
5
424
100
AcDbEntity
8
0
100
AcDbCircle
10
608.15000000000009
20
-5720.4255772697597
30
0
40
4.5748842756755437
210
0
220
0
230
1
0
CIRCLE
5
425
100
AcDbEntity
8
0
100
AcDbCircle
10
153.85000000000005
20
-5476.3500000000013
30
0
40
5
210
0
220
0
230
1
0
CIRCLE
5
426
100
AcDbEntity
8
0
100
AcDbCircle
10
26.350000000000051
20
-5391.3500000000013
30
0
40
5
210
0
220
0
230
1
0
CIRCLE
5
427
100
AcDbEntity
8
0
100
AcDbCircle
10
153.85000000000005
20
-5306.3500000000013
30
0
40
5
210
0
220
0
230
1
0
CIRCLE
5
428
100
AcDbEntity
8
0
100
AcDbCircle
10
304.00453840295711
20
-5692.4739707369208
30
0
40
5
210
0
220
0
230
1
0
CIRCLE
5
429
100
AcDbEntity
8
0
100
AcDbCircle
10
280.4500000000001
20
-5711.3500000000013
30
0
40
2.0000000000000284
210
0
220
0
230
1
0
CIRCLE
5
430
100
AcDbEntity
8
0
100
AcDbCircle
10
280.45000000000005
20
-5586.3500000000013
30
0
40
2.0000000000000284
210
0
220
0
230
1
0
CIRCLE
5
431
100
AcDbEntity
8
0
100
AcDbCircle
10
280.44999999999993
20
-5436.3500000000013
30
0
40
2.0000000000000284
210
0
220
0
230
1
0
LWPOLYLINE
5
432
100
AcDbEntity
8
0
100
AcDbPolyline
90
8
70
1
43
0.0
10
261.35000000000002
20
-5346.3500000000013
42
0.41421356237309503
10
241.35000000000005
20
-5326.3500000000013
10
66.350000000000051
20
-5326.3500000000013
42
0.41421356237309503
10
46.350000000000044
20
-5346.3500000000013
10
46.350000000000051
20
-5436.3500000000013
42
0.41421356237309503
10
66.350000000000051
20
-5456.3500000000013
10
241.34999999999997
20
-5456.3500000000013
42
0.41421356237309503
10
261.34999999999997
20
-5436.3500000000013
0
CIRCLE
5
433
100
AcDbEntity
8
0
100
AcDbCircle
10
295.45000000000005
20
-5391.3500000000013
30
0
40
3.9999999999999858
210
0
220
0
230
1
0
CIRCLE
5
434
100
AcDbEntity
8
0
100
AcDbCircle
10
1113.4499999999994
20
-5123.25
30
0
40
5
210
0
220
-0
230
1
0
CIRCLE
5
435
100
AcDbEntity
8
0
100
AcDbCircle
10
1395.2499999999995
20
-4923.25
30
0
40
5
210
0
220
-0
230
1
0
CIRCLE
5
436
100
AcDbEntity
8
0
100
AcDbCircle
10
1395.2499999999995
20
-5123.25
30
0
40
5
210
0
220
-0
230
1
0
CIRCLE
5
437
100
AcDbEntity
8
0
100
AcDbCircle
10
1113.4499999999994
20
-4923.25
30
0
40
5
210
0
220
-0
230
1
0
LWPOLYLINE
5
438
100
AcDbEntity
8
0
100
AcDbPolyline
90
4
70
1
43
0.0
10
1685.2499999999995
20
-5173.25
10
1685.2499999999995
20
-4873.25
10
1063.4499999999998
20
-4873.25
10
1063.4499999999998
20
-5173.25
0
LWPOLYLINE
5
439
100
AcDbEntity
8
0
100
AcDbPolyline
90
7
70
1
43
0.0
10
2082.0266797203972
20
-5138.426786260743
42
0.99999999999999989
10
2084.8910278696276
20
-5141.2911344099739
10
2322.0266797203972
20
-5141.2911344100403
10
2322.0266797203881
20
-5173.0911344100405
10
1700.2266797203874
20
-5173.0911344098649
10
1700.226679720472
20
-4873.0911344098649
10
2082.0266797204727
20
-4873.0911344099732
0
LWPOLYLINE
5
440
100
AcDbEntity
8
0
100
AcDbPolyline
90
13
70
1
43
0.0
10
1614.7620591686796
20
-4479.8516714633852
42
0.99999999999999989
10
1617.6264073179113
20
-4482.716019612616
10
1761.8977110194498
20
-4482.7160196125951
42
0.99999999999999989
10
1764.7620591686796
20
-4479.8516714633643
10
1764.7620591686773
20
-4464.5160196125944
10
1934.7620591686778
20
-4464.5160196125707
10
1934.7620591686793
20
-4479.8516714633397
42
0.99999999999999989
10
1937.6264073179107
20
-4482.7160196125706
10
2084.76205916868
20
-4482.7160196125496
10
2084.7620591687341
20
-4864.5160196125489
10
1462.9620591687344
20
-4864.5160196126371
10
1462.962059168678
20
-4464.5160196126371
10
1614.7620591686773
20
-4464.5160196126162
0
CIRCLE
5
441
100
AcDbEntity
8
0
100
AcDbCircle
10
1352.5499999999997
20
-4760.2500000000009
30
0
40
3.9999999999999858
210
0
220
-0
230
1
0
LWPOLYLINE
5
442
100
AcDbEntity
8
0
100
AcDbPolyline
90
8
70
1
43
0.0
10
1298.4499999999998
20
-4825.2500000000009
10
1123.4499999999998
20
-4825.2500000000009
42
-0.41421356237309503
10
1103.4499999999998
20
-4805.2500000000009
10
1103.4499999999998
20
-4715.2500000000009
42
-0.41421356237309503
10
1123.4499999999998
20
-4695.2500000000009
10
1298.4499999999998
20
-4695.2500000000009
42
-0.41421356237309503
10
1318.4499999999998
20
-4715.2500000000009
10
1318.4499999999998
20
-4805.2500000000009
42
-0.41421356237309503
0
CIRCLE
5
443
100
AcDbEntity
8
0
100
AcDbCircle
10
1337.5499999999997
20
-4715.2500000000009
30
0
40
2.0000000000000284
210
0
220
-0
230
1
0
CIRCLE
5
444
100
AcDbEntity
8
0
100
AcDbCircle
10
1337.5499999999993
20
-4565.2500000000009
30
0
40
2.0000000000000284
210
0
220
-0
230
1
0
CIRCLE
5
445
100
AcDbEntity
8
0
100
AcDbCircle
10
1337.5499999999997
20
-4440.2500000000009
30
0
40
2.0000000000000284
210
0
220
-0
230
1
0
CIRCLE
5
446
100
AcDbEntity
8
0
100
AcDbCircle
10
1361.1045384029567
20
-4459.1260292630805
30
0
40
5
210
0
220
-0
230
1
0
CIRCLE
5
447
100
AcDbEntity
8
0
100
AcDbCircle
10
1210.9499999999998
20
-4845.2500000000009
30
0
40
5
210
0
220
-0
230
1
0
CIRCLE
5
448
100
AcDbEntity
8
0
100
AcDbCircle
10
1083.4499999999998
20
-4760.2500000000009
30
0
40
5
210
0
220
-0
230
1
0
CIRCLE
5
449
100
AcDbEntity
8
0
100
AcDbCircle
10
1210.9499999999998
20
-4675.2500000000009
30
0
40
5
210
0
220
-0
230
1
0
CIRCLE
5
450
100
AcDbEntity
8
0
100
AcDbCircle
10
1665.2499999999998
20
-4431.1744227302424
30
0
40
4.5748842756755437
210
0
220
-0
230
1
0
CIRCLE
5
451
100
AcDbEntity
8
0
100
AcDbCircle
10
1615.2499999999998
20
-4431.1744227302424
30
0
40
5
210
0
220
-0
230
1
0
LWPOLYLINE
5
452
100
AcDbEntity
8
0
100
AcDbPolyline
90
11
70
1
43
0.0
10
1448.1143481492302
20
-4447.0500000000011
42
0.99999999999999989
10
1445.2499999999998
20
-4449.914348149231
10
1445.2499999999998
20
-4465.2500000000009
10
1446.0768873378283
20
-4865.2500000000009
10
1063.4499999999996
20
-4865.2500000000009
10
1063.4499999999998
20
-4655.2500000000009
10
1325.5856518507694
20
-4655.2500000000009
42
0.99999999999999989
10
1328.4499999999998
20
-4652.385651850771
10
1328.4499999999998
20
-4415.2500000000009
10
1685.2499999999998
20
-4415.2500000000009
10
1685.2499999999998
20
-4447.0500000000011
0
LWPOLYLINE
5
453
100
AcDbEntity
8
0
100
AcDbPolyline
90
73
70
1
43
0.0
10
1055.4499999999998
20
-4921.7500000000009
42
0.41421356237278983
10
1053.9499999999998
20
-4920.2500000000018
10
1040.1143481492304
20
-4920.2500000000009
42
-0.99999999999999989
10
1037.25
20
-4917.385651850771
10
1037.2499999999998
20
-4823.1143481492309
42
-0.99999999999999989
10
1040.1143481492304
20
-4820.2500000000009
10
1053.9499999999998
20
-4820.2500000000009
42
0.41421356237278983
10
1055.4500000000003
20
-4818.7500000000009
10
1055.4499999999998
20
-4771.7500000000009
42
0.41421356237290086
10
1053.9499999999998
20
-4770.2500000000018
10
1040.1143481492304
20
-4770.2500000000009
42
-0.99999999999999989
10
1037.25
20
-4767.385651850771
10
1037.2499999999998
20
-4673.1143481492309
42
-0.99999999999999989
10
1040.1143481492304
20
-4670.2500000000009
10
1053.9499999999998
20
-4670.2500000000009
42
0.41421356237278983
10
1055.4500000000003
20
-4668.7500000000009
10
1055.4499999999998
20
-4621.7500000000009
42
0.41421356237290086
10
1053.9499999999998
20
-4620.2500000000018
10
1040.1143481492304
20
-4620.2500000000009
42
-0.99999999999999989
10
1037.25
20
-4617.385651850771
10
1037.25
20
-4588.4500000000007
10
990.11434814923041
20
-4588.4500000000007
42
-0.99999999999999989
10
987.25
20
-4585.5856518507708
10
987.25
20
-4580.8500000000013
42
0.41421356237312279
10
985.74999999999989
20
-4579.3500000000013
10
938.75
20
-4579.3500000000004
42
0.41421356237312279
10
937.25000000000011
20
-4580.8500000000013
10
937.25
20
-4585.5856518507708
42
-0.99999999999999989
10
934.38565185076959
20
-4588.4500000000007
10
558.76434814923061
20
-4588.4500000000007
42
-0.99999999999999989
10
555.89999999999986
20
-4585.5856518507708
10
555.89999999999998
20
-4580.8500000000013
42
0.41421356237315055
10
554.39999999999986
20
-4579.3500000000013
10
507.39999999999998
20
-4579.3500000000004
42
0.41421356237313667
10
505.89999999999998
20
-4580.8500000000013
10
505.89999999999986
20
-4585.5856518507708
42
-0.99999999999999989
10
503.03565185076945
20
-4588.4500000000007
10
127.41434814923038
20
-4588.4500000000007
42
-0.99999999999999989
10
124.54999999999993
20
-4585.5856518507708
10
124.55000000000001
20
-4580.8500000000013
42
0.41421356237314705
10
123.05
20
-4579.3500000000013
10
76.049999999999969
20
-4579.3500000000004
42
0.41421356237314361
10
74.549999999999955
20
-4580.8500000000013
10
74.549999999999898
20
-4585.5856518507708
42
-0.99999999999999989
10
71.685651850769517
20
-4588.4500000000007
10
24.549999999999912
20
-4588.4500000000007
10
24.550000030180694
20
-4617.3856518809516
42
-0.99999998946328783
10
21.685651850769446
20
-4620.2500000000009
10
16.949999999999967
20
-4620.2500000000009
42
0.41421356237292251
10
15.449999999999942
20
-4621.7500000000009
10
15.449999999999946
20
-4668.7500000000009
42
0.41421356237303353
10
16.949999999999967
20
-4670.2500000000009
10
21.685651880950108
20
-4670.2499999698202
42
-0.99999998946328783
10
24.549999999999997
20
-4673.1143481492309
10
24.550000030180694
20
-4852.3856518809516
42
-0.99999998946328783
10
21.685651850769446
20
-4855.2500000000009
10
16.949999999999967
20
-4855.2500000000009
42
0.41421356237292251
10
15.449999999999942
20
-4856.7500000000009
10
15.449999999999946
20
-4903.7500000000009
42
0.41421356237303353
10
16.949999999999967
20
-4905.2500000000009
10
21.685651850769339
20
-4905.2500000000009
42
-0.99999999999999989
10
24.549999999999962
20
-4908.1143481492309
10
24.54999999999988
20
-4952.385651850771
42
-0.99999999999999989
10
21.685651850769428
20
-4955.2500000000009
10
17.690049709803439
20
-4955.2500000000009
42
0.87643579112980041
10
17.300049709803538
20
-4958.1984129245493
10
246.47489961585597
20
-5019.906086163659
42
0.065850486040732667
10
249.07489961585617
20
-5020.2500000000009
10
1037.25
20
-5020.2500000000009
10
1037.25
20
-4973.1143481492309
42
-0.99999999999999989
10
1040.1143481492304
20
-4970.2500000000009
10
1053.9499999999998
20
-4970.2500000000009
42
0.41421356237278983
10
1055.4500000000003
20
-4968.7500000000009
0
LWPOLYLINE
5
454
100
AcDbEntity
8
0
100
AcDbPolyline
90
10
70
1
43
0.0
10
914.02864376269031
20
-4571.3500000000004
42
0.19891236737964973
10
984.73932188134529
20
-4542.0606781186543
10
1026.1606781186547
20
-4500.6393218813455
42
0.19891236737965723
10
1055.4499999999998
20
-4429.9286437626906
10
1055.4499999999998
20
-4107.7713562373092
42
0.19891236737965828
10
1026.1606781186547
20
-4037.0606781186548
10
984.73932188134518
20
-3995.639321881345
42
0.19891236737965259
10
914.02864376269008
20
-3966.3499999999999
10
6.3499999999999091
20
-3966.3499999999999
10
6.3499999999999091
20
-4571.3500000000004
0
LWPOLYLINE
5
455
100
AcDbEntity
8
0
100
AcDbPolyline
90
73
70
1
43
0.0
10
1063.4499999999998
20
-4290.75
42
0.41421356237278983
10
1064.9499999999998
20
-4292.25
10
1069.6856518507695
20
-4292.2500000000009
42
-0.99999999999999989
10
1072.5499999999997
20
-4295.1143481492309
10
1072.5499999999997
20
-4342.25
10
1303.1036932809429
20
-4342.25
42
-0.2730316544405163
10
1305.1124667333224
20
-4342.6998929554875
42
0.031989351369990121
10
1306.0987782031316
20
-4343.5130064800396
10
1391.7286354701519
20
-4405.3567922839993
42
0.15765837907002692
10
1397.5835410085956
20
-4407.25
10
2085.25
20
-4407.25
10
2085.25
20
-4360.1143481492318
42
-0.99999999999999989
10
2088.1143481492295
20
-4357.25
10
2101.9499999999998
20
-4357.25
42
0.41421356237287305
10
2103.4499999999994
20
-4355.75
10
2103.4499999999998
20
-4308.7500000000009
42
0.41421356237298407
10
2101.9499999999998
20
-4307.25
10
2088.11434814923
20
-4307.2500000000018
42
-0.99999999999999989
10
2085.25
20
-4304.38565185077
10
2085.25
20
-4210.1143481492318
42
-0.99999999999999989
10
2088.1143481492295
20
-4207.25
10
2101.9499999999998
20
-4207.25
42
0.41421356237287305
10
2103.4499999999994
20
-4205.75
10
2103.4499999999998
20
-4158.7500000000009
42
0.41421356237298407
10
2101.9499999999998
20
-4157.25
10
2088.11434814923
20
-4157.2500000000018
42
-0.99999999999999989
10
2085.25
20
-4154.38565185077
10
2085.25
20
-4060.1143481492318
42
-0.99999999999999989
10
2088.1143481492295
20
-4057.25
10
2101.9499999999998
20
-4057.25
42
0.41421356237287305
10
2103.4499999999994
20
-4055.7500000000005
10
2103.4499999999998
20
-4008.7500000000005
42
0.41421356237298407
10
2101.9499999999998
20
-4007.25
10
2088.11434814923
20
-4007.2500000000018
42
-0.99999999999999989
10
2085.25
20
-4004.3856518507705
10
2085.25
20
-3975.4500000000003
10
2038.1143481492302
20
-3975.4500000000003
42
-0.99999999999999989
10
2035.2499999999998
20
-3972.5856518507699
10
2035.2499999999998
20
-3967.8500000000004
42
0.41421356237309503
10
2033.7499999999998
20
-3966.3499999999999
10
1986.7499999999998
20
-3966.3499999999999
42
0.41421356237309503
10
1985.25
20
-3967.8500000000004
10
1985.2499999999998
20
-3972.5856518507699
42
-0.99999999999999989
10
1982.3856518507694
20
-3975.4500000000003
10
1606.7643481492305
20
-3975.4500000000003
42
-0.99999999999999989
10
1603.8999999999996
20
-3972.5856518507699
10
1603.8999999999999
20
-3967.8500000000004
42
0.41421356237309503
10
1602.3999999999999
20
-3966.3499999999999
10
1555.3999999999999
20
-3966.3499999999999
42
0.41421356237315055
10
1553.8999999999999
20
-3967.8500000000004
10
1553.8999999999999
20
-3972.5856518507699
42
-0.99999999999999989
10
1551.0356518507695
20
-3975.4500000000003
10
1175.4143481492301
20
-3975.4500000000003
42
-0.99999999999999989
10
1172.5499999999997
20
-3972.5856518507699
10
1172.5499999999997
20
-3967.8500000000004
42
0.41421356237312279
10
1171.0499999999997
20
-3966.3500000000004
10
1124.0499999999997
20
-3966.3499999999999
42
0.41421356237312279
10
1122.5499999999997
20
-3967.8500000000004
10
1122.5499999999995
20
-3972.5856518507699
42
-0.99999999999999989
10
1119.6856518507693
20
-3975.4500000000003
10
1072.5499999999997
20
-3975.4500000000003
10
1072.5500000000006
20
-4004.3856518507719
42
-0.99999999999999989
10
1069.6856518507686
20
-4007.25
10
1064.9499999999998
20
-4007.25
42
0.41421356237278983
10
1063.4499999999994
20
-4008.75
10
1063.4499999999998
20
-4055.75
42
0.41421356237290086
10
1064.9499999999998
20
-4057.2499999999995
10
1069.6856518507695
20
-4057.2500000000009
42
-0.99999999999999989
10
1072.5499999999997
20
-4060.1143481492313
10
1072.5500000000006
20
-4239.3856518507719
42
-0.99999999999999989
10
1069.6856518507686
20
-4242.25
10
1064.9499999999998
20
-4242.25
42
0.41421356237278983
10
1063.4499999999994
20
-4243.75
0
LINE
5
456
100
AcDbEntity
8
0
100
AcDbLine
10
1033.1459446168276
20
-5035.2121768567285
30
0
11
20.445944616827205
21
-5035.2121768567285
31
0
0
LWPOLYLINE
5
457
100
AcDbEntity
8
0
100
AcDbPolyline
90
4
70
1
43
0.0
10
1033.1459446168276
20
-5085.2121768567285
10
1033.1459446168276
20
-5035.2121768567285
10
20.445944616827205
20
-5035.2121768567285
10
20.445944616827209
20
-5085.2121768567285
0
LWPOLYLINE
5
458
100
AcDbEntity
8
0
100
AcDbPolyline
90
4
70
1
43
0.0
10
19.640173476446989
20
-5097.1494811795183
10
19.640173476446993
20
-5147.1494811795174
10
1032.3401734764475
20
-5147.1494811795174
10
1032.3401734764475
20
-5097.1494811795174
0
CIRCLE
5
459
100
AcDbEntity
8
0
100
AcDbCircle
10
56.349999999999909
20
-6484.7663879569263
30
0
40
4.0500000000000007
210
0
220
-0
230
1
0
CIRCLE
5
460
100
AcDbEntity
8
0
100
AcDbCircle
10
1486.3499999999999
20
-6484.7663879569263
30
0
40
4.0500000000000007
210
0
220
-0
230
1
0
CIRCLE
5
461
100
AcDbEntity
8
0
100
AcDbCircle
10
1136.3499999999999
20
-6484.7663879569263
30
0
40
4.0500000000000007
210
0
220
-0
230
1
0
CIRCLE
5
462
100
AcDbEntity
8
0
100
AcDbCircle
10
406.34999999999997
20
-6484.7663879569263
30
0
40
4.0500000000000007
210
0
220
-0
230
1
0
LWPOLYLINE
5
463
100
AcDbEntity
8
0
100
AcDbPolyline
90
8
70
1
43
0.0
10
76.207142857142998
20
-6418.8663879569267
10
76.207142857142841
20
-6318.8663879569267
10
6.3499999999999091
20
-6318.8663879569267
10
6.3499999999997776
20
-6493.8663879569267
10
1536.3499999999999
20
-6493.8663879569267
10
1536.3499999999999
20
-6318.8663879569267
10
1466.4928571428572
20
-6318.8663879569267
10
1466.4928571428572
20
-6418.8663879569267
0
CIRCLE
5
464
100
AcDbEntity
8
0
100
AcDbCircle
10
1296.3499999999997
20
-1717.2500000000002
30
0
40
4.0500000000000007
210
0
220
-0
230
1
0
CIRCLE
5
465
100
AcDbEntity
8
0
100
AcDbCircle
10
596.34999999999968
20
-1717.2500000000002
30
0
40
4.0500000000000007
210
0
220
-0
230
1
0
CIRCLE
5
466
100
AcDbEntity
8
0
100
AcDbCircle
10
26.349999999999767
20
-1717.2500000000002
30
0
40
4.0500000000000007
210
0
220
-0
230
1
0
CIRCLE
5
467
100
AcDbEntity
8
0
100
AcDbCircle
10
246.34999999999962
20
-1717.2500000000002
30
0
40
4.0500000000000007
210
0
220
-0
230
1
0
CIRCLE
5
468
100
AcDbEntity
8
0
100
AcDbCircle
10
946.34999999999968
20
-1717.2500000000002
30
0
40
4.0500000000000007
210
0
220
-0
230
1
0
CIRCLE
5
469
100
AcDbEntity
8
0
100
AcDbCircle
10
1516.3499999999999
20
-1717.2500000000002
30
0
40
4.0500000000000007
210
0
220
-0
230
1
0
LWPOLYLINE
5
470
100
AcDbEntity
8
0
100
AcDbPolyline
90
5
70
1
43
0.0
10
11.349999999999909
20
-1326.3499999999999
42
0.41421356237309792
10
6.3499999999998602
20
-1331.3499999999999
10
6.3499999999999339
20
-1726.3499999999999
10
1536.3499999999999
20
-1726.3499999999999
10
1536.3499999999999
20
-1326.3499999999999
0
LWPOLYLINE
5
471
100
AcDbEntity
8
0
100
AcDbPolyline
90
8
70
1
43
0.0
10
46.349999999999518
20
-1714.3856518507698
42
0.99999999999999989
10
49.214348149229856
20
-1717.2500000000002
10
93.485651850769059
20
-1717.2500000000002
42
0.99999998946328783
10
96.349999999999625
20
-1714.3856518507698
10
96.349999999999611
20
-1711.0143481492305
42
0.99999999999999989
10
93.485651850769074
20
-1708.1500000000001
10
49.214348149229963
20
-1708.1500000000001
42
0.99999999999999989
10
46.349999999999625
20
-1711.0143481492305
0
LWPOLYLINE
5
472
100
AcDbEntity
8
0
100
AcDbPolyline
90
8
70
1
43
0.0
10
1096.3499999999997
20
-1714.3856518507698
42
0.99999999999999989
10
1099.2143481492299
20
-1717.2500000000002
10
1143.485651850769
20
-1717.2500000000002
42
0.99999999999999989
10
1146.3499999999997
20
-1714.3856518507698
10
1146.3499999999995
20
-1711.0143481492305
42
0.99999999999999989
10
1143.485651850769
20
-1708.1500000000001
10
1099.2143481492301
20
-1708.1500000000001
42
0.99999999999999989
10
1096.3499999999997
20
-1711.0143481492305
0
LWPOLYLINE
5
473
100
AcDbEntity
8
0
100
AcDbPolyline
90
8
70
1
43
0.0
10
443.48565185076899
20
-1717.2500000000002
42
0.99999999999999989
10
446.34999999999957
20
-1714.3856518507698
10
446.34999999999957
20
-1711.0143481492305
42
0.99999999999999989
10
443.48565185076899
20
-1708.1500000000001
10
399.21434814923003
20
-1708.1500000000001
42
0.99999999999999989
10
396.34999999999957
20
-1711.0143481492305
10
396.34999999999945
20
-1714.3856518507698
42
0.99999999999999989
10
399.21434814922998
20
-1717.2500000000002
0
LWPOLYLINE
5
474
100
AcDbEntity
8
0
100
AcDbPolyline
90
8
70
1
43
0.0
10
746.34999999999968
20
-1714.3856518507698
42
0.99999999999999989
10
749.21434814922975
20
-1717.2500000000002
10
793.48565185076905
20
-1717.2500000000002
42
0.99999999999999989
10
796.34999999999968
20
-1714.3856518507698
10
796.34999999999945
20
-1711.0143481492305
42
0.99999999999999989
10
793.48565185076905
20
-1708.1500000000001
10
749.21434814923009
20
-1708.1500000000001
42
0.99999999999999989
10
746.34999999999968
20
-1711.0143481492305
0
LWPOLYLINE
5
475
100
AcDbEntity
8
0
100
AcDbPolyline
90
8
70
1
43
0.0
10
1446.3499999999997
20
-1714.3856518507698
42
0.99999999999999989
10
1449.2143481492301
20
-1717.2500000000002
10
1493.4856518507693
20
-1717.2500000000002
42
0.99999999999999989
10
1496.3499999999997
20
-1714.3856518507698
10
1496.3499999999997
20
-1711.0143481492305
42
0.99999999999999989
10
1493.4856518507693
20
-1708.1500000000001
10
1449.2143481492301
20
-1708.1500000000001
42
0.99999999999999989
10
1446.3499999999997
20
-1711.0143481492305
0
LWPOLYLINE
5
476
100
AcDbEntity
8
0
100
AcDbPolyline
90
8
70
1
43
0.0
10
1496.3499999999999
20
-1338.3143481492302
42
0.99999999999999989
10
1493.4856518507695
20
-1335.4499999999994
10
1449.2143481492301
20
-1335.4499999999996
42
0.99999999999999989
10
1446.3499999999999
20
-1338.3143481492302
10
1446.3499999999999
20
-1341.6856518507693
42
0.99999999999999989
10
1449.2143481492301
20
-1344.5500000000002
10
1493.4856518507697
20
-1344.5500000000002
42
0.99999999999999989
10
1496.3499999999999
20
-1341.6856518507693
0
LWPOLYLINE
5
477
100
AcDbEntity
8
0
100
AcDbPolyline
90
8
70
1
43
0.0
10
1146.3499999999997
20
-1338.3143481492302
42
0.99999999999999989
10
1143.4856518507693
20
-1335.4499999999998
10
1099.2143481492301
20
-1335.4499999999996
42
0.99999999999999989
10
1096.3499999999999
20
-1338.3143481492307
10
1096.3500000000001
20
-1341.6856518507691
42
0.99999999999999989
10
1099.2143481492299
20
-1344.5500000000002
10
1143.4856518507695
20
-1344.5500000000002
42
0.99999999999999989
10
1146.3499999999999
20
-1341.6856518507693
0
LWPOLYLINE
5
478
100
AcDbEntity
8
0
100
AcDbPolyline
90
8
70
1
43
0.0
10
796.3499999999998
20
-1338.3143481492302
42
0.99999999999999989
10
793.48565185076939
20
-1335.4499999999998
10
749.21434814923009
20
-1335.4499999999996
42
0.99999999999999989
10
746.34999999999991
20
-1338.3143481492307
10
746.35000000000002
20
-1341.6856518507691
42
0.99999999999999989
10
749.21434814923009
20
-1344.5500000000002
10
793.4856518507695
20
-1344.5500000000002
42
0.99999999999999989
10
796.34999999999991
20
-1341.6856518507693
0
LWPOLYLINE
5
479
100
AcDbEntity
8
0
100
AcDbPolyline
90
8
70
1
43
0.0
10
446.34999999999991
20
-1338.3143481492302
42
0.99999999999999989
10
443.4856518507695
20
-1335.4499999999998
10
399.21434814923003
20
-1335.4499999999996
42
0.99999999999999989
10
396.34999999999991
20
-1338.3143481492302
10
396.34999999999985
20
-1341.6856518507693
42
0.99999999999999989
10
399.21434814923003
20
-1344.5500000000002
10
443.48565185076961
20
-1344.5500000000002
42
0.99999999999999989
10
446.34999999999991
20
-1341.6856518507693
0
LWPOLYLINE
5
480
100
AcDbEntity
8
0
100
AcDbPolyline
90
8
70
1
43
0.0
10
96.349999999999895
20
-1338.3143481492302
42
0.99999999999999989
10
93.485651850769301
20
-1335.4499999999998
10
49.214348149230069
20
-1335.4499999999996
42
0.99999999999999989
10
46.349999999999909
20
-1338.3143481492302
10
46.349999999999874
20
-1341.6856518507693
42
0.99999999999999989
10
49.214348149230034
20
-1344.5500000000002
10
93.485651850769628
20
-1344.5500000000002
42
0.99999999999999989
10
96.349999999999909
20
-1341.6856518507693
0
LWPOLYLINE
5
481
100
AcDbEntity
8
0
100
AcDbPolyline
90
8
70
1
43
0.0
10
18.314348149230327
20
-1394.5499999999997
42
0.99999998946328783
10
15.449999978658811
20
-1397.4143481278893
10
15.449999999999832
20
-1441.68565185077
42
0.99999999999999989
10
18.314348149230284
20
-1444.5500000000004
10
21.685651850769286
20
-1444.5500000000004
42
0.99999998946328783
10
24.549999999999844
20
-1441.68565185077
10
24.549999999999809
20
-1397.4143481492301
42
0.99999999999999989
10
21.68565185076929
20
-1394.5499999999997
0
LWPOLYLINE
5
482
100
AcDbEntity
8
0
100
AcDbPolyline
90
8
70
1
43
0.0
10
15.449999999999759
20
-1673.4856518507695
42
0.99999999999999989
10
18.314348149230135
20
-1676.3499999999999
10
21.685651850769286
20
-1676.3499999999999
42
0.99999998946328783
10
24.549999999999844
20
-1673.4856518507695
10
24.549999999999809
20
-1629.2143481492303
42
0.99999999999999989
10
21.68565185076929
20
-1626.3499999999999
10
18.314348149230327
20
-1626.3499999999999
42
1.0000000105367122
10
15.449999999999873
20
-1629.2143481492303
0
LWPOLYLINE
5
483
100
AcDbEntity
8
0
100
AcDbPolyline
90
8
70
1
43
0.0
10
762.25
20
-1698.4856518507695
42
0.99999999999999989
10
765.11434814923007
20
-1701.3499999999999
10
777.5856518507693
20
-1701.3499999999999
42
0.99999999999999989
10
780.44999999999982
20
-1698.4856518507695
10
780.4499999999997
20
-1654.2143481492303
42
0.99999999999999989
10
777.5856518507693
20
-1651.3499999999999
10
765.11434814923041
20
-1651.3499999999999
42
0.99999999999999989
10
762.25
20
-1654.2143481492303
0
LWPOLYLINE
5
484
100
AcDbEntity
8
0
100
AcDbPolyline
90
8
70
1
43
0.0
10
762.25
20
-1598.4856518507695
42
0.99999999999999989
10
765.11434814923007
20
-1601.3499999999999
10
777.5856518507693
20
-1601.3499999999999
42
0.99999999999999989
10
780.44999999999982
20
-1598.4856518507695
10
780.4499999999997
20
-1554.2143481492303
42
0.99999999999999989
10
777.5856518507693
20
-1551.3499999999999
10
765.11434814923041
20
-1551.3499999999999
42
0.99999999999999989
10
762.25
20
-1554.2143481492303
0
LWPOLYLINE
5
485
100
AcDbEntity
8
0
100
AcDbPolyline
90
6
70
1
43
0.0
10
1526.3499999999999
20
-1813.6032328544316
42
0.41421356237311169
10
1536.3499999999999
20
-1803.6032328544316
10
1536.3499999999999
20
-1752.55
10
6.3499999999999091
20
-1752.55
10
6.3499999999999091
20
-1803.6032328544316
42
0.41421356237309792
10
16.349999999999913
20
-1813.6032328544316
0
LWPOLYLINE
5
486
100
AcDbEntity
8
0
100
AcDbPolyline
90
10
70
1
43
0.0
10
783.73189987384626
20
-1968.6492480230777
42
0.99999999999999989
10
780.86755172461585
20
-1965.7848998738473
10
768.39624802307651
20
-1965.7848998738471
42
0.99999999999999989
10
765.53189987384621
20
-1968.6492480230777
10
765.53189987384621
20
-1983.9848998738471
10
27.628899873846109
20
-1983.9848998738471
10
27.628899873845967
20
-1833.9848998738471
10
1539.6318998738461
20
-1833.9848998738471
10
1539.6318998738461
20
-1983.9848998738471
10
783.73189987384626
20
-1983.9848998738471
0
CIRCLE
5
487
100
AcDbEntity
8
0
100
AcDbCircle
10
1530.5318998738462
20
-1858.9848998738471
30
0
40
4.050000000000205
210
0
220
-0
230
1
0
CIRCLE
5
488
100
AcDbEntity
8
0
100
AcDbCircle
10
774.63189987384624
20
-1940.7848998738473
30
0
40
4.050000000000205
210
0
220
-0
230
1
0
CIRCLE
5
489
100
AcDbEntity
8
0
100
AcDbCircle
10
774.63189987384624
20
-1858.9848998738471
30
0
40
4.050000000000205
210
0
220
-0
230
1
0
CIRCLE
5
490
100
AcDbEntity
8
0
100
AcDbCircle
10
1530.5318998738462
20
-1940.7848998738473
30
0
40
4.050000000000205
210
0
220
-0
230
1
0
LWPOLYLINE
5
491
100
AcDbEntity
8
0
100
AcDbPolyline
90
16
70
1
43
0.0
10
759.0533726954942
20
-2005.5165608357511
42
0.99999999999999989
10
761.91772084472461
20
-2008.3809089849815
10
774.38902454626373
20
-2008.3809089849815
42
0.99999999999999989
10
777.25337269549414
20
-2005.5165608357511
10
777.25337269549414
20
-1999.2809089849814
10
1533.1533726954942
20
-1999.2809089849814
10
1533.1533726954942
20
-2149.2809089849816
10
777.25337269549414
20
-2149.2809089849816
10
777.25337269549425
20
-2133.9452571342117
42
0.99999999999999989
10
774.38902454626373
20
-2131.0809089849813
10
761.91772084472461
20
-2131.0809089849813
42
0.99999999999999989
10
759.0533726954942
20
-2133.9452571342117
10
759.0533726954942
20
-2149.2809089849816
10
21.353372695494102
20
-2149.2809089849816
10
21.353372695494102
20
-1999.2809089849814
10
759.0533726954942
20
-1999.2809089849814
0
CIRCLE
5
492
100
AcDbEntity
8
0
100
AcDbCircle
10
768.15337269549423
20
-2106.0809089849813
30
0
40
4.0500000000002041
210
0
220
-0
230
1
0
CIRCLE
5
493
100
AcDbEntity
8
0
100
AcDbCircle
10
1524.0533726954941
20
-2106.0809089849813
30
0
40
4.0500000000002041
210
0
220
-0
230
1
0
CIRCLE
5
494
100
AcDbEntity
8
0
100
AcDbCircle
10
1524.0533726954941
20
-2033.3809089849815
30
0
40
4.0500000000002041
210
0
220
-0
230
1
0
CIRCLE
5
495
100
AcDbEntity
8
0
100
AcDbCircle
10
768.15337269549423
20
-2033.3809089849815
30
0
40
4.0500000000002041
210
0
220
-0
230
1
0
LWPOLYLINE
5
496
100
AcDbEntity
8
0
100
AcDbPolyline
90
4
70
1
43
0.0
10
21.353372695494102
20
-2166.3809089849815
10
21.353372695494102
20
-2216.3809089849815
10
1533.1533726954942
20
-2216.3809089849815
10
1533.1533726954942
20
-2166.3809089849815
0
CIRCLE
5
497
100
AcDbEntity
8
0
100
AcDbCircle
10
1298.1533726954942
20
-2191.3809089849815
30
0
40
5
210
0
220
-0
230
1
0
CIRCLE
5
498
100
AcDbEntity
8
0
100
AcDbCircle
10
1468.1533726954942
20
-2191.3809089849815
30
0
40
5
210
0
220
-0
230
1
0
LWPOLYLINE
5
499
100
AcDbEntity
8
0
100
AcDbPolyline
90
12
70
1
43
0.0
10
39.179395888879441
20
-2239.7165608357509
42
0.99999999999999989
10
42.043744038109878
20
-2242.5809089849818
10
421.31504773964906
20
-2242.5809089849818
42
0.99999999999999989
10
424.17939588887947
20
-2239.7165608357509
10
424.17939588887947
20
-2224.3809089849815
10
1054.1793958888795
20
-2224.3809089849815
10
1054.1793958888795
20
-2239.7165608357509
42
0.99999999999999989
10
1057.0437440381099
20
-2242.5809089849818
10
1439.1793958888795
20
-2242.5809089849818
10
1439.1793958888795
20
-2324.3809089849815
10
12.253372695494139
20
-2324.3809089849815
10
39.179395888879469
20
-2224.3809089849815
0
CIRCLE
5
500
100
AcDbEntity
8
0
100
AcDbCircle
10
415.0793958888795
20
-2262.5809089849818
30
0
40
4.0500000000000007
210
0
220
-0
230
1
0
CIRCLE
5
501
100
AcDbEntity
8
0
100
AcDbCircle
10
1063.2793958888794
20
-2262.5809089849818
30
0
40
4.0500000000000007
210
0
220
-0
230
1
0
CIRCLE
5
502
100
AcDbEntity
8
0
100
AcDbCircle
10
1063.2793958888794
20
-2303.584045346583
30
0
40
4.0500000000000007
210
0
220
-0
230
1
0
CIRCLE
5
503
100
AcDbEntity
8
0
100
AcDbCircle
10
415.0793958888795
20
-2304.3809089849815
30
0
40
4.0500000000000007
210
0
220
-0
230
1
0
LWPOLYLINE
5
504
100
AcDbEntity
8
0
100
AcDbPolyline
90
4
70
1
43
0.0
10
24.549999999999983
20
-2443.703
10
24.549999999999983
20
-2493.703
10
1037.25
20
-2493.703
10
1037.25
20
-2443.703
0
CIRCLE
5
505
100
AcDbEntity
8
0
100
AcDbCircle
10
185.49285714285716
20
-2415.7030000000004
30
0
40
2
210
0
220
-0
230
1
0
CIRCLE
5
506
100
AcDbEntity
8
0
100
AcDbCircle
10
476.92142857142863
20
-2415.7030000000004
30
0
40
2
210
0
220
-0
230
1
0
CIRCLE
5
507
100
AcDbEntity
8
0
100
AcDbCircle
10
768.35000000000014
20
-2415.7030000000004
30
0
40
2
210
0
220
-0
230
1
0
CIRCLE
5
508
100
AcDbEntity
8
0
100
AcDbCircle
10
1059.7785714285715
20
-2415.7030000000004
30
0
40
2
210
0
220
-0
230
1
0
CIRCLE
5
509
100
AcDbEntity
8
0
100
AcDbCircle
10
1351.207142857143
20
-2415.7030000000004
30
0
40
2
210
0
220
-0
230
1
0
CIRCLE
5
510
100
AcDbEntity
8
0
100
AcDbCircle
10
1205.4928571428572
20
-2415.7030000000004
30
0
40
2
210
0
220
-0
230
1
0
CIRCLE
5
511
100
AcDbEntity
8
0
100
AcDbCircle
10
914.0642857142858
20
-2415.7030000000004
30
0
40
2
210
0
220
-0
230
1
0
CIRCLE
5
512
100
AcDbEntity
8
0
100
AcDbCircle
10
622.63571428571436
20
-2415.7030000000004
30
0
40
2
210
0
220
-0
230
1
0
CIRCLE
5
513
100
AcDbEntity
8
0
100
AcDbCircle
10
331.20714285714291
20
-2415.7030000000004
30
0
40
2
210
0
220
-0
230
1
0
CIRCLE
5
514
100
AcDbEntity
8
0
100
AcDbCircle
10
39.778571428571468
20
-2415.7030000000004
30
0
40
2
210
0
220
-0
230
1
0
LWPOLYLINE
5
515
100
AcDbEntity
8
0
100
AcDbPolyline
90
6
70
1
43
0.0
10
1384.6357142857141
20
-2435.7030000000004
10
1384.6357142857141
20
-2412.7030000000004
42
0.41421356237308032
10
1367.6357142857146
20
-2395.7030000000004
10
23.349999999999795
20
-2395.7030000000004
42
0.41421356237309015
10
6.3500000000000352
20
-2412.7030000000004
10
6.3499999999999099
20
-2435.7030000000004
0
LWPOLYLINE
5
516
100
AcDbEntity
8
0
100
AcDbPolyline
90
4
70
1
43
0.0
10
35.511666835461995
20
-2336.5119511608491
10
35.511666835462002
20
-2386.5119511608491
10
1048.2116668354624
20
-2386.5119511608491
10
1048.211666835462
20
-2336.5119511608495
0
CIRCLE
5
517
100
AcDbEntity
8
0
100
AcDbCircle
10
1128.4499999999998
20
-2468.7030000000004
30
0
40
5
210
0
220
-0
230
1
0
CIRCLE
5
518
100
AcDbEntity
8
0
100
AcDbCircle
10
1298.4499999999998
20
-2468.7030000000004
30
0
40
5
210
0
220
-0
230
1
0
LWPOLYLINE
5
519
100
AcDbEntity
8
0
100
AcDbPolyline
90
4
70
1
43
0.0
10
1063.4499999999998
20
-2443.7030000000004
10
1063.4499999999998
20
-2493.7030000000004
10
1363.4499999999998
20
-2493.7030000000004
10
1363.4499999999998
20
-2443.7030000000004
0
LWPOLYLINE
5
520
100
AcDbEntity
8
0
100
AcDbPolyline
90
4
70
1
43
0.0
10
1565.5500000000002
20
-1957.45
10
1565.5500000000002
20
-2057.4499999999998
10
2195.5500000000002
20
-2057.4499999999998
10
2195.5500000000002
20
-1957.45
0
LWPOLYLINE
5
521
100
AcDbEntity
8
0
100
AcDbPolyline
90
4
70
1
43
0.0
10
1565.5500000000002
20
-1849.4499999999998
10
1565.5500000000002
20
-1949.4499999999998
10
2195.5500000000002
20
-1949.4499999999998
10
2195.5500000000002
20
-1849.4499999999998
0
LWPOLYLINE
5
522
100
AcDbEntity
8
0
100
AcDbPolyline
90
4
70
1
43
0.0
10
2294.1500000000001
20
-1841.4499999999998
10
2294.1500000000001
20
-1791.4499999999998
10
1547.3500000000001
20
-1791.4499999999998
10
1547.3500000000001
20
-1841.4499999999998
0
LWPOLYLINE
5
523
100
AcDbEntity
8
0
100
AcDbPolyline
90
20
70
1
43
0.0
10
1544.3499999999997
20
-1731.9500000000003
42
0.41421356237320606
10
1545.8499999999999
20
-1733.4500000000003
10
1550.5856518507694
20
-1733.45
42
-0.99999999999999989
10
1553.4499999999998
20
-1736.3143481492305
10
1553.4499999999998
20
-1783.45
10
2291.1500000000001
20
-1783.45
10
2291.1500000000001
20
-1736.3143481492302
42
-0.99999999999999989
10
2294.0143481492305
20
-1733.4499999999998
10
2307.8500000000004
20
-1733.45
42
0.41421356237303958
10
2309.3499999999999
20
-1731.9500000000003
10
2309.3499999999999
20
-1634.9499999999998
42
0.41421356237309503
10
2307.8499999999999
20
-1633.4499999999998
10
2294.014348149231
20
-1633.45
42
-0.99999999999999989
10
2291.1500000000005
20
-1630.5856518507696
10
2291.1500000000001
20
-1583.45
10
1553.4499999999998
20
-1583.45
10
1553.4499999999998
20
-1630.5856518507696
42
-0.99999999999999989
10
1550.5856518507694
20
-1633.45
10
1545.8499999999999
20
-1633.45
42
0.41421356237320606
10
1544.3499999999997
20
-1634.9499999999998
0
CIRCLE
5
524
100
AcDbEntity
8
0
100
AcDbCircle
10
2241.1500000000001
20
-1592.5500000000002
30
0
40
4.0499999999999909
210
0
220
-0
230
1
0
CIRCLE
5
525
100
AcDbEntity
8
0
100
AcDbCircle
10
1922.3
20
-1774.3499999999997
30
0
40
4.0499999999999909
210
0
220
-0
230
1
0
CIRCLE
5
526
100
AcDbEntity
8
0
100
AcDbCircle
10
1603.4499999999998
20
-1774.3499999999997
30
0
40
4.0499999999999909
210
0
220
-0
230
1
0
CIRCLE
5
527
100
AcDbEntity
8
0
100
AcDbCircle
10
1603.4499999999998
20
-1592.5500000000002
30
0
40
4.0499999999999909
210
0
220
-0
230
1
0
CIRCLE
5
528
100
AcDbEntity
8
0
100
AcDbCircle
10
1922.2999999999993
20
-1592.5500000000002
30
0
40
4.0499999999999909
210
0
220
-0
230
1
0
CIRCLE
5
529
100
AcDbEntity
8
0
100
AcDbCircle
10
2241.1500000000001
20
-1774.3499999999997
30
0
40
4.0499999999999909
210
0
220
-0
230
1
0
LWPOLYLINE
5
530
100
AcDbEntity
8
0
100
AcDbPolyline
90
6
70
1
43
0.0
10
1510.3499999999999
20
-1211.6500000000001
42
0.41421356237310336
10
1530.3499999999999
20
-1191.6500000000001
10
1530.3499999999997
20
-1161.6500000000001
10
6.3499999999996248
20
-1161.6500000000001
10
6.3499999999997669
20
-1191.6500000000001
42
0.41421356237309437
10
26.34999999999977
20
-1211.6500000000001
0
LWPOLYLINE
5
531
100
AcDbEntity
8
0
100
AcDbPolyline
90
4
70
1
43
0.0
10
2291.1500000000001
20
-1187.45
10
2291.1500000000001
20
-1137.45
10
1544.3499999999999
20
-1137.45
10
1544.3499999999999
20
-1187.45
0
LWPOLYLINE
5
532
100
AcDbEntity
8
0
100
AcDbPolyline
90
8
70
1
43
0.0
10
2384.3500000000004
20
-990.21434814923032
42
0.99999999999999989
10
2381.4856518507695
20
-987.35000000000014
10
2378.1143481492304
20
-987.35000000000014
42
0.99999999999999989
10
2375.25
20
-990.21434814923066
10
2375.25
20
-1034.4856518507695
42
0.99999999999999989
10
2378.1143481492304
20
-1037.3500000000001
10
2381.4856518507695
20
-1037.3499999999999
42
0.99999999999999989
10
2384.3500000000004
20
-1034.48565185077
0
LWPOLYLINE
5
533
100
AcDbEntity
8
0
100
AcDbPolyline
90
8
70
1
43
0.0
10
2381.4856518507695
20
-922.35000000000002
42
0.99999999999999989
10
2384.3500000000004
20
-919.48565185076984
10
2384.3500000000004
20
-875.21434814923032
42
0.99999999999999989
10
2381.4856518507695
20
-872.35000000000014
10
2378.1143481492304
20
-872.35000000000014
42
0.99999999999999989
10
2375.25
20
-875.21434814923066
10
2375.25
20
-919.48565185076961
42
0.99999999999999989
10
2378.1143481492304
20
-922.35000000000014
0
LWPOLYLINE
5
534
100
AcDbEntity
8
0
100
AcDbPolyline
90
8
70
1
43
0.0
10
1559.6856518507695
20
-915.54999999999995
42
0.99999999999999989
10
1562.55
20
-912.68565185076977
10
1562.55
20
-868.41434814923048
42
0.99999999999999989
10
1559.6856518507695
20
-865.55000000000007
10
1556.3143481492305
20
-865.55000000000018
42
0.99999999999999989
10
1553.45
20
-868.41434814923059
10
1553.45
20
-912.68565185076966
42
0.99999999999999989
10
1556.3143481492305
20
-915.55000000000007
0
LWPOLYLINE
5
535
100
AcDbEntity
8
0
100
AcDbPolyline
90
8
70
1
43
0.0
10
1553.4500000000003
20
-1034.4856518507697
42
1.0000000105367122
10
1556.3143481705711
20
-1037.3499999786595
10
1559.6856518507693
20
-1037.3499999999999
42
0.99999999999999989
10
1562.55
20
-1034.4856518507697
10
1562.55
20
-990.21434814923055
42
0.99999999999999989
10
1559.6856518507695
20
-987.35000000000002
10
1556.3143481492305
20
-987.35000000000014
42
0.99999999999999989
10
1553.45
20
-990.21434814923055
0
CIRCLE
5
536
100
AcDbEntity
8
0
100
AcDbCircle
10
1745.25
20
-831.45000000000005
30
0
40
3.9999999999999432
210
0
220
-0
230
1
0
CIRCLE
5
537
100
AcDbEntity
8
0
100
AcDbCircle
10
1890.25
20
-831.45000000000005
30
0
40
3.9999999999999432
210
0
220
-0
230
1
0
CIRCLE
5
538
100
AcDbEntity
8
0
100
AcDbCircle
10
2325.25
20
-831.45000000000005
30
0
40
3.9999999999999432
210
0
220
-0
230
1
0
CIRCLE
5
539
100
AcDbEntity
8
0
100
AcDbCircle
10
2180.25
20
-831.45000000000005
30
0
40
3.9999999999999432
210
0
220
-0
230
1
0
CIRCLE
5
540
100
AcDbEntity
8
0
100
AcDbCircle
10
2035.25
20
-831.45000000000005
30
0
40
3.9999999999999432
210
0
220
-0
230
1
0
CIRCLE
5
541
100
AcDbEntity
8
0
100
AcDbCircle
10
1600.25
20
-831.45000000000005
30
0
40
3.9999999999999432
210
0
220
-0
230
1
0
LWPOLYLINE
5
542
100
AcDbEntity
8
0
100
AcDbPolyline
90
25
70
1
43
0.0
10
1612.55
20
-1065.2143481492308
42
0.99999999999999989
10
1609.6856518507695
20
-1062.3499999999999
10
1544.3499999999999
20
-1062.3500000000001
10
1544.3499999999999
20
-822.35000000000014
10
2375.25
20
-822.35000000000014
10
2375.25
20
-837.68565185076966
42
0.99999999999999989
10
2378.1143481492304
20
-840.55000000000007
10
2393.4499999999998
20
-840.55000000000007
10
2393.4499999999998
20
-1062.3500000000001
10
2328.1143481492304
20
-1062.3500000000001
42
0.99999999999999989
10
2325.25
20
-1065.2143481492308
10
2325.25
20
-1071.45
10
2275.25
20
-1071.45
10
2275.25
20
-1065.2143481492305
42
0.99999999999999989
10
2272.3856518507696
20
-1062.3500000000001
10
1987.6643481492304
20
-1062.3500000000001
42
0.99999999999999989
10
1984.8
20
-1065.2143481492308
10
1984.8
20
-1071.45
10
1934.8
20
-1071.45
10
1934.8
20
-1065.2143481492305
42
0.99999999999999989
10
1931.9356518507695
20
-1062.3500000000001
10
1665.4143481492301
20
-1062.3500000000001
42
0.99999999999999989
10
1662.55
20
-1065.2143481492305
10
1662.55
20
-1071.45
10
1612.55
20
-1071.45
0
LWPOLYLINE
5
543
100
AcDbEntity
8
0
100
AcDbPolyline
90
4
70
1
43
0.0
10
2375.25
20
-639.35000000000002
10
2375.25
20
-589.35000000000002
10
2384.3499999999999
20
-589.35000000000002
10
2384.3499999999999
20
-639.35000000000002
0
LWPOLYLINE
5
544
100
AcDbEntity
8
0
100
AcDbPolyline
90
4
70
1
43
0.0
10
2384.3499999999999
20
-514.34999999999991
10
2375.25
20
-514.34999999999991
10
2375.25
20
-464.35000000000002
10
2384.3499999999999
20
-464.35000000000002
0
LWPOLYLINE
5
545
100
AcDbEntity
8
0
100
AcDbPolyline
90
6
70
1
43
0.0
10
1562.55
20
-414.35000000000002
10
1562.55
20
-814.35000000000002
10
2202.0286437626905
20
-814.34999999999991
42
0.19891236737965498
10
2272.7393218813454
20
-785.06067811865478
10
2393.4499999999998
20
-664.35000000000002
10
2393.4499999999998
20
-414.35000000000002
0
LWPOLYLINE
5
546
100
AcDbEntity
8
0
100
AcDbPolyline
90
4
70
1
43
0.0
10
2375.25
20
-231.34999999999991
10
2375.25
20
-181.34999999999991
10
2384.3499999999999
20
-181.34999999999991
10
2384.3499999999999
20
-231.34999999999991
0
LWPOLYLINE
5
547
100
AcDbEntity
8
0
100
AcDbPolyline
90
4
70
1
43
0.0
10
2375.25
20
-306.34999999999997
10
2384.3499999999999
20
-306.34999999999997
10
2384.3499999999999
20
-356.34999999999991
10
2375.25
20
-356.34999999999991
0
LWPOLYLINE
5
548
100
AcDbEntity
8
0
100
AcDbPolyline
90
6
70
1
43
0.0
10
1562.55
20
-6.349999999999838
10
1562.55
20
-406.34999999999991
10
2393.4499999999998
20
-406.34999999999991
10
2393.4499999999998
20
-156.34999999999991
10
2272.7393218813454
20
-35.639321881345161
42
0.19891236737965673
10
2202.0286437626905
20
-6.3499999999998558
0
CIRCLE
5
549
100
AcDbEntity
8
0
100
AcDbCircle
10
261.34999999999991
20
-129.34999999999971
30
0
40
4.0500000000000007
210
0
220
-0
230
1
0
CIRCLE
5
550
100
AcDbEntity
8
0
100
AcDbCircle
10
552.77857142857135
20
-129.34999999999968
30
0
40
4.0500000000000007
210
0
220
-0
230
1
0
CIRCLE
5
551
100
AcDbEntity
8
0
100
AcDbCircle
10
844.2071428571428
20
-129.34999999999968
30
0
40
4.0500000000000007
210
0
220
-0
230
1
0
CIRCLE
5
552
100
AcDbEntity
8
0
100
AcDbCircle
10
1135.6357142857141
20
-129.34999999999968
30
0
40
4.0500000000000007
210
0
220
-0
230
1
0
CIRCLE
5
553
100
AcDbEntity
8
0
100
AcDbCircle
10
1427.0642857142857
20
-129.34999999999962
30
0
40
4.0500000000000007
210
0
220
-0
230
1
0
CIRCLE
5
554
100
AcDbEntity
8
0
100
AcDbCircle
10
1281.3499999999999
20
-129.34999999999965
30
0
40
4.0500000000000007
210
0
220
-0
230
1
0
CIRCLE
5
555
100
AcDbEntity
8
0
100
AcDbCircle
10
989.92142857142858
20
-129.34999999999968
30
0
40
4.0500000000000007
210
0
220
-0
230
1
0
CIRCLE
5
556
100
AcDbEntity
8
0
100
AcDbCircle
10
698.49285714285713
20
-129.34999999999968
30
0
40
4.0500000000000007
210
0
220
-0
230
1
0
CIRCLE
5
557
100
AcDbEntity
8
0
100
AcDbCircle
10
407.06428571428569
20
-129.34999999999971
30
0
40
4.0500000000000007
210
0
220
-0
230
1
0
CIRCLE
5
558
100
AcDbEntity
8
0
100
AcDbCircle
10
115.63571428571422
20
-129.34999999999971
30
0
40
4.0500000000000007
210
0
220
-0
230
1
0
CIRCLE
5
559
100
AcDbEntity
8
0
100
AcDbCircle
10
246.34999999999985
20
-1046.3499999999997
30
0
40
1.5000000000000002
210
-0
220
0
230
1
0
CIRCLE
5
560
100
AcDbEntity
8
0
100
AcDbCircle
10
946.34999999999991
20
-1046.3499999999997
30
0
40
1.5000000000000002
210
-0
220
0
230
1
0
CIRCLE
5
561
100
AcDbEntity
8
0
100
AcDbCircle
10
1514.8545227278523
20
-1046.3499999999997
30
0
40
1.5000000000000002
210
-0
220
0
230
1
0
CIRCLE
5
562
100
AcDbEntity
8
0
100
AcDbCircle
10
1296.3499999999999
20
-1046.3499999999997
30
0
40
1.5000000000000002
210
-0
220
0
230
1
0
CIRCLE
5
563
100
AcDbEntity
8
0
100
AcDbCircle
10
596.34999999999991
20
-1046.3499999999997
30
0
40
1.5000000000000002
210
-0
220
0
230
1
0
CIRCLE
5
564
100
AcDbEntity
8
0
100
AcDbCircle
10
27.849999999999824
20
-1046.3499999999997
30
0
40
1.5000000000000002
210
-0
220
0
230
1
0
LWPOLYLINE
5
565
100
AcDbEntity
8
0
100
AcDbPolyline
90
4
70
1
43
0.0
10
446.34999999999991
20
-1037.2499999999995
10
446.34999999999991
20
-1046.3499999999997
10
396.34999999999991
20
-1046.3499999999997
10
396.34999999999991
20
-1037.2499999999995
0
LWPOLYLINE
5
566
100
AcDbEntity
8
0
100
AcDbPolyline
90
4
70
1
43
0.0
10
796.34999999999991
20
-1037.2499999999995
10
796.34999999999991
20
-1046.3499999999997
10
746.34999999999991
20
-1046.3499999999997
10
746.34999999999991
20
-1037.2499999999995
0
LWPOLYLINE
5
567
100
AcDbEntity
8
0
100
AcDbPolyline
90
4
70
1
43
0.0
10
46.349999999999909
20
-1037.2499999999995
10
96.349999999999767
20
-1037.2499999999995
10
96.349999999999767
20
-1046.3499999999997
10
46.349999999999909
20
-1046.3499999999997
0
LWPOLYLINE
5
568
100
AcDbEntity
8
0
100
AcDbPolyline
90
4
70
1
43
0.0
10
1146.3499999999999
20
-1037.2499999999995
10
1146.3499999999999
20
-1046.3499999999997
10
1096.3499999999999
20
-1046.3499999999997
10
1096.3499999999999
20
-1037.2499999999995
0
LWPOLYLINE
5
569
100
AcDbEntity
8
0
100
AcDbPolyline
90
4
70
1
43
0.0
10
1496.3499999999999
20
-1037.2499999999995
10
1496.3499999999999
20
-1046.3499999999997
10
1446.3499999999999
20
-1046.3499999999997
10
1446.3499999999999
20
-1037.2499999999995
0
LWPOLYLINE
5
570
100
AcDbEntity
8
0
100
AcDbPolyline
90
89
70
1
43
0.0
10
1526.3499999999999
20
-1055.4499999999996
42
0.19891236737965057
10
1533.4210678118654
20
-1052.5210678118649
10
1533.3499999999999
20
-1045.4499999999998
10
1533.3499999999999
20
-965.44999999999959
42
0.41421356237311291
10
1526.3499999999997
20
-958.44999999999959
10
1483.4928571428572
20
-958.44999999999959
42
-0.41421356237308232
10
1460.492857142857
20
-935.44999999999959
10
1460.492857142857
20
-126.34999999999962
42
0.41421356237308926
10
1443.4928571428572
20
-109.34999999999951
10
1410.6357142857144
20
-109.34999999999965
42
0.41421356237309442
10
1393.6357142857146
20
-126.34999999999964
10
1393.6357142857146
20
-935.44999999999959
42
-0.41421356237308599
10
1370.6357142857144
20
-958.44999999999959
10
1337.7785714285715
20
-958.44999999999936
42
-0.41421356237310591
10
1314.7785714285715
20
-935.44999999999959
10
1314.7785714285715
20
-126.34999999999962
42
0.41421356237309415
10
1297.7785714285712
20
-109.34999999999965
10
1264.9214285714286
20
-109.34999999999965
42
0.41421356237309442
10
1247.9214285714286
20
-126.34999999999964
10
1247.9214285714286
20
-935.44999999999959
42
-0.41421356237308782
10
1224.9214285714286
20
-958.44999999999959
10
1192.0642857142857
20
-958.44999999999959
42
-0.41421356237308599
10
1169.0642857142857
20
-935.44999999999959
10
1169.0642857142857
20
-126.34999999999962
42
0.41421356237309381
10
1152.0642857142857
20
-109.34999999999967
10
1119.2071428571426
20
-109.34999999999967
42
0.41421356237309287
10
1102.2071428571428
20
-126.34999999999971
10
1102.207142857143
20
-935.44999999999959
42
-0.41421356237308965
10
1079.2071428571428
20
-958.44999999999959
10
1046.3499999999999
20
-958.44999999999959
42
-0.41421356237310591
10
1023.3499999999999
20
-935.44999999999959
10
1023.3499999999999
20
-126.34999999999962
42
0.41421356237309503
10
1006.3499999999999
20
-109.34999999999962
10
973.49285714285713
20
-109.34999999999967
42
0.4142135623730957
10
956.49285714285725
20
-126.34999999999965
10
956.49285714285713
20
-935.44999999999959
42
-0.41421356237308782
10
933.49285714285713
20
-958.44999999999959
10
900.63571428571436
20
-958.44999999999959
42
-0.41421356237310408
10
877.63571428571424
20
-935.44999999999959
10
877.63571428571424
20
-126.34999999999962
42
0.41421356237309476
10
860.63571428571424
20
-109.34999999999968
10
827.77857142857124
20
-109.34999999999968
42
0.4142135623730957
10
810.77857142857124
20
-126.3499999999997
10
810.77857142857124
20
-935.44999999999959
42
-0.41421356237308782
10
787.77857142857124
20
-958.44999999999959
10
754.92142857142858
20
-958.44999999999959
42
-0.41421356237308782
10
731.92142857142858
20
-935.44999999999959
10
731.92142857142858
20
-126.34999999999962
42
0.41421356237309415
10
714.92142857142858
20
-109.34999999999971
10
682.06428571428557
20
-109.34999999999968
42
0.41421356237309592
10
665.06428571428557
20
-126.3499999999997
10
665.06428571428569
20
-935.44999999999959
42
-0.41421356237308965
10
642.06428571428557
20
-958.44999999999959
10
609.2071428571428
20
-958.4499999999997
42
-0.41421356237309775
10
586.2071428571428
20
-935.44999999999959
10
586.2071428571428
20
-126.34999999999962
42
0.4142135623730957
10
569.2071428571428
20
-109.34999999999967
10
536.34999999999991
20
-109.34999999999971
42
0.4142135623730957
10
519.34999999999991
20
-126.3499999999997
10
519.34999999999991
20
-935.44999999999959
42
-0.41421356237309148
10
496.34999999999997
20
-958.44999999999959
10
463.49285714285719
20
-958.44999999999959
42
-0.41421356237309148
10
440.49285714285725
20
-935.44999999999959
10
440.49285714285713
20
-126.34999999999962
42
0.41421356237309442
10
423.49285714285708
20
-109.34999999999971
10
390.63571428571424
20
-109.34999999999971
42
0.41421356237309442
10
373.63571428571419
20
-126.3499999999997
10
373.63571428571424
20
-935.44999999999959
42
-0.41421356237309148
10
350.6357142857143
20
-958.44999999999959
10
317.77857142857135
20
-958.44999999999959
42
-0.41421356237309148
10
294.77857142857141
20
-935.44999999999959
10
294.77857142857135
20
-126.34999999999962
42
0.41421356237309287
10
277.7785714285713
20
-109.34999999999972
10
244.92142857142852
20
-109.34999999999972
42
0.41421356237309442
10
227.92142857142849
20
-126.34999999999971
10
227.92142857142858
20
-935.4499999999997
42
-0.41421356237308965
10
204.92142857142858
20
-958.44999999999959
10
172.0642857142858
20
-958.44999999999959
42
-0.41421356237309193
10
149.06428571428586
20
-935.44999999999959
10
149.0642857142858
20
-126.34999999999962
42
0.41421356237309287
10
132.06428571428575
20
-109.34999999999972
10
99.207142857142685
20
-109.34999999999972
42
0.41421356237309442
10
82.207142857142657
20
-126.34999999999971
10
82.207142857142685
20
-935.4499999999997
42
-0.41421356237309009
10
59.207142857142685
20
-958.44999999999959
10
16.349999999999909
20
-958.44999999999959
42
0.41421356237310103
10
9.3499999999998806
20
-965.44999999999948
10
9.3499999999997421
20
-1052.5914284285423
42
0.19631456527344968
10
16.349999999999913
20
-1055.4499999999996
0
LWPOLYLINE
5
571
100
AcDbEntity
8
0
100
AcDbPolyline
90
94
70
1
43
0.0
10
6.3499999999999091
20
-942.44999999999948
42
0.41421356237310203
10
16.349999999999913
20
-952.44999999999948
10
59.207142857142685
20
-952.44999999999948
42
0.41421356237309503
10
76.207142857142713
20
-935.44999999999948
10
76.2071428571426
20
-126.34999999999948
42
-0.41421356237309437
10
99.207142857142685
20
-103.3499999999995
10
132.06428571428575
20
-103.34999999999958
42
-0.41421356237309592
10
155.06428571428572
20
-126.34999999999955
10
155.06428571428577
20
-935.44999999999959
42
0.41421356237309265
10
172.0642857142858
20
-952.44999999999948
10
204.92142857142858
20
-952.44999999999948
42
0.41421356237309503
10
221.92142857142863
20
-935.44999999999948
10
221.92142857142846
20
-126.34999999999948
42
-0.41421356237309503
10
244.92142857142852
20
-103.3499999999995
10
277.7785714285713
20
-103.34999999999954
42
-0.41421356237309459
10
300.77857142857124
20
-126.34999999999955
10
300.7785714285713
20
-935.44999999999959
42
0.41421356237309265
10
317.77857142857135
20
-952.44999999999948
10
350.6357142857143
20
-952.44999999999948
42
0.41421356237309503
10
367.6357142857143
20
-935.44999999999948
10
367.63571428571419
20
-126.34999999999948
42
-0.41421356237309459
10
390.63571428571424
20
-103.34999999999948
10
423.49285714285713
20
-103.34999999999957
42
-0.41421356237309687
10
446.49285714285713
20
-126.34999999999954
10
446.49285714285719
20
-935.44999999999948
42
0.41421356237309503
10
463.49285714285719
20
-952.44999999999948
10
496.34999999999997
20
-952.44999999999948
42
0.41421356237309503
10
513.35000000000002
20
-935.44999999999948
10
513.34999999999991
20
-126.34999999999948
42
-0.41421356237309687
10
536.34999999999991
20
-103.3499999999995
10
569.2071428571428
20
-103.34999999999944
42
-0.4142135623730962
10
592.2071428571428
20
-126.3499999999995
10
592.20714285714291
20
-935.44999999999948
42
0.41421356237309503
10
609.20714285714291
20
-952.44999999999948
10
642.06428571428569
20
-952.44999999999948
42
0.41421356237309265
10
659.06428571428569
20
-935.44999999999948
10
659.06428571428569
20
-126.34999999999948
42
-0.41421356237309842
10
682.06428571428557
20
-103.34999999999945
10
714.92142857142858
20
-103.34999999999951
42
-0.41421356237309193
10
737.92142857142846
20
-126.34999999999951
10
737.92142857142846
20
-935.44999999999948
42
0.41421356237309503
10
754.92142857142858
20
-952.44999999999948
10
787.77857142857124
20
-952.44999999999948
42
0.41421356237309503
10
804.77857142857135
20
-935.44999999999948
10
804.77857142857135
20
-126.34999999999948
42
-0.41421356237309959
10
827.77857142857124
20
-103.34999999999948
10
860.63571428571424
20
-103.34999999999951
42
-0.41421356237309914
10
883.63571428571413
20
-126.34999999999951
10
883.63571428571413
20
-935.44999999999948
42
0.41421356237309503
10
900.63571428571424
20
-952.44999999999948
10
933.49285714285713
20
-952.44999999999948
42
0.41421356237309503
10
950.49285714285713
20
-935.44999999999948
10
950.49285714285713
20
-126.34999999999948
42
-0.41421356237309731
10
973.49285714285725
20
-103.3499999999995
10
1006.3499999999999
20
-103.34999999999938
42
-0.41421356237309914
10
1029.3499999999999
20
-126.3499999999994
10
1029.3499999999999
20
-935.44999999999948
42
0.41421356237309503
10
1046.3499999999999
20
-952.44999999999948
10
1079.2071428571426
20
-952.44999999999948
42
0.41421356237309748
10
1096.2071428571428
20
-935.44999999999948
10
1096.2071428571428
20
-126.34999999999948
42
-0.41421356237308965
10
1119.2071428571426
20
-103.34999999999944
10
1152.0642857142855
20
-103.34999999999957
42
-0.41421356237309642
10
1175.0642857142857
20
-126.3499999999995
10
1175.0642857142857
20
-935.44999999999948
42
0.41421356237309503
10
1192.0642857142857
20
-952.44999999999948
10
1224.9214285714286
20
-952.44999999999948
42
0.41421356237309265
10
1241.9214285714286
20
-935.44999999999948
10
1241.9214285714284
20
-126.34999999999948
42
-0.41421356237309709
10
1264.9214285714286
20
-103.34999999999943
10
1297.7785714285712
20
-103.34999999999954
42
-0.41421356237310364
10
1320.778571428571
20
-126.34999999999948
10
1320.778571428571
20
-935.44999999999948
42
0.41421356237309503
10
1337.7785714285712
20
-952.44999999999948
10
1370.6357142857144
20
-952.44999999999948
42
0.41421356237309503
10
1387.6357142857141
20
-935.44999999999948
10
1387.6357142857141
20
-126.34999999999948
42
-0.41421356237309365
10
1410.6357142857144
20
-103.3499999999995
10
1443.4928571428572
20
-103.34999999999917
42
-0.41421356237308671
10
1466.492857142857
20
-126.34999999999948
10
1466.492857142857
20
-935.44999999999948
42
0.41421356237309503
10
1483.4928571428572
20
-952.44999999999948
10
1526.3500000000004
20
-952.44999999999948
42
0.41421356237307005
10
1536.3499999999997
20
-942.44999999999948
10
1536.3499999999999
20
-349.58354100859515
42
0.15765837906992625
10
1534.4567922839988
20
-343.72863547015163
10
1493.2432077160011
20
-286.66367222215501
42
-0.15765837906989569
10
1491.3499999999999
20
-280.80876668371138
10
1491.3499999999999
20
-16.349999999999447
42
0.41421356237309803
10
1481.3499999999999
20
-6.3499999999993451
10
79.013560447348254
20
-6.3499999999995262
42
0.33911336445105772
10
69.35747428368947
20
-13.749999999999535
10
6.6939138363412285
20
-246.47489961585563
42
0.065850486040698264
10
6.3499999999999162
20
-249.07489961585571
0
ENDSEC
0
SECTION
2
OBJECTS
0
DICTIONARY
5
C
100
AcDbDictionary
3
ACAD_GROUP
350
D
3
ACAD_MLINESTYLE
350
17
0
DICTIONARY
5
D
100
AcDbDictionary
0
DICTIONARY
5
1A
330
C
100
AcDbDictionary
0
DICTIONARY
5
17
100
AcDbDictionary
0
ENDSEC
0
EOF
